  0
SECTION
  2
HEADER
  9
$ACADVER
  1
AC1015
  9
$ACADMAINTVER
 70
     6
  9
$DWGCODEPAGE
  3
ANSI_1252
  9
$INSBASE
 10
0.0
 20
0.0
 30
0.0
  9
$EXTMIN
 10
-5.9369922259
 20
-5.9369922259
 30
0.0
  9
$EXTMAX
 10
5.9369922259
 20
5.9369922259
 30
0.0
  9
$LIMMIN
 10
0.0
 20
0.0
  9
$LIMMAX
 10
12.0
 20
9.0
  9
$ORTHOMODE
 70
     0
  9
$REGENMODE
 70
     1
  9
$FILLMODE
 70
     1
  9
$QTEXTMODE
 70
     0
  9
$MIRRTEXT
 70
     1
  9
$LTSCALE
 40
1.0
  9
$ATTMODE
 70
     1
  9
$TEXTSIZE
 40
0.125
  9
$TRACEWID
 40
0.05
  9
$TEXTSTYLE
  7
Standard
  9
$CLAYER
  8
0
  9
$CELTYPE
  6
ByLayer
  9
$CECOLOR
 62
   256
  9
$CELTSCALE
 40
1.0
  9
$DISPSILH
 70
     0
  9
$DIMSCALE
 40
1.0
  9
$DIMASZ
 40
0.13
  9
$DIMEXO
 40
0.0
  9
$DIMDLI
 40
0.38
  9
$DIMRND
 40
0.0
  9
$DIMDLE
 40
0.0
  9
$DIMEXE
 40
0.125
  9
$DIMTP
 40
0.0
  9
$DIMTM
 40
0.0
  9
$DIMTXT
 40
0.125
  9
$DIMCEN
 40
0.09
  9
$DIMTSZ
 40
0.0
  9
$DIMTOL
 70
     0
  9
$DIMLIM
 70
     0
  9
$DIMTIH
 70
     1
  9
$DIMTOH
 70
     1
  9
$DIMSE1
 70
     0
  9
$DIMSE2
 70
     0
  9
$DIMTAD
 70
     0
  9
$DIMZIN
 70
     1
  9
$DIMBLK
  1

  9
$DIMASO
 70
     1
  9
$DIMSHO
 70
     1
  9
$DIMPOST
  1

  9
$DIMAPOST
  1

  9
$DIMALT
 70
     0
  9
$DIMALTD
 70
     2
  9
$DIMALTF
 40
25.4
  9
$DIMLFAC
 40
1.0
  9
$DIMTOFL
 70
     0
  9
$DIMTVP
 40
0.0
  9
$DIMTIX
 70
     0
  9
$DIMSOXD
 70
     0
  9
$DIMSAH
 70
     0
  9
$DIMBLK1
  1

  9
$DIMBLK2
  1

  9
$DIMSTYLE
  2
Standard
  9
$DIMCLRD
 70
     0
  9
$DIMCLRE
 70
     0
  9
$DIMCLRT
 70
     0
  9
$DIMTFAC
 40
1.0
  9
$DIMGAP
 40
0.06
  9
$DIMJUST
 70
     0
  9
$DIMSD1
 70
     0
  9
$DIMSD2
 70
     0
  9
$DIMTOLJ
 70
     1
  9
$DIMTZIN
 70
     1
  9
$DIMALTZ
 70
     0
  9
$DIMALTTZ
 70
     0
  9
$DIMUPT
 70
     0
  9
$DIMDEC
 70
     3
  9
$DIMTDEC
 70
     3
  9
$DIMALTU
 70
     2
  9
$DIMALTTD
 70
     2
  9
$DIMTXSTY
  7
Standard
  9
$DIMAUNIT
 70
     0
  9
$DIMADEC
 70
     2
  9
$DIMALTRND
 40
0.0
  9
$DIMAZIN
 70
     0
  9
$DIMDSEP
 70
    46
  9
$DIMATFIT
 70
     3
  9
$DIMFRAC
 70
     0
  9
$DIMLDRBLK
  1

  9
$DIMLUNIT
 70
     2
  9
$DIMLWD
 70
    -2
  9
$DIMLWE
 70
    -2
  9
$DIMTMOVE
 70
     0
  9
$LUNITS
 70
     2
  9
$LUPREC
 70
     4
  9
$SKETCHINC
 40
0.1
  9
$FILLETRAD
 40
0.0
  9
$AUNITS
 70
     0
  9
$AUPREC
 70
     6
  9
$MENU
  1
.
  9
$ELEVATION
 40
0.0
  9
$PELEVATION
 40
0.0
  9
$THICKNESS
 40
0.0
  9
$LIMCHECK
 70
     0
  9
$CHAMFERA
 40
0.0
  9
$CHAMFERB
 40
0.0
  9
$CHAMFERC
 40
0.0
  9
$CHAMFERD
 40
0.0
  9
$SKPOLY
 70
     0
  9
$TDCREATE
 40
2460632.623092084
  9
$TDUCREATE
 40
2460632.956425417
  9
$TDUPDATE
 40
2460632.623131146
  9
$TDUUPDATE
 40
2460632.956464479
  9
$TDINDWG
 40
0.0000000116
  9
$TDUSRTIMER
 40
0.0000000116
  9
$USRTIMER
 70
     1
  9
$ANGBASE
 50
0.0
  9
$ANGDIR
 70
     0
  9
$PDMODE
 70
     0
  9
$PDSIZE
 40
-1.0
  9
$PLINEWID
 40
0.0
  9
$SPLFRAME
 70
     0
  9
$SPLINETYPE
 70
     6
  9
$SPLINESEGS
 70
     8
  9
$HANDSEED
  5
37F
  9
$SURFTAB1
 70
     6
  9
$SURFTAB2
 70
     6
  9
$SURFTYPE
 70
     6
  9
$SURFU
 70
     6
  9
$SURFV
 70
     6
  9
$UCSBASE
  2

  9
$UCSNAME
  2

  9
$UCSORG
 10
0.0
 20
0.0
 30
0.0
  9
$UCSXDIR
 10
1.0
 20
0.0
 30
0.0
  9
$UCSYDIR
 10
0.0
 20
1.0
 30
0.0
  9
$UCSORTHOREF
  2

  9
$UCSORTHOVIEW
 70
     0
  9
$UCSORGTOP
 10
0.0
 20
0.0
 30
0.0
  9
$UCSORGBOTTOM
 10
0.0
 20
0.0
 30
0.0
  9
$UCSORGLEFT
 10
0.0
 20
0.0
 30
0.0
  9
$UCSORGRIGHT
 10
0.0
 20
0.0
 30
0.0
  9
$UCSORGFRONT
 10
0.0
 20
0.0
 30
0.0
  9
$UCSORGBACK
 10
0.0
 20
0.0
 30
0.0
  9
$PUCSBASE
  2

  9
$PUCSNAME
  2

  9
$PUCSORG
 10
0.0
 20
0.0
 30
0.0
  9
$PUCSXDIR
 10
1.0
 20
0.0
 30
0.0
  9
$PUCSYDIR
 10
0.0
 20
1.0
 30
0.0
  9
$PUCSORTHOREF
  2

  9
$PUCSORTHOVIEW
 70
     0
  9
$PUCSORGTOP
 10
0.0
 20
0.0
 30
0.0
  9
$PUCSORGBOTTOM
 10
0.0
 20
0.0
 30
0.0
  9
$PUCSORGLEFT
 10
0.0
 20
0.0
 30
0.0
  9
$PUCSORGRIGHT
 10
0.0
 20
0.0
 30
0.0
  9
$PUCSORGFRONT
 10
0.0
 20
0.0
 30
0.0
  9
$PUCSORGBACK
 10
0.0
 20
0.0
 30
0.0
  9
$USERI1
 70
     0
  9
$USERI2
 70
     0
  9
$USERI3
 70
     0
  9
$USERI4
 70
     0
  9
$USERI5
 70
     0
  9
$USERR1
 40
0.0
  9
$USERR2
 40
0.0
  9
$USERR3
 40
0.0
  9
$USERR4
 40
0.0
  9
$USERR5
 40
0.0
  9
$WORLDVIEW
 70
     1
  9
$SHADEDGE
 70
     3
  9
$SHADEDIF
 70
    70
  9
$TILEMODE
 70
     1
  9
$MAXACTVP
 70
    64
  9
$PINSBASE
 10
0.0
 20
0.0
 30
0.0
  9
$PLIMCHECK
 70
     0
  9
$PEXTMIN
 10
1.0000000000E+20
 20
1.0000000000E+20
 30
1.0000000000E+20
  9
$PEXTMAX
 10
-1.0000000000E+20
 20
-1.0000000000E+20
 30
-1.0000000000E+20
  9
$PLIMMIN
 10
0.0
 20
0.0
  9
$PLIMMAX
 10
12.0
 20
9.0
  9
$UNITMODE
 70
     0
  9
$VISRETAIN
 70
     1
  9
$PLINEGEN
 70
     0
  9
$PSLTSCALE
 70
     1
  9
$TREEDEPTH
 70
  3020
  9
$CMLSTYLE
  2
Standard
  9
$CMLJUST
 70
     0
  9
$CMLSCALE
 40
1.0
  9
$PROXYGRAPHICS
 70
     1
  9
$MEASUREMENT
 70
     0
  9
$CELWEIGHT
370
    -1
  9
$ENDCAPS
280
     0
  9
$JOINSTYLE
280
     0
  9
$LWDISPLAY
290
     1
  9
$INSUNITS
 70
     1
  9
$HYPERLINKBASE
  1

  9
$STYLESHEET
  1

  9
$XEDIT
290
     1
  9
$CEPSNTYPE
380
     0
  9
$PSTYLEMODE
290
     1
  9
$FINGERPRINTGUID
  2
{15c244f6-2ca7-43f7-8ab3-f4638fdebd9b}
  9
$VERSIONGUID
  2
{FAEB1C32-E019-11D5-929B-00C0DF256EC4}
  9
$EXTNAMES
290
     1
  9
$PSVPSCALE
 40
0.0
  9
$OLESTARTUP
290
     0
  0
ENDSEC
  0
SECTION
  2
CLASSES
  0
CLASS
  1
ACDBDICTIONARYWDFLT
  2
AcDbDictionaryWithDefault
  3
ObjectDBX Classes
 90
        0
280
     0
281
     0
  0
CLASS
  1
VISUALSTYLE
  2
AcDbVisualStyle
  3
ObjectDBX Classes
 90
     4095
280
     0
281
     0
  0
CLASS
  1
MATERIAL
  2
AcDbMaterial
  3
ObjectDBX Classes
 90
     1153
280
     0
281
     0
  0
CLASS
  1
SCALE
  2
AcDbScale
  3
ObjectDBX Classes
 90
     1153
280
     0
281
     0
  0
CLASS
  1
TABLESTYLE
  2
AcDbTableStyle
  3
ObjectDBX Classes
 90
     4095
280
     0
281
     0
  0
CLASS
  1
MLEADERSTYLE
  2
AcDbMLeaderStyle
  3
ACDB_MLEADERSTYLE_CLASS
 90
     4095
280
     0
281
     0
  0
CLASS
  1
SUN
  2
AcDbSun
  3
SCENEOE
 90
     1153
280
     0
281
     0
  0
CLASS
  1
ACDBPLACEHOLDER
  2
AcDbPlaceHolder
  3
ObjectDBX Classes
 90
        0
280
     0
281
     0
  0
CLASS
  1
LAYOUT
  2
AcDbLayout
  3
ObjectDBX Classes
 90
        0
280
     0
281
     0
  0
ENDSEC
  0
SECTION
  2
TABLES
  0
TABLE
  2
VPORT
  5
8
330
0
100
AcDbSymbolTable
 70
     1
  0
VPORT
  5
29
330
8
100
AcDbSymbolTableRecord
100
AcDbViewportTableRecord
  2
*Active
 70
     0
 10
0.0
 20
0.0
 11
1.0
 21
1.0
 12
0.0
 22
0.0
 13
0.0
 23
0.0
 14
0.5
 24
0.5
 15
0.5
 25
0.5
 16
0.0
 26
0.0
 36
1.0
 17
0.0
 27
0.0
 37
0.0
 40
12.1114641408
 41
1.0
 42
50.0
 43
0.0
 44
0.0
 50
0.0
 51
0.0
 71
     0
 72
   100
 73
     1
 74
     3
 75
     0
 76
     0
 77
     0
 78
     0
281
     0
 65
     1
110
0.0
120
0.0
130
0.0
111
1.0
121
0.0
131
0.0
112
0.0
122
1.0
132
0.0
 79
     0
146
0.0
  0
ENDTAB
  0
TABLE
  2
LTYPE
  5
5
330
0
100
AcDbSymbolTable
 70
     6
  0
LTYPE
  5
14
330
5
100
AcDbSymbolTableRecord
100
AcDbLinetypeTableRecord
  2
ByBlock
 70
     0
  3

 72
    65
 73
     0
 40
0.0
  0
LTYPE
  5
15
330
5
100
AcDbSymbolTableRecord
100
AcDbLinetypeTableRecord
  2
ByLayer
 70
     0
  3

 72
    65
 73
     0
 40
0.0
  0
LTYPE
  5
16
330
5
100
AcDbSymbolTableRecord
100
AcDbLinetypeTableRecord
  2
Continuous
 70
     0
  3
Solid line
 72
    65
 73
     0
 40
0.0
  0
LTYPE
  5
5E
330
5
100
AcDbSymbolTableRecord
100
AcDbLinetypeTableRecord
  2
HIDDEN
 70
     0
  3
Hidden __ __ __ __ __ __ __ __ __ __ __ __ __ __
 72
    65
 73
     2
 40
0.075
 49
0.05
 74
     0
 49
-0.025
 74
     0
  0
LTYPE
  5
5F
330
5
100
AcDbSymbolTableRecord
100
AcDbLinetypeTableRecord
  2
PHANTOM
 70
     0
  3
Phantom ______  __  __  ______  __  __  ______
 72
    65
 73
     6
 40
0.5
 49
0.25
 74
     0
 49
-0.05
 74
     0
 49
0.05
 74
     0
 49
-0.05
 74
     0
 49
0.05
 74
     0
 49
-0.05
 74
     0
  0
LTYPE
  5
60
330
5
100
AcDbSymbolTableRecord
100
AcDbLinetypeTableRecord
  2
CENTER
 70
     0
  3
Center ____ _ ____ _ ____ _ ____ _ ____ _ ____
 72
    65
 73
     4
 40
0.4
 49
0.25
 74
     0
 49
-0.05
 74
     0
 49
0.05
 74
     0
 49
-0.05
 74
     0
  0
LTYPE
  5
61
330
5
100
AcDbSymbolTableRecord
100
AcDbLinetypeTableRecord
  2
CENTERX2
 70
     0
  3
Center (2x) ________  __  ________  __  _____
 72
    65
 73
     4
 40
0.8
 49
0.5
 74
     0
 49
-0.1
 74
     0
 49
0.1
 74
     0
 49
-0.1
 74
     0
  0
LTYPE
  5
62
330
5
100
AcDbSymbolTableRecord
100
AcDbLinetypeTableRecord
  2
DOT2
 70
     0
  3
Dot (.5x) ........................................
 72
    65
 73
     2
 40
0.025
 49
0.0
 74
     0
 49
-0.025
 74
     0
  0
ENDTAB
  0
TABLE
  2
LAYER
  5
2
330
0
100
AcDbSymbolTable
 70
     1
  0
LAYER
  5
10
330
2
100
AcDbSymbolTableRecord
100
AcDbLayerTableRecord
  2
0
 70
     0
 62
     7
  6
Continuous
370
    -3
390
F
  0
ENDTAB
  0
TABLE
  2
STYLE
  5
3
330
0
100
AcDbSymbolTable
 70
     2
  0
STYLE
  5
11
330
3
100
AcDbSymbolTableRecord
100
AcDbTextStyleTableRecord
  2
Standard
 70
     0
 40
0.0
 41
1.0
 50
0.0
 71
     0
 42
0.125
  3
txt
  4

  0
STYLE
  5
37B
330
3
100
AcDbSymbolTableRecord
100
AcDbTextStyleTableRecord
  2
SLDTEXTSTYLE0
 70
     0
 40
0.0
 41
0.7
 50
0.0
 71
     0
 42
0.125
  3
TXT
  4

  0
ENDTAB
  0
TABLE
  2
VIEW
  5
6
330
0
100
AcDbSymbolTable
 70
     0
  0
ENDTAB
  0
TABLE
  2
UCS
  5
7
330
0
100
AcDbSymbolTable
 70
     0
  0
ENDTAB
  0
TABLE
  2
APPID
  5
9
330
0
100
AcDbSymbolTable
 70
     1
  0
APPID
  5
12
330
9
100
AcDbSymbolTableRecord
100
AcDbRegAppTableRecord
  2
ACAD
 70
     0
  0
ENDTAB
  0
TABLE
  2
DIMSTYLE
  5
A
330
0
100
AcDbSymbolTable
 70
     1
100
AcDbDimStyleTable
  0
DIMSTYLE
105
27
330
A
100
AcDbSymbolTableRecord
100
AcDbDimStyleTableRecord
  2
Standard
 70
     0
178
     0
340
11
  0
ENDTAB
  0
TABLE
  2
BLOCK_RECORD
  5
1
330
0
100
AcDbSymbolTable
 70
     1
  0
BLOCK_RECORD
  5
1F
330
1
100
AcDbSymbolTableRecord
100
AcDbBlockTableRecord
  2
*Model_Space
340
22
  0
BLOCK_RECORD
  5
1B
330
1
100
AcDbSymbolTableRecord
100
AcDbBlockTableRecord
  2
*Paper_Space
340
1E
  0
BLOCK_RECORD
  5
23
330
1
100
AcDbSymbolTableRecord
100
AcDbBlockTableRecord
  2
*Paper_Space0
340
26
  0
ENDTAB
  0
ENDSEC
  0
SECTION
  2
BLOCKS
  0
BLOCK
  5
20
330
1F
100
AcDbEntity
  8
0
100
AcDbBlockBegin
  2
*Model_Space
 70
     0
 10
0.0
 20
0.0
 30
0.0
  3
*Model_Space
  1

  0
ENDBLK
  5
21
330
1F
100
AcDbEntity
  8
0
100
AcDbBlockEnd
  0
BLOCK
  5
1C
330
1B
100
AcDbEntity
 67
     1
  8
0
100
AcDbBlockBegin
  2
*Paper_Space
 70
     0
 10
0.0
 20
0.0
 30
0.0
  3
*Paper_Space
  1

  0
ENDBLK
  5
1D
330
1B
100
AcDbEntity
 67
     1
  8
0
100
AcDbBlockEnd
  0
BLOCK
  5
24
330
23
100
AcDbEntity
  8
0
100
AcDbBlockBegin
  2
*Paper_Space0
 70
     0
 10
0.0
 20
0.0
 30
0.0
  3
*Paper_Space0
  1

  0
ENDBLK
  5
25
330
23
100
AcDbEntity
  8
0
100
AcDbBlockEnd
  0
ENDSEC
  0
SECTION
  2
ENTITIES
  0
ARC
  5
63
330
1F
100
AcDbEntity
  8
0
  6
Continuous
 62
     7
370
    25
100
AcDbCircle
 10
-5.0412736779
 20
-2.2502496705
 30
0.0
 40
2.349999999999999
100
AcDbArc
 50
108.7529521836
 51
112.4053577258
  0
ARC
  5
64
330
1F
100
AcDbEntity
  8
0
  6
Continuous
 62
     7
370
    25
100
AcDbCircle
 10
0.0
 20
0.0
 30
0.0
 40
5.9375
100
AcDbArc
 50
180.7493318567
 51
181.1655617604
  0
ARC
  5
65
330
1F
100
AcDbEntity
  8
0
  6
Continuous
 62
     7
370
    25
100
AcDbCircle
 10
-5.1136504888
 20
2.0805390055
 30
0.0
 40
2.349999999999999
100
AcDbArc
 50
249.5095358912
 51
253.1619414334
  0
ARC
  5
66
330
1F
100
AcDbEntity
  8
0
  6
Continuous
 62
     7
370
    25
100
AcDbCircle
 10
0.0
 20
0.0
 30
0.0
 40
5.796824999999998
100
AcDbArc
 50
181.6677654365
 51
182.1620217975
  0
ARC
  5
67
330
1F
100
AcDbEntity
  8
0
  6
Continuous
 62
     7
370
    25
100
AcDbCircle
 10
-4.9632664068
 20
-2.4174470935
 30
0.0
 40
2.349999999999999
100
AcDbArc
 50
110.6678458006
 51
114.3202513428
  0
ARC
  5
68
330
1F
100
AcDbEntity
  8
0
  6
Continuous
 62
     7
370
    25
100
AcDbCircle
 10
0.0
 20
0.0
 30
0.0
 40
5.937499999999999
100
AcDbArc
 50
182.6642254737
 51
183.0804553774
  0
ARC
  5
69
330
1F
100
AcDbEntity
  8
0
  6
Continuous
 62
     7
370
    25
100
AcDbCircle
 10
-5.1803160039
 20
1.9085046435
 30
0.0
 40
2.35
100
AcDbArc
 50
251.4244295082
 51
255.0768350504
  0
ARC
  5
6A
330
1F
100
AcDbEntity
  8
0
  6
Continuous
 62
     7
370
    25
100
AcDbCircle
 10
0.0
 20
0.0
 30
0.0
 40
5.796824999999999
100
AcDbArc
 50
183.5826590536
 51
184.0769154145
  0
ARC
  5
6B
330
1F
100
AcDbEntity
  8
0
  6
Continuous
 62
     7
370
    25
100
AcDbCircle
 10
-4.8797157998
 20
-2.5819445363
 30
0.0
 40
2.349999999999999
100
AcDbArc
 50
112.5827394177
 51
116.2351449599
  0
ARC
  5
6C
330
1F
100
AcDbEntity
  8
0
  6
Continuous
 62
     7
370
    25
100
AcDbCircle
 10
0.0
 20
0.0
 30
0.0
 40
5.937499999999999
100
AcDbArc
 50
184.5791190907
 51
184.9953489944
  0
ARC
  5
6D
330
1F
100
AcDbEntity
  8
0
  6
Continuous
 62
     7
370
    25
100
AcDbCircle
 10
-5.2411957664
 20
1.7343387251
 30
0.0
 40
2.35
100
AcDbArc
 50
253.3393231252
 51
256.9917286675
  0
ARC
  5
6E
330
1F
100
AcDbEntity
  8
0
  6
Continuous
 62
     7
370
    25
100
AcDbCircle
 10
0.0
 20
0.0
 30
0.0
 40
5.796824999999998
100
AcDbArc
 50
185.4975526706
 51
185.9918090315
  0
ARC
  5
6F
330
1F
100
AcDbEntity
  8
0
  6
Continuous
 62
     7
370
    25
100
AcDbCircle
 10
-4.7907151722
 20
-2.7435582761
 30
0.0
 40
2.349999999999999
100
AcDbArc
 50
114.4976330347
 51
118.1500385769
  0
ARC
  5
70
330
1F
100
AcDbEntity
  8
0
  6
Continuous
 62
     7
370
    25
100
AcDbCircle
 10
0.0
 20
0.0
 30
0.0
 40
5.937500000000001
100
AcDbArc
 50
186.4940127077
 51
186.9102426114
  0
ARC
  5
71
330
1F
100
AcDbEntity
  8
0
  6
Continuous
 62
     7
370
    25
100
AcDbCircle
 10
-5.2962217812
 20
1.5582357715
 30
0.0
 40
2.35
100
AcDbArc
 50
255.2542167423
 51
258.9066222845
  0
ARC
  5
72
330
1F
100
AcDbEntity
  8
0
  6
Continuous
 62
     7
370
    25
100
AcDbCircle
 10
0.0
 20
0.0
 30
0.0
 40
5.796824999999998
100
AcDbArc
 50
187.4124462876
 51
187.9067026486
  0
ARC
  5
73
330
1F
100
AcDbEntity
  8
0
  6
Continuous
 62
     7
370
    25
100
AcDbCircle
 10
-4.6963639263
 20
-2.9021078109
 30
0.0
 40
2.349999999999999
100
AcDbArc
 50
116.4125266517
 51
120.0649321939
  0
ARC
  5
74
330
1F
100
AcDbEntity
  8
0
  6
Continuous
 62
     7
370
    25
100
AcDbCircle
 10
0.0
 20
0.0
 30
0.0
 40
5.937499999999999
100
AcDbArc
 50
188.4089063247
 51
188.8251362285
  0
ARC
  5
75
330
1F
100
AcDbEntity
  8
0
  6
Continuous
 62
     7
370
    25
100
AcDbCircle
 10
-5.3453325913
 20
1.3803924671
 30
0.0
 40
2.35
100
AcDbArc
 50
257.1691103593
 51
260.8215159015
  0
ARC
  5
76
330
1F
100
AcDbEntity
  8
0
  6
Continuous
 62
     7
370
    25
100
AcDbCircle
 10
0.0
 20
0.0
 30
0.0
 40
5.796824999999999
100
AcDbArc
 50
189.3273399046
 51
189.8215962656
  0
ARC
  5
77
330
1F
100
AcDbEntity
  8
0
  6
Continuous
 62
     7
370
    25
100
AcDbCircle
 10
-4.5967674406
 20
-3.0574160613
 30
0.0
 40
2.35
100
AcDbArc
 50
118.3274202687
 51
121.9798258109
  0
ARC
  5
78
330
1F
100
AcDbEntity
  8
0
  6
Continuous
 62
     7
370
    25
100
AcDbCircle
 10
0.0
 20
0.0
 30
0.0
 40
5.9375
100
AcDbArc
 50
190.3237999418
 51
190.7400298455
  0
ARC
  5
79
330
1F
100
AcDbEntity
  8
0
  6
Continuous
 62
     7
370
    25
100
AcDbCircle
 10
-5.3884733463
 20
1.2010074402
 30
0.0
 40
2.35
100
AcDbArc
 50
259.0840039763
 51
262.7364095185
  0
ARC
  5
7A
330
1F
100
AcDbEntity
  8
0
  6
Continuous
 62
     7
370
    25
100
AcDbCircle
 10
0.0
 20
0.0
 30
0.0
 40
5.796824999999999
100
AcDbArc
 50
191.2422335217
 51
191.7364898826
  0
ARC
  5
7B
330
1F
100
AcDbEntity
  8
0
  6
Continuous
 62
     7
370
    25
100
AcDbCircle
 10
-4.4920369516
 20
-3.2093095676
 30
0.0
 40
2.35
100
AcDbArc
 50
120.2423138857
 51
123.894719428
  0
ARC
  5
7C
330
1F
100
AcDbEntity
  8
0
  6
Continuous
 62
     7
370
    25
100
AcDbCircle
 10
0.0
 20
0.0
 30
0.0
 40
5.9375
100
AcDbArc
 50
192.2386935588
 51
192.6549234625
  0
ARC
  5
7D
330
1F
100
AcDbEntity
  8
0
  6
Continuous
 62
     7
370
    25
100
AcDbCircle
 10
-5.4255958633
 20
1.0202810411
 30
0.0
 40
2.35
100
AcDbArc
 50
260.9988975933
 51
264.6513031355
  0
ARC
  5
7E
330
1F
100
AcDbEntity
  8
0
  6
Continuous
 62
     7
370
    25
100
AcDbCircle
 10
0.0
 20
0.0
 30
0.0
 40
5.796824999999999
100
AcDbArc
 50
193.1571271387
 51
193.6513834996
  0
ARC
  5
7F
330
1F
100
AcDbEntity
  8
0
  6
Continuous
 62
     7
370
    25
100
AcDbCircle
 10
-4.3822894298
 20
-3.3576186842
 30
0.0
 40
2.35
100
AcDbArc
 50
122.1572075028
 51
125.809613045
  0
ARC
  5
80
330
1F
100
AcDbEntity
  8
0
  6
Continuous
 62
     7
370
    25
100
AcDbCircle
 10
0.0
 20
0.0
 30
0.0
 40
5.9375
100
AcDbArc
 50
194.1535871758
 51
194.5698170795
  0
ARC
  5
81
330
1F
100
AcDbEntity
  8
0
  6
Continuous
 62
     7
370
    25
100
AcDbCircle
 10
-5.4566586813
 20
0.8384151181
 30
0.0
 40
2.35
100
AcDbArc
 50
262.9137912103
 51
266.5661967526
  0
ARC
  5
82
330
1F
100
AcDbEntity
  8
0
  6
Continuous
 62
     7
370
    25
100
AcDbCircle
 10
0.0
 20
0.0
 30
0.0
 40
5.796824999999998
100
AcDbArc
 50
195.0720207557
 51
195.5662771166
  0
ARC
  5
83
330
1F
100
AcDbEntity
  8
0
  6
Continuous
 62
     7
370
    25
100
AcDbCircle
 10
-4.2676474493
 20
-3.5021777687
 30
0.0
 40
2.349999999999999
100
AcDbArc
 50
124.0721011198
 51
127.724506662
  0
ARC
  5
84
330
1F
100
AcDbEntity
  8
0
  6
Continuous
 62
     7
370
    25
100
AcDbCircle
 10
0.0
 20
0.0
 30
0.0
 40
5.9375
100
AcDbArc
 50
196.0684807928
 51
196.4847106965
  0
ARC
  5
85
330
1F
100
AcDbEntity
  8
0
  6
Continuous
 62
     7
370
    25
100
AcDbCircle
 10
-5.4816271071
 20
0.6556127924
 30
0.0
 40
2.35
100
AcDbArc
 50
264.8286848274
 51
268.4810903696
  0
ARC
  5
86
330
1F
100
AcDbEntity
  8
0
  6
Continuous
 62
     7
370
    25
100
AcDbCircle
 10
0.0
 20
0.0
 30
0.0
 40
5.796824999999999
100
AcDbArc
 50
196.9869143727
 51
197.4811707337
  0
ARC
  5
87
330
1F
100
AcDbEntity
  8
0
  6
Continuous
 62
     7
370
    25
100
AcDbCircle
 10
-4.1482390506
 20
-3.642825367
 30
0.0
 40
2.349999999999999
100
AcDbArc
 50
125.9869947368
 51
129.639400279
  0
ARC
  5
88
330
1F
100
AcDbEntity
  8
0
  6
Continuous
 62
     7
370
    25
100
AcDbCircle
 10
0.0
 20
0.0
 30
0.0
 40
5.937500000000001
100
AcDbArc
 50
197.9833744098
 51
198.3996043136
  0
ARC
  5
89
330
1F
100
AcDbEntity
  8
0
  6
Continuous
 62
     7
370
    25
100
AcDbCircle
 10
-5.5004732541
 20
0.4720782307
 30
0.0
 40
2.35
100
AcDbArc
 50
266.7435784444
 51
270.3959839866
  0
ARC
  5
8A
330
1F
100
AcDbEntity
  8
0
  6
Continuous
 62
     7
370
    25
100
AcDbCircle
 10
0.0
 20
0.0
 30
0.0
 40
5.796824999999999
100
AcDbArc
 50
198.9018079897
 51
199.3960643507
  0
ARC
  5
8B
330
1F
100
AcDbEntity
  8
0
  6
Continuous
 62
     7
370
    25
100
AcDbCircle
 10
-4.0241975975
 20
-3.7794043937
 30
0.0
 40
2.35
100
AcDbArc
 50
127.9018883538
 51
131.554293896
  0
ARC
  5
8C
330
1F
100
AcDbEntity
  8
0
  6
Continuous
 62
     7
370
    25
100
AcDbCircle
 10
0.0
 20
0.0
 30
0.0
 40
5.9375
100
AcDbArc
 50
199.8982680269
 51
200.3144979306
  0
ARC
  5
8D
330
1F
100
AcDbEntity
  8
0
  6
Continuous
 62
     7
370
    25
100
AcDbCircle
 10
-5.5131760736
 20
0.2880164177
 30
0.0
 40
2.35
100
AcDbArc
 50
268.6584720614
 51
272.3108776036
  0
ARC
  5
8E
330
1F
100
AcDbEntity
  8
0
  6
Continuous
 62
     7
370
    25
100
AcDbCircle
 10
0.0
 20
0.0
 30
0.0
 40
5.796824999999999
100
AcDbArc
 50
200.8167016068
 51
201.3109579677
  0
ARC
  5
8F
330
1F
100
AcDbEntity
  8
0
  6
Continuous
 62
     7
370
    25
100
AcDbCircle
 10
-3.8956616287
 20
-3.9117623074
 30
0.0
 40
2.35
100
AcDbArc
 50
129.8167819708
 51
133.4691875131
  0
ARC
  5
90
330
1F
100
AcDbEntity
  8
0
  6
Continuous
 62
     7
370
    25
100
AcDbCircle
 10
0.0
 20
0.0
 30
0.0
 40
5.9375
100
AcDbArc
 50
201.8131616439
 51
202.2293915476
  0
ARC
  5
91
330
1F
100
AcDbEntity
  8
0
  6
Continuous
 62
     7
370
    25
100
AcDbCircle
 10
-5.519721378
 20
0.1036329272
 30
0.0
 40
2.35
100
AcDbArc
 50
270.5733656784
 51
274.2257712206
  0
ARC
  5
92
330
1F
100
AcDbEntity
  8
0
  6
Continuous
 62
     7
370
    25
100
AcDbCircle
 10
0.0
 20
0.0
 30
0.0
 40
5.796824999999999
100
AcDbArc
 50
202.7315952238
 51
203.2258515847
  0
ARC
  5
93
330
1F
100
AcDbEntity
  8
0
  6
Continuous
 62
     7
370
    25
100
AcDbCircle
 10
-3.7627747024
 20
-4.0397512812
 30
0.0
 40
2.35
100
AcDbArc
 50
131.7316755879
 51
135.3840811301
  0
ARC
  5
94
330
1F
100
AcDbEntity
  8
0
  6
Continuous
 62
     7
370
    25
100
AcDbCircle
 10
0.0
 20
0.0
 30
0.0
 40
5.937500000000001
100
AcDbArc
 50
203.7280552609
 51
204.1442851646
  0
ARC
  5
95
330
1F
100
AcDbEntity
  8
0
  6
Continuous
 62
     7
370
    25
100
AcDbCircle
 10
-5.5201018573
 20
-0.0808663081
 30
0.0
 40
2.35
100
AcDbArc
 50
272.4882592955
 51
276.1406648377
  0
ARC
  5
96
330
1F
100
AcDbEntity
  8
0
  6
Continuous
 62
     7
370
    25
100
AcDbCircle
 10
0.0
 20
0.0
 30
0.0
 40
5.796824999999998
100
AcDbArc
 50
204.6464888408
 51
205.1407452017
  0
ARC
  5
97
330
1F
100
AcDbEntity
  8
0
  6
Continuous
 62
     7
370
    25
100
AcDbCircle
 10
-3.6256852364
 20
-4.1632283677
 30
0.0
 40
2.349999999999999
100
AcDbArc
 50
133.6465692049
 51
137.2989747471
  0
ARC
  5
98
330
1F
100
AcDbEntity
  8
0
  6
Continuous
 62
     7
370
    25
100
AcDbCircle
 10
0.0
 20
0.0
 30
0.0
 40
5.937499999999999
100
AcDbArc
 50
205.6429488779
 51
206.0591787816
  0
ARC
  5
99
330
1F
100
AcDbEntity
  8
0
  6
Continuous
 62
     7
370
    25
100
AcDbCircle
 10
-5.5143170864
 20
-0.2652752261
 30
0.0
 40
2.35
100
AcDbArc
 50
274.4031529125
 51
278.0555584547
  0
ARC
  5
9A
330
1F
100
AcDbEntity
  8
0
  6
Continuous
 62
     7
370
    25
100
AcDbCircle
 10
0.0
 20
0.0
 30
0.0
 40
5.796824999999999
100
AcDbArc
 50
206.5613824578
 51
207.0556388188
  0
ARC
  5
9B
330
1F
100
AcDbEntity
  8
0
  6
Continuous
 62
     7
370
    25
100
AcDbCircle
 10
-3.484546342
 20
-4.2820556588
 30
0.0
 40
2.35
100
AcDbArc
 50
135.5614628219
 51
139.2138683641
  0
ARC
  5
9C
330
1F
100
AcDbEntity
  8
0
  6
Continuous
 62
     7
370
    25
100
AcDbCircle
 10
0.0
 20
0.0
 30
0.0
 40
5.937500000000001
100
AcDbArc
 50
207.557842495
 51
207.9740723987
  0
ARC
  5
9D
330
1F
100
AcDbEntity
  8
0
  6
Continuous
 62
     7
370
    25
100
AcDbCircle
 10
-5.5023735261
 20
-0.4493878655
 30
0.0
 40
2.35
100
AcDbArc
 50
276.3180465295
 51
279.9704520717
  0
ARC
  5
9E
330
1F
100
AcDbEntity
  8
0
  6
Continuous
 62
     7
370
    25
100
AcDbCircle
 10
0.0
 20
0.0
 30
0.0
 40
5.796824999999999
100
AcDbArc
 50
208.4762760748
 51
208.9705324358
  0
ARC
  5
9F
330
1F
100
AcDbEntity
  8
0
  6
Continuous
 62
     7
370
    25
100
AcDbCircle
 10
-3.3395156536
 20
-4.3961004395
 30
0.0
 40
2.35
100
AcDbArc
 50
137.4763564389
 51
141.1287619811
  0
ARC
  5
A0
330
1F
100
AcDbEntity
  8
0
  6
Continuous
 62
     7
370
    25
100
AcDbCircle
 10
0.0
 20
0.0
 30
0.0
 40
5.9375
100
AcDbArc
 50
209.472736112
 51
209.8889660157
  0
ARC
  5
A1
330
1F
100
AcDbEntity
  8
0
  6
Continuous
 62
     7
370
    25
100
AcDbCircle
 10
-5.484284516
 20
-0.6329985958
 30
0.0
 40
2.35
100
AcDbArc
 50
278.2329401465
 51
281.8853456887
  0
ARC
  5
A2
330
1F
100
AcDbEntity
  8
0
  6
Continuous
 62
     7
370
    25
100
AcDbCircle
 10
0.0
 20
0.0
 30
0.0
 40
5.796824999999999
100
AcDbArc
 50
210.3911696919
 51
210.8854260528
  0
ARC
  5
A3
330
1F
100
AcDbEntity
  8
0
  6
Continuous
 62
     7
370
    25
100
AcDbCircle
 10
-3.1907551518
 20
-4.5052353364
 30
0.0
 40
2.349999999999999
100
AcDbArc
 50
139.391250056
 51
143.0436555982
  0
ARC
  5
A4
330
1F
100
AcDbEntity
  8
0
  6
Continuous
 62
     7
370
    25
100
AcDbCircle
 10
0.0
 20
0.0
 30
0.0
 40
5.937499999999999
100
AcDbArc
 50
211.387629729
 51
211.8038596327
  0
ARC
  5
A5
330
1F
100
AcDbEntity
  8
0
  6
Continuous
 62
     7
370
    25
100
AcDbCircle
 10
-5.4600702591
 20
-0.8159023475
 30
0.0
 40
2.35
100
AcDbArc
 50
280.1478337635
 51
283.8002393058
  0
ARC
  5
A6
330
1F
100
AcDbEntity
  8
0
  6
Continuous
 62
     7
370
    25
100
AcDbCircle
 10
0.0
 20
0.0
 30
0.0
 40
5.796824999999999
100
AcDbArc
 50
212.3060633089
 51
212.8003196698
  0
ARC
  5
A7
330
1F
100
AcDbEntity
  8
0
  6
Continuous
 62
     7
370
    25
100
AcDbCircle
 10
-3.0384309832
 20
-4.6093384596
 30
0.0
 40
2.349999999999999
100
AcDbArc
 50
141.306143673
 51
144.9585492152
  0
ARC
  5
A8
330
1F
100
AcDbEntity
  8
0
  6
Continuous
 62
     7
370
    25
100
AcDbCircle
 10
0.0
 20
0.0
 30
0.0
 40
5.937499999999999
100
AcDbArc
 50
213.302523346
 51
213.7187532497
  0
ARC
  5
A9
330
1F
100
AcDbEntity
  8
0
  6
Continuous
 62
     7
370
    25
100
AcDbCircle
 10
-5.4297577996
 20
-0.9978948402
 30
0.0
 40
2.35
100
AcDbArc
 50
282.0627273806
 51
285.7151329228
  0
ARC
  5
AA
330
1F
100
AcDbEntity
  8
0
  6
Continuous
 62
     7
370
    25
100
AcDbCircle
 10
0.0
 20
0.0
 30
0.0
 40
5.796824999999999
100
AcDbArc
 50
214.2209569259
 51
214.7152132869
  0
ARC
  5
AB
330
1F
100
AcDbEntity
  8
0
  6
Continuous
 62
     7
370
    25
100
AcDbCircle
 10
-2.8827132745
 20
-4.7082935392
 30
0.0
 40
2.35
100
AcDbArc
 50
143.22103729
 51
146.8734428322
  0
ARC
  5
AC
330
1F
100
AcDbEntity
  8
0
  6
Continuous
 62
     7
370
    25
100
AcDbCircle
 10
0.0
 20
0.0
 30
0.0
 40
5.9375
100
AcDbArc
 50
215.217416963
 51
215.6336468668
  0
ARC
  5
AD
330
1F
100
AcDbEntity
  8
0
  6
Continuous
 62
     7
370
    25
100
AcDbCircle
 10
-5.3933809928
 20
-1.1787728115
 30
0.0
 40
2.35
100
AcDbArc
 50
283.9776209976
 51
287.6300265398
  0
ARC
  5
AE
330
1F
100
AcDbEntity
  8
0
  6
Continuous
 62
     7
370
    25
100
AcDbCircle
 10
0.0
 20
0.0
 30
0.0
 40
5.796824999999998
100
AcDbArc
 50
216.1358505429
 51
216.6301069039
  0
ARC
  5
AF
330
1F
100
AcDbEntity
  8
0
  6
Continuous
 62
     7
370
    25
100
AcDbCircle
 10
-2.7237759425
 20
-4.8019900552
 30
0.0
 40
2.35
100
AcDbArc
 50
145.135930907
 51
148.7883364492
  0
ARC
  5
B0
330
1F
100
AcDbEntity
  8
0
  6
Continuous
 62
     7
370
    25
100
AcDbCircle
 10
0.0
 20
0.0
 30
0.0
 40
5.9375
100
AcDbArc
 50
217.1323105801
 51
217.5485404838
  0
ARC
  5
B1
330
1F
100
AcDbEntity
  8
0
  6
Continuous
 62
     7
370
    25
100
AcDbCircle
 10
-5.3509804669
 20
-1.3583342439
 30
0.0
 40
2.35
100
AcDbArc
 50
285.8925146146
 51
289.5449201568
  0
ARC
  5
B2
330
1F
100
AcDbEntity
  8
0
  6
Continuous
 62
     7
370
    25
100
AcDbCircle
 10
0.0
 20
0.0
 30
0.0
 40
5.796824999999999
100
AcDbArc
 50
218.05074416
 51
218.5450005209
  0
ARC
  5
B3
330
1F
100
AcDbEntity
  8
0
  6
Continuous
 62
     7
370
    25
100
AcDbCircle
 10
-2.5617965
 20
-4.8903233602
 30
0.0
 40
2.35
100
AcDbArc
 50
147.050824524
 51
150.7032300662
  0
ARC
  5
B4
330
1F
100
AcDbEntity
  8
0
  6
Continuous
 62
     7
370
    25
100
AcDbCircle
 10
0.0
 20
0.0
 30
0.0
 40
5.937499999999999
100
AcDbArc
 50
219.0472041971
 51
219.4634341008
  0
ARC
  5
B5
330
1F
100
AcDbEntity
  8
0
  6
Continuous
 62
     7
370
    25
100
AcDbCircle
 10
-5.3026035778
 20
-1.5363785901
 30
0.0
 40
2.350000000000001
100
AcDbArc
 50
287.8074082316
 51
291.4598137738
  0
ARC
  5
B6
330
1F
100
AcDbEntity
  8
0
  6
Continuous
 62
     7
370
    25
100
AcDbCircle
 10
0.0
 20
0.0
 30
0.0
 40
5.796824999999998
100
AcDbArc
 50
219.965637777
 51
220.4598941379
  0
ARC
  5
B7
330
1F
100
AcDbEntity
  8
0
  6
Continuous
 62
     7
370
    25
100
AcDbCircle
 10
-2.3969558572
 20
-4.9731947974
 30
0.0
 40
2.35
100
AcDbArc
 50
148.9657181411
 51
152.6181236833
  0
ARC
  5
B8
330
1F
100
AcDbEntity
  8
0
  6
Continuous
 62
     7
370
    25
100
AcDbCircle
 10
0.0
 20
0.0
 30
0.0
 40
5.9375
100
AcDbArc
 50
220.9620978141
 51
221.3783277178
  0
ARC
  5
B9
330
1F
100
AcDbEntity
  8
0
  6
Continuous
 62
     7
370
    25
100
AcDbCircle
 10
-5.2483043563
 20
-1.7127069972
 30
0.0
 40
2.35
100
AcDbArc
 50
289.7223018486
 51
293.3747073909
  0
ARC
  5
BA
330
1F
100
AcDbEntity
  8
0
  6
Continuous
 62
     7
370
    25
100
AcDbCircle
 10
0.0
 20
0.0
 30
0.0
 40
5.796824999999999
100
AcDbArc
 50
221.880531394
 51
222.3747877549
  0
ARC
  5
BB
330
1F
100
AcDbEntity
  8
0
  6
Continuous
 62
     7
370
    25
100
AcDbCircle
 10
-2.2294381203
 20
-5.05051181
 30
0.0
 40
2.35
100
AcDbArc
 50
150.8806117581
 51
154.5330173003
  0
ARC
  5
BC
330
1F
100
AcDbEntity
  8
0
  6
Continuous
 62
     7
370
    25
100
AcDbCircle
 10
0.0
 20
0.0
 30
0.0
 40
5.9375
100
AcDbArc
 50
222.8769914311
 51
223.2932213348
  0
ARC
  5
BD
330
1F
100
AcDbEntity
  8
0
  6
Continuous
 62
     7
370
    25
100
AcDbCircle
 10
-5.1881434479
 20
-1.8871225289
 30
0.0
 40
2.35
100
AcDbArc
 50
291.6371954657
 51
295.2896010079
  0
ARC
  5
BE
330
1F
100
AcDbEntity
  8
0
  6
Continuous
 62
     7
370
    25
100
AcDbCircle
 10
0.0
 20
0.0
 30
0.0
 40
5.796824999999999
100
AcDbArc
 50
223.795425011
 51
224.289681372
  0
ARC
  5
BF
330
1F
100
AcDbEntity
  8
0
  6
Continuous
 62
     7
370
    25
100
AcDbCircle
 10
-2.0594303852
 20
-5.1221880445
 30
0.0
 40
2.35
100
AcDbArc
 50
152.7955053751
 51
156.4479109173
  0
ARC
  5
C0
330
1F
100
AcDbEntity
  8
0
  6
Continuous
 62
     7
370
    25
100
AcDbCircle
 10
0.0
 20
0.0
 30
0.0
 40
5.9375
100
AcDbArc
 50
224.7918850481
 51
225.2081149519
  0
ARC
  5
C1
330
1F
100
AcDbEntity
  8
0
  6
Continuous
 62
     7
370
    25
100
AcDbCircle
 10
-5.1221880445
 20
-2.0594303852
 30
0.0
 40
2.35
100
AcDbArc
 50
293.5520890827
 51
297.2044946249
  0
ARC
  5
C2
330
1F
100
AcDbEntity
  8
0
  6
Continuous
 62
     7
370
    25
100
AcDbCircle
 10
0.0
 20
0.0
 30
0.0
 40
5.796824999999998
100
AcDbArc
 50
225.710318628
 51
226.204574989
  0
ARC
  5
C3
330
1F
100
AcDbEntity
  8
0
  6
Continuous
 62
     7
370
    25
100
AcDbCircle
 10
-1.8871225289
 20
-5.1881434479
 30
0.0
 40
2.35
100
AcDbArc
 50
154.7103989921
 51
158.3628045343
  0
ARC
  5
C4
330
1F
100
AcDbEntity
  8
0
  6
Continuous
 62
     7
370
    25
100
AcDbCircle
 10
0.0
 20
0.0
 30
0.0
 40
5.9375
100
AcDbArc
 50
226.7067786652
 51
227.1230085689
  0
ARC
  5
C5
330
1F
100
AcDbEntity
  8
0
  6
Continuous
 62
     7
370
    25
100
AcDbCircle
 10
-5.05051181
 20
-2.2294381203
 30
0.0
 40
2.350000000000001
100
AcDbArc
 50
295.4669826997
 51
299.1193882419
  0
ARC
  5
C6
330
1F
100
AcDbEntity
  8
0
  6
Continuous
 62
     7
370
    25
100
AcDbCircle
 10
0.0
 20
0.0
 30
0.0
 40
5.796824999999998
100
AcDbArc
 50
227.6252122451
 51
228.119468606
  0
ARC
  5
C7
330
1F
100
AcDbEntity
  8
0
  6
Continuous
 62
     7
370
    25
100
AcDbCircle
 10
-1.7127069972
 20
-5.2483043563
 30
0.0
 40
2.35
100
AcDbArc
 50
156.6252926091
 51
160.2776981514
  0
ARC
  5
C8
330
1F
100
AcDbEntity
  8
0
  6
Continuous
 62
     7
370
    25
100
AcDbCircle
 10
0.0
 20
0.0
 30
0.0
 40
5.9375
100
AcDbArc
 50
228.6216722822
 51
229.0379021859
  0
ARC
  5
C9
330
1F
100
AcDbEntity
  8
0
  6
Continuous
 62
     7
370
    25
100
AcDbCircle
 10
-4.9731947974
 20
-2.3969558572
 30
0.0
 40
2.35
100
AcDbArc
 50
297.3818763167
 51
301.0342818589
  0
ARC
  5
CA
330
1F
100
AcDbEntity
  8
0
  6
Continuous
 62
     7
370
    25
100
AcDbCircle
 10
0.0
 20
0.0
 30
0.0
 40
5.796824999999998
100
AcDbArc
 50
229.5401058621
 51
230.034362223
  0
ARC
  5
CB
330
1F
100
AcDbEntity
  8
0
  6
Continuous
 62
     7
370
    25
100
AcDbCircle
 10
-1.5363785901
 20
-5.3026035778
 30
0.0
 40
2.35
100
AcDbArc
 50
158.5401862262
 51
162.1925917684
  0
ARC
  5
CC
330
1F
100
AcDbEntity
  8
0
  6
Continuous
 62
     7
370
    25
100
AcDbCircle
 10
0.0
 20
0.0
 30
0.0
 40
5.9375
100
AcDbArc
 50
230.5365658992
 51
230.9527958029
  0
ARC
  5
CD
330
1F
100
AcDbEntity
  8
0
  6
Continuous
 62
     7
370
    25
100
AcDbCircle
 10
-4.8903233602
 20
-2.5617965
 30
0.0
 40
2.350000000000001
100
AcDbArc
 50
299.2967699338
 51
302.949175476
  0
ARC
  5
CE
330
1F
100
AcDbEntity
  8
0
  6
Continuous
 62
     7
370
    25
100
AcDbCircle
 10
0.0
 20
0.0
 30
0.0
 40
5.796824999999999
100
AcDbArc
 50
231.4549994791
 51
231.94925584
  0
ARC
  5
CF
330
1F
100
AcDbEntity
  8
0
  6
Continuous
 62
     7
370
    25
100
AcDbCircle
 10
-1.3583342439
 20
-5.3509804669
 30
0.0
 40
2.349999999999999
100
AcDbArc
 50
160.4550798432
 51
164.1074853854
  0
ARC
  5
D0
330
1F
100
AcDbEntity
  8
0
  6
Continuous
 62
     7
370
    25
100
AcDbCircle
 10
0.0
 20
0.0
 30
0.0
 40
5.9375
100
AcDbArc
 50
232.4514595162
 51
232.8676894199
  0
ARC
  5
D1
330
1F
100
AcDbEntity
  8
0
  6
Continuous
 62
     7
370
    25
100
AcDbCircle
 10
-4.8019900552
 20
-2.7237759425
 30
0.0
 40
2.35
100
AcDbArc
 50
301.2116635508
 51
304.864069093
  0
ARC
  5
D2
330
1F
100
AcDbEntity
  8
0
  6
Continuous
 62
     7
370
    25
100
AcDbCircle
 10
0.0
 20
0.0
 30
0.0
 40
5.796824999999998
100
AcDbArc
 50
233.3698930961
 51
233.8641494571
  0
ARC
  5
D3
330
1F
100
AcDbEntity
  8
0
  6
Continuous
 62
     7
370
    25
100
AcDbCircle
 10
-1.1787728115
 20
-5.3933809928
 30
0.0
 40
2.35
100
AcDbArc
 50
162.3699734602
 51
166.0223790024
  0
ARC
  5
D4
330
1F
100
AcDbEntity
  8
0
  6
Continuous
 62
     7
370
    25
100
AcDbCircle
 10
0.0
 20
0.0
 30
0.0
 40
5.937500000000001
100
AcDbArc
 50
234.3663531332
 51
234.782583037
  0
ARC
  5
D5
330
1F
100
AcDbEntity
  8
0
  6
Continuous
 62
     7
370
    25
100
AcDbCircle
 10
-4.7082935392
 20
-2.8827132745
 30
0.0
 40
2.350000000000001
100
AcDbArc
 50
303.1265571678
 51
306.77896271
  0
ARC
  5
D6
330
1F
100
AcDbEntity
  8
0
  6
Continuous
 62
     7
370
    25
100
AcDbCircle
 10
0.0
 20
0.0
 30
0.0
 40
5.796824999999999
100
AcDbArc
 50
235.2847867131
 51
235.7790430741
  0
ARC
  5
D7
330
1F
100
AcDbEntity
  8
0
  6
Continuous
 62
     7
370
    25
100
AcDbCircle
 10
-0.9978948402
 20
-5.4297577996
 30
0.0
 40
2.349999999999999
100
AcDbArc
 50
164.2848670772
 51
167.9372726194
  0
ARC
  5
D8
330
1F
100
AcDbEntity
  8
0
  6
Continuous
 62
     7
370
    25
100
AcDbCircle
 10
0.0
 20
0.0
 30
0.0
 40
5.937500000000001
100
AcDbArc
 50
236.2812467503
 51
236.697476654
  0
ARC
  5
D9
330
1F
100
AcDbEntity
  8
0
  6
Continuous
 62
     7
370
    25
100
AcDbCircle
 10
-4.6093384596
 20
-3.0384309832
 30
0.0
 40
2.35
100
AcDbArc
 50
305.0414507848
 51
308.693856327
  0
ARC
  5
DA
330
1F
100
AcDbEntity
  8
0
  6
Continuous
 62
     7
370
    25
100
AcDbCircle
 10
0.0
 20
0.0
 30
0.0
 40
5.796824999999998
100
AcDbArc
 50
237.1996803302
 51
237.6939366911
  0
ARC
  5
DB
330
1F
100
AcDbEntity
  8
0
  6
Continuous
 62
     7
370
    25
100
AcDbCircle
 10
-0.8159023475
 20
-5.4600702591
 30
0.0
 40
2.349999999999999
100
AcDbArc
 50
166.1997606942
 51
169.8521662365
  0
ARC
  5
DC
330
1F
100
AcDbEntity
  8
0
  6
Continuous
 62
     7
370
    25
100
AcDbCircle
 10
0.0
 20
0.0
 30
0.0
 40
5.9375
100
AcDbArc
 50
238.1961403673
 51
238.612370271
  0
ARC
  5
DD
330
1F
100
AcDbEntity
  8
0
  6
Continuous
 62
     7
370
    25
100
AcDbCircle
 10
-4.5052353364
 20
-3.1907551518
 30
0.0
 40
2.35
100
AcDbArc
 50
306.9563444018
 51
310.608749944
  0
ARC
  5
DE
330
1F
100
AcDbEntity
  8
0
  6
Continuous
 62
     7
370
    25
100
AcDbCircle
 10
0.0
 20
0.0
 30
0.0
 40
5.796824999999998
100
AcDbArc
 50
239.1145739472
 51
239.6088303081
  0
ARC
  5
DF
330
1F
100
AcDbEntity
  8
0
  6
Continuous
 62
     7
370
    25
100
AcDbCircle
 10
-0.6329985958
 20
-5.484284516
 30
0.0
 40
2.35
100
AcDbArc
 50
168.1146543113
 51
171.7670598535
  0
ARC
  5
E0
330
1F
100
AcDbEntity
  8
0
  6
Continuous
 62
     7
370
    25
100
AcDbCircle
 10
0.0
 20
0.0
 30
0.0
 40
5.937499999999999
100
AcDbArc
 50
240.1110339843
 51
240.527263888
  0
ARC
  5
E1
330
1F
100
AcDbEntity
  8
0
  6
Continuous
 62
     7
370
    25
100
AcDbCircle
 10
-4.3961004395
 20
-3.3395156536
 30
0.0
 40
2.349999999999999
100
AcDbArc
 50
308.8712380189
 51
312.5236435611
  0
ARC
  5
E2
330
1F
100
AcDbEntity
  8
0
  6
Continuous
 62
     7
370
    25
100
AcDbCircle
 10
0.0
 20
0.0
 30
0.0
 40
5.796824999999999
100
AcDbArc
 50
241.0294675642
 51
241.5237239252
  0
ARC
  5
E3
330
1F
100
AcDbEntity
  8
0
  6
Continuous
 62
     7
370
    25
100
AcDbCircle
 10
-0.4493878655
 20
-5.5023735261
 30
0.0
 40
2.35
100
AcDbArc
 50
170.0295479283
 51
173.6819534705
  0
ARC
  5
E4
330
1F
100
AcDbEntity
  8
0
  6
Continuous
 62
     7
370
    25
100
AcDbCircle
 10
0.0
 20
0.0
 30
0.0
 40
5.937500000000001
100
AcDbArc
 50
242.0259276013
 51
242.442157505
  0
ARC
  5
E5
330
1F
100
AcDbEntity
  8
0
  6
Continuous
 62
     7
370
    25
100
AcDbCircle
 10
-4.2820556588
 20
-3.484546342
 30
0.0
 40
2.35
100
AcDbArc
 50
310.7861316359
 51
314.4385371781
  0
ARC
  5
E6
330
1F
100
AcDbEntity
  8
0
  6
Continuous
 62
     7
370
    25
100
AcDbCircle
 10
0.0
 20
0.0
 30
0.0
 40
5.796825
100
AcDbArc
 50
242.9443611812
 51
243.4386175422
  0
ARC
  5
E7
330
1F
100
AcDbEntity
  8
0
  6
Continuous
 62
     7
370
    25
100
AcDbCircle
 10
-0.2652752261
 20
-5.5143170864
 30
0.0
 40
2.35
100
AcDbArc
 50
171.9444415453
 51
175.5968470875
  0
ARC
  5
E8
330
1F
100
AcDbEntity
  8
0
  6
Continuous
 62
     7
370
    25
100
AcDbCircle
 10
0.0
 20
0.0
 30
0.0
 40
5.937499999999999
100
AcDbArc
 50
243.9408212184
 51
244.3570511221
  0
ARC
  5
E9
330
1F
100
AcDbEntity
  8
0
  6
Continuous
 62
     7
370
    25
100
AcDbCircle
 10
-4.1632283677
 20
-3.6256852364
 30
0.0
 40
2.35
100
AcDbArc
 50
312.7010252529
 51
316.3534307951
  0
ARC
  5
EA
330
1F
100
AcDbEntity
  8
0
  6
Continuous
 62
     7
370
    25
100
AcDbCircle
 10
0.0
 20
0.0
 30
0.0
 40
5.796824999999998
100
AcDbArc
 50
244.8592547983
 51
245.3535111592
  0
ARC
  5
EB
330
1F
100
AcDbEntity
  8
0
  6
Continuous
 62
     7
370
    25
100
AcDbCircle
 10
-0.0808663081
 20
-5.5201018573
 30
0.0
 40
2.35
100
AcDbArc
 50
173.8593351623
 51
177.5117407045
  0
ARC
  5
EC
330
1F
100
AcDbEntity
  8
0
  6
Continuous
 62
     7
370
    25
100
AcDbCircle
 10
0.0
 20
0.0
 30
0.0
 40
5.9375
100
AcDbArc
 50
245.8557148354
 51
246.2719447391
  0
ARC
  5
ED
330
1F
100
AcDbEntity
  8
0
  6
Continuous
 62
     7
370
    25
100
AcDbCircle
 10
-4.0397512812
 20
-3.7627747024
 30
0.0
 40
2.35
100
AcDbArc
 50
314.6159188699
 51
318.2683244121
  0
ARC
  5
EE
330
1F
100
AcDbEntity
  8
0
  6
Continuous
 62
     7
370
    25
100
AcDbCircle
 10
0.0
 20
0.0
 30
0.0
 40
5.796824999999998
100
AcDbArc
 50
246.7741484153
 51
247.2684047762
  0
ARC
  5
EF
330
1F
100
AcDbEntity
  8
0
  6
Continuous
 62
     7
370
    25
100
AcDbCircle
 10
0.1036329272
 20
-5.519721378
 30
0.0
 40
2.35
100
AcDbArc
 50
175.7742287794
 51
179.4266343216
  0
ARC
  5
F0
330
1F
100
AcDbEntity
  8
0
  6
Continuous
 62
     7
370
    25
100
AcDbCircle
 10
0.0
 20
0.0
 30
0.0
 40
5.9375
100
AcDbArc
 50
247.7706084524
 51
248.1868383561
  0
ARC
  5
F1
330
1F
100
AcDbEntity
  8
0
  6
Continuous
 62
     7
370
    25
100
AcDbCircle
 10
-3.9117623074
 20
-3.8956616287
 30
0.0
 40
2.35
100
AcDbArc
 50
316.5308124869
 51
320.1832180292
  0
ARC
  5
F2
330
1F
100
AcDbEntity
  8
0
  6
Continuous
 62
     7
370
    25
100
AcDbCircle
 10
0.0
 20
0.0
 30
0.0
 40
5.796824999999999
100
AcDbArc
 50
248.6890420323
 51
249.1832983932
  0
ARC
  5
F3
330
1F
100
AcDbEntity
  8
0
  6
Continuous
 62
     7
370
    25
100
AcDbCircle
 10
0.2880164177
 20
-5.5131760736
 30
0.0
 40
2.349999999999999
100
AcDbArc
 50
177.6891223964
 51
181.3415279386
  0
ARC
  5
F4
330
1F
100
AcDbEntity
  8
0
  6
Continuous
 62
     7
370
    25
100
AcDbCircle
 10
0.0
 20
0.0
 30
0.0
 40
5.9375
100
AcDbArc
 50
249.6855020694
 51
250.1017319731
  0
ARC
  5
F5
330
1F
100
AcDbEntity
  8
0
  6
Continuous
 62
     7
370
    25
100
AcDbCircle
 10
-3.7794043937
 20
-4.0241975975
 30
0.0
 40
2.35
100
AcDbArc
 50
318.445706104
 51
322.0981116462
  0
ARC
  5
F6
330
1F
100
AcDbEntity
  8
0
  6
Continuous
 62
     7
370
    25
100
AcDbCircle
 10
0.0
 20
0.0
 30
0.0
 40
5.796824999999999
100
AcDbArc
 50
250.6039356493
 51
251.0981920103
  0
ARC
  5
F7
330
1F
100
AcDbEntity
  8
0
  6
Continuous
 62
     7
370
    25
100
AcDbCircle
 10
0.4720782307
 20
-5.5004732541
 30
0.0
 40
2.35
100
AcDbArc
 50
179.6040160134
 51
183.2564215556
  0
ARC
  5
F8
330
1F
100
AcDbEntity
  8
0
  6
Continuous
 62
     7
370
    25
100
AcDbCircle
 10
0.0
 20
0.0
 30
0.0
 40
5.9375
100
AcDbArc
 50
251.6003956864
 51
252.0166255902
  0
ARC
  5
F9
330
1F
100
AcDbEntity
  8
0
  6
Continuous
 62
     7
370
    25
100
AcDbCircle
 10
-3.642825367
 20
-4.1482390506
 30
0.0
 40
2.35
100
AcDbArc
 50
320.360599721
 51
324.0130052632
  0
ARC
  5
FA
330
1F
100
AcDbEntity
  8
0
  6
Continuous
 62
     7
370
    25
100
AcDbCircle
 10
0.0
 20
0.0
 30
0.0
 40
5.796825
100
AcDbArc
 50
252.5188292663
 51
253.0130856273
  0
ARC
  5
FB
330
1F
100
AcDbEntity
  8
0
  6
Continuous
 62
     7
370
    25
100
AcDbCircle
 10
0.6556127924
 20
-5.4816271071
 30
0.0
 40
2.35
100
AcDbArc
 50
181.5189096304
 51
185.1713151726
  0
ARC
  5
FC
330
1F
100
AcDbEntity
  8
0
  6
Continuous
 62
     7
370
    25
100
AcDbCircle
 10
0.0
 20
0.0
 30
0.0
 40
5.937499999999999
100
AcDbArc
 50
253.5152893035
 51
253.9315192072
  0
ARC
  5
FD
330
1F
100
AcDbEntity
  8
0
  6
Continuous
 62
     7
370
    25
100
AcDbCircle
 10
-3.5021777687
 20
-4.2676474493
 30
0.0
 40
2.349999999999999
100
AcDbArc
 50
322.275493338
 51
325.9278988802
  0
ARC
  5
FE
330
1F
100
AcDbEntity
  8
0
  6
Continuous
 62
     7
370
    25
100
AcDbCircle
 10
0.0
 20
0.0
 30
0.0
 40
5.796824999999997
100
AcDbArc
 50
254.4337228834
 51
254.9279792443
  0
ARC
  5
FF
330
1F
100
AcDbEntity
  8
0
  6
Continuous
 62
     7
370
    25
100
AcDbCircle
 10
0.8384151181
 20
-5.4566586813
 30
0.0
 40
2.35
100
AcDbArc
 50
183.4338032474
 51
187.0862087897
  0
ARC
  5
100
330
1F
100
AcDbEntity
  8
0
  6
Continuous
 62
     7
370
    25
100
AcDbCircle
 10
0.0
 20
0.0
 30
0.0
 40
5.9375
100
AcDbArc
 50
255.4301829205
 51
255.8464128242
  0
ARC
  5
101
330
1F
100
AcDbEntity
  8
0
  6
Continuous
 62
     7
370
    25
100
AcDbCircle
 10
-3.3576186842
 20
-4.3822894298
 30
0.0
 40
2.35
100
AcDbArc
 50
324.190386955
 51
327.8427924972
  0
ARC
  5
102
330
1F
100
AcDbEntity
  8
0
  6
Continuous
 62
     7
370
    25
100
AcDbCircle
 10
0.0
 20
0.0
 30
0.0
 40
5.796824999999999
100
AcDbArc
 50
256.3486165004
 51
256.8428728613
  0
ARC
  5
103
330
1F
100
AcDbEntity
  8
0
  6
Continuous
 62
     7
370
    25
100
AcDbCircle
 10
1.0202810411
 20
-5.4255958633
 30
0.0
 40
2.349999999999999
100
AcDbArc
 50
185.3486968645
 51
189.0011024067
  0
ARC
  5
104
330
1F
100
AcDbEntity
  8
0
  6
Continuous
 62
     7
370
    25
100
AcDbCircle
 10
0.0
 20
0.0
 30
0.0
 40
5.937499999999999
100
AcDbArc
 50
257.3450765375
 51
257.7613064412
  0
ARC
  5
105
330
1F
100
AcDbEntity
  8
0
  6
Continuous
 62
     7
370
    25
100
AcDbCircle
 10
-3.2093095676
 20
-4.4920369516
 30
0.0
 40
2.35
100
AcDbArc
 50
326.105280572
 51
329.7576861143
  0
ARC
  5
106
330
1F
100
AcDbEntity
  8
0
  6
Continuous
 62
     7
370
    25
100
AcDbCircle
 10
0.0
 20
0.0
 30
0.0
 40
5.796824999999999
100
AcDbArc
 50
258.2635101174
 51
258.7577664783
  0
ARC
  5
107
330
1F
100
AcDbEntity
  8
0
  6
Continuous
 62
     7
370
    25
100
AcDbCircle
 10
1.2010074402
 20
-5.3884733463
 30
0.0
 40
2.349999999999999
100
AcDbArc
 50
187.2635904815
 51
190.9159960237
  0
ARC
  5
108
330
1F
100
AcDbEntity
  8
0
  6
Continuous
 62
     7
370
    25
100
AcDbCircle
 10
0.0
 20
0.0
 30
0.0
 40
5.937499999999999
100
AcDbArc
 50
259.2599701545
 51
259.6762000582
  0
ARC
  5
109
330
1F
100
AcDbEntity
  8
0
  6
Continuous
 62
     7
370
    25
100
AcDbCircle
 10
-3.0574160613
 20
-4.5967674406
 30
0.0
 40
2.35
100
AcDbArc
 50
328.0201741891
 51
331.6725797313
  0
ARC
  5
10A
330
1F
100
AcDbEntity
  8
0
  6
Continuous
 62
     7
370
    25
100
AcDbCircle
 10
0.0
 20
0.0
 30
0.0
 40
5.796824999999999
100
AcDbArc
 50
260.1784037344
 51
260.6726600954
  0
ARC
  5
10B
330
1F
100
AcDbEntity
  8
0
  6
Continuous
 62
     7
370
    25
100
AcDbCircle
 10
1.3803924671
 20
-5.3453325913
 30
0.0
 40
2.349999999999999
100
AcDbArc
 50
189.1784840985
 51
192.8308896407
  0
ARC
  5
10C
330
1F
100
AcDbEntity
  8
0
  6
Continuous
 62
     7
370
    25
100
AcDbCircle
 10
0.0
 20
0.0
 30
0.0
 40
5.937500000000001
100
AcDbArc
 50
261.1748637715
 51
261.5910936753
  0
ARC
  5
10D
330
1F
100
AcDbEntity
  8
0
  6
Continuous
 62
     7
370
    25
100
AcDbCircle
 10
-2.9021078109
 20
-4.6963639263
 30
0.0
 40
2.35
100
AcDbArc
 50
329.9350678061
 51
333.5874733483
  0
ARC
  5
10E
330
1F
100
AcDbEntity
  8
0
  6
Continuous
 62
     7
370
    25
100
AcDbCircle
 10
0.0
 20
0.0
 30
0.0
 40
5.796824999999999
100
AcDbArc
 50
262.0932973514
 51
262.5875537124
  0
ARC
  5
10F
330
1F
100
AcDbEntity
  8
0
  6
Continuous
 62
     7
370
    25
100
AcDbCircle
 10
1.5582357715
 20
-5.2962217812
 30
0.0
 40
2.349999999999999
100
AcDbArc
 50
191.0933777155
 51
194.7457832577
  0
ARC
  5
110
330
1F
100
AcDbEntity
  8
0
  6
Continuous
 62
     7
370
    25
100
AcDbCircle
 10
0.0
 20
0.0
 30
0.0
 40
5.937499999999999
100
AcDbArc
 50
263.0897573886
 51
263.5059872923
  0
ARC
  5
111
330
1F
100
AcDbEntity
  8
0
  6
Continuous
 62
     7
370
    25
100
AcDbCircle
 10
-2.7435582761
 20
-4.7907151722
 30
0.0
 40
2.35
100
AcDbArc
 50
331.8499614231
 51
335.5023669653
  0
ARC
  5
112
330
1F
100
AcDbEntity
  8
0
  6
Continuous
 62
     7
370
    25
100
AcDbCircle
 10
0.0
 20
0.0
 30
0.0
 40
5.796824999999997
100
AcDbArc
 50
264.0081909685
 51
264.5024473294
  0
ARC
  5
113
330
1F
100
AcDbEntity
  8
0
  6
Continuous
 62
     7
370
    25
100
AcDbCircle
 10
1.7343387251
 20
-5.2411957664
 30
0.0
 40
2.349999999999999
100
AcDbArc
 50
193.0082713325
 51
196.6606768748
  0
ARC
  5
114
330
1F
100
AcDbEntity
  8
0
  6
Continuous
 62
     7
370
    25
100
AcDbCircle
 10
0.0
 20
0.0
 30
0.0
 40
5.937500000000001
100
AcDbArc
 50
265.0046510056
 51
265.4208809093
  0
ARC
  5
115
330
1F
100
AcDbEntity
  8
0
  6
Continuous
 62
     7
370
    25
100
AcDbCircle
 10
-2.5819445363
 20
-4.8797157998
 30
0.0
 40
2.35
100
AcDbArc
 50
333.7648550401
 51
337.4172605823
  0
ARC
  5
116
330
1F
100
AcDbEntity
  8
0
  6
Continuous
 62
     7
370
    25
100
AcDbCircle
 10
0.0
 20
0.0
 30
0.0
 40
5.796824999999998
100
AcDbArc
 50
265.9230845855
 51
266.4173409464
  0
ARC
  5
117
330
1F
100
AcDbEntity
  8
0
  6
Continuous
 62
     7
370
    25
100
AcDbCircle
 10
1.9085046435
 20
-5.1803160039
 30
0.0
 40
2.349999999999999
100
AcDbArc
 50
194.9231649496
 51
198.5755704918
  0
ARC
  5
118
330
1F
100
AcDbEntity
  8
0
  6
Continuous
 62
     7
370
    25
100
AcDbCircle
 10
0.0
 20
0.0
 30
0.0
 40
5.937499999999999
100
AcDbArc
 50
266.9195446226
 51
267.3357745263
  0
ARC
  5
119
330
1F
100
AcDbEntity
  8
0
  6
Continuous
 62
     7
370
    25
100
AcDbCircle
 10
-2.4174470935
 20
-4.9632664068
 30
0.0
 40
2.35
100
AcDbArc
 50
335.6797486572
 51
339.3321541994
  0
ARC
  5
11A
330
1F
100
AcDbEntity
  8
0
  6
Continuous
 62
     7
370
    25
100
AcDbCircle
 10
0.0
 20
0.0
 30
0.0
 40
5.796824999999998
100
AcDbArc
 50
267.8379782025
 51
268.3322345635
  0
ARC
  5
11B
330
1F
100
AcDbEntity
  8
0
  6
Continuous
 62
     7
370
    25
100
AcDbCircle
 10
2.0805390055
 20
-5.1136504888
 30
0.0
 40
2.35
100
AcDbArc
 50
196.8380585666
 51
200.4904641088
  0
ARC
  5
11C
330
1F
100
AcDbEntity
  8
0
  6
Continuous
 62
     7
370
    25
100
AcDbCircle
 10
0.0
 20
0.0
 30
0.0
 40
5.937500000000001
100
AcDbArc
 50
268.8344382396
 51
269.2506681433
  0
ARC
  5
11D
330
1F
100
AcDbEntity
  8
0
  6
Continuous
 62
     7
370
    25
100
AcDbCircle
 10
-2.2502496705
 20
-5.0412736779
 30
0.0
 40
2.35
100
AcDbArc
 50
337.5946422742
 51
341.2470478164
  0
ARC
  5
11E
330
1F
100
AcDbEntity
  8
0
  6
Continuous
 62
     7
370
    25
100
AcDbCircle
 10
0.0
 20
0.0
 30
0.0
 40
5.796824999999999
100
AcDbArc
 50
269.7528718195
 51
270.2471281805
  0
ARC
  5
11F
330
1F
100
AcDbEntity
  8
0
  6
Continuous
 62
     7
370
    25
100
AcDbCircle
 10
2.2502496705
 20
-5.0412736779
 30
0.0
 40
2.35
100
AcDbArc
 50
198.7529521836
 51
202.4053577258
  0
ARC
  5
120
330
1F
100
AcDbEntity
  8
0
  6
Continuous
 62
     7
370
    25
100
AcDbCircle
 10
0.0
 20
0.0
 30
0.0
 40
5.937500000000001
100
AcDbArc
 50
270.7493318567
 51
271.1655617604
  0
ARC
  5
121
330
1F
100
AcDbEntity
  8
0
  6
Continuous
 62
     7
370
    25
100
AcDbCircle
 10
-2.0805390055
 20
-5.1136504888
 30
0.0
 40
2.35
100
AcDbArc
 50
339.5095358912
 51
343.1619414334
  0
ARC
  5
122
330
1F
100
AcDbEntity
  8
0
  6
Continuous
 62
     7
370
    25
100
AcDbCircle
 10
0.0
 20
0.0
 30
0.0
 40
5.796824999999999
100
AcDbArc
 50
271.6677654365
 51
272.1620217975
  0
ARC
  5
123
330
1F
100
AcDbEntity
  8
0
  6
Continuous
 62
     7
370
    25
100
AcDbCircle
 10
2.4174470935
 20
-4.9632664068
 30
0.0
 40
2.35
100
AcDbArc
 50
200.6678458006
 51
204.3202513428
  0
ARC
  5
124
330
1F
100
AcDbEntity
  8
0
  6
Continuous
 62
     7
370
    25
100
AcDbCircle
 10
0.0
 20
0.0
 30
0.0
 40
5.937499999999999
100
AcDbArc
 50
272.6642254737
 51
273.0804553774
  0
ARC
  5
125
330
1F
100
AcDbEntity
  8
0
  6
Continuous
 62
     7
370
    25
100
AcDbCircle
 10
-1.9085046435
 20
-5.1803160039
 30
0.0
 40
2.35
100
AcDbArc
 50
341.4244295082
 51
345.0768350504
  0
ARC
  5
126
330
1F
100
AcDbEntity
  8
0
  6
Continuous
 62
     7
370
    25
100
AcDbCircle
 10
0.0
 20
0.0
 30
0.0
 40
5.796824999999998
100
AcDbArc
 50
273.5826590536
 51
274.0769154145
  0
ARC
  5
127
330
1F
100
AcDbEntity
  8
0
  6
Continuous
 62
     7
370
    25
100
AcDbCircle
 10
2.5819445363
 20
-4.8797157998
 30
0.0
 40
2.35
100
AcDbArc
 50
202.5827394177
 51
206.2351449599
  0
ARC
  5
128
330
1F
100
AcDbEntity
  8
0
  6
Continuous
 62
     7
370
    25
100
AcDbCircle
 10
0.0
 20
0.0
 30
0.0
 40
5.937500000000001
100
AcDbArc
 50
274.5791190907
 51
274.9953489944
  0
ARC
  5
129
330
1F
100
AcDbEntity
  8
0
  6
Continuous
 62
     7
370
    25
100
AcDbCircle
 10
-1.7343387251
 20
-5.2411957664
 30
0.0
 40
2.35
100
AcDbArc
 50
343.3393231252
 51
346.9917286675
  0
ARC
  5
12A
330
1F
100
AcDbEntity
  8
0
  6
Continuous
 62
     7
370
    25
100
AcDbCircle
 10
0.0
 20
0.0
 30
0.0
 40
5.796824999999999
100
AcDbArc
 50
275.4975526706
 51
275.9918090315
  0
ARC
  5
12B
330
1F
100
AcDbEntity
  8
0
  6
Continuous
 62
     7
370
    25
100
AcDbCircle
 10
2.7435582761
 20
-4.7907151722
 30
0.0
 40
2.35
100
AcDbArc
 50
204.4976330347
 51
208.1500385769
  0
ARC
  5
12C
330
1F
100
AcDbEntity
  8
0
  6
Continuous
 62
     7
370
    25
100
AcDbCircle
 10
0.0
 20
0.0
 30
0.0
 40
5.937500000000001
100
AcDbArc
 50
276.4940127077
 51
276.9102426114
  0
ARC
  5
12D
330
1F
100
AcDbEntity
  8
0
  6
Continuous
 62
     7
370
    25
100
AcDbCircle
 10
-1.5582357715
 20
-5.2962217812
 30
0.0
 40
2.35
100
AcDbArc
 50
345.2542167423
 51
348.9066222845
  0
ARC
  5
12E
330
1F
100
AcDbEntity
  8
0
  6
Continuous
 62
     7
370
    25
100
AcDbCircle
 10
0.0
 20
0.0
 30
0.0
 40
5.796824999999998
100
AcDbArc
 50
277.4124462876
 51
277.9067026486
  0
ARC
  5
12F
330
1F
100
AcDbEntity
  8
0
  6
Continuous
 62
     7
370
    25
100
AcDbCircle
 10
2.9021078109
 20
-4.6963639263
 30
0.0
 40
2.35
100
AcDbArc
 50
206.4125266517
 51
210.0649321939
  0
ARC
  5
130
330
1F
100
AcDbEntity
  8
0
  6
Continuous
 62
     7
370
    25
100
AcDbCircle
 10
0.0
 20
0.0
 30
0.0
 40
5.937500000000001
100
AcDbArc
 50
278.4089063247
 51
278.8251362285
  0
ARC
  5
131
330
1F
100
AcDbEntity
  8
0
  6
Continuous
 62
     7
370
    25
100
AcDbCircle
 10
-1.3803924671
 20
-5.3453325913
 30
0.0
 40
2.35
100
AcDbArc
 50
347.1691103593
 51
350.8215159015
  0
ARC
  5
132
330
1F
100
AcDbEntity
  8
0
  6
Continuous
 62
     7
370
    25
100
AcDbCircle
 10
0.0
 20
0.0
 30
0.0
 40
5.796824999999998
100
AcDbArc
 50
279.3273399046
 51
279.8215962656
  0
ARC
  5
133
330
1F
100
AcDbEntity
  8
0
  6
Continuous
 62
     7
370
    25
100
AcDbCircle
 10
3.0574160613
 20
-4.5967674406
 30
0.0
 40
2.35
100
AcDbArc
 50
208.3274202687
 51
211.9798258109
  0
ARC
  5
134
330
1F
100
AcDbEntity
  8
0
  6
Continuous
 62
     7
370
    25
100
AcDbCircle
 10
0.0
 20
0.0
 30
0.0
 40
5.937499999999999
100
AcDbArc
 50
280.3237999418
 51
280.7400298455
  0
ARC
  5
135
330
1F
100
AcDbEntity
  8
0
  6
Continuous
 62
     7
370
    25
100
AcDbCircle
 10
-1.2010074402
 20
-5.3884733463
 30
0.0
 40
2.35
100
AcDbArc
 50
349.0840039763
 51
352.7364095185
  0
ARC
  5
136
330
1F
100
AcDbEntity
  8
0
  6
Continuous
 62
     7
370
    25
100
AcDbCircle
 10
0.0
 20
0.0
 30
0.0
 40
5.796825
100
AcDbArc
 50
281.2422335217
 51
281.7364898826
  0
ARC
  5
137
330
1F
100
AcDbEntity
  8
0
  6
Continuous
 62
     7
370
    25
100
AcDbCircle
 10
3.2093095676
 20
-4.4920369516
 30
0.0
 40
2.350000000000001
100
AcDbArc
 50
210.2423138857
 51
213.894719428
  0
ARC
  5
138
330
1F
100
AcDbEntity
  8
0
  6
Continuous
 62
     7
370
    25
100
AcDbCircle
 10
0.0
 20
0.0
 30
0.0
 40
5.9375
100
AcDbArc
 50
282.2386935588
 51
282.6549234625
  0
ARC
  5
139
330
1F
100
AcDbEntity
  8
0
  6
Continuous
 62
     7
370
    25
100
AcDbCircle
 10
-1.0202810411
 20
-5.4255958633
 30
0.0
 40
2.35
100
AcDbArc
 50
350.9988975933
 51
354.6513031355
  0
ARC
  5
13A
330
1F
100
AcDbEntity
  8
0
  6
Continuous
 62
     7
370
    25
100
AcDbCircle
 10
0.0
 20
0.0
 30
0.0
 40
5.796824999999999
100
AcDbArc
 50
283.1571271387
 51
283.6513834996
  0
ARC
  5
13B
330
1F
100
AcDbEntity
  8
0
  6
Continuous
 62
     7
370
    25
100
AcDbCircle
 10
3.3576186842
 20
-4.3822894298
 30
0.0
 40
2.35
100
AcDbArc
 50
212.1572075028
 51
215.809613045
  0
ARC
  5
13C
330
1F
100
AcDbEntity
  8
0
  6
Continuous
 62
     7
370
    25
100
AcDbCircle
 10
0.0
 20
0.0
 30
0.0
 40
5.9375
100
AcDbArc
 50
284.1535871758
 51
284.5698170795
  0
ARC
  5
13D
330
1F
100
AcDbEntity
  8
0
  6
Continuous
 62
     7
370
    25
100
AcDbCircle
 10
-0.8384151181
 20
-5.4566586813
 30
0.0
 40
2.35
100
AcDbArc
 50
352.9137912103
 51
356.5661967526
  0
ARC
  5
13E
330
1F
100
AcDbEntity
  8
0
  6
Continuous
 62
     7
370
    25
100
AcDbCircle
 10
0.0
 20
0.0
 30
0.0
 40
5.796824999999999
100
AcDbArc
 50
285.0720207557
 51
285.5662771166
  0
ARC
  5
13F
330
1F
100
AcDbEntity
  8
0
  6
Continuous
 62
     7
370
    25
100
AcDbCircle
 10
3.5021777687
 20
-4.2676474493
 30
0.0
 40
2.349999999999999
100
AcDbArc
 50
214.0721011198
 51
217.724506662
  0
ARC
  5
140
330
1F
100
AcDbEntity
  8
0
  6
Continuous
 62
     7
370
    25
100
AcDbCircle
 10
0.0
 20
0.0
 30
0.0
 40
5.937500000000001
100
AcDbArc
 50
286.0684807928
 51
286.4847106965
  0
ARC
  5
141
330
1F
100
AcDbEntity
  8
0
  6
Continuous
 62
     7
370
    25
100
AcDbCircle
 10
-0.6556127924
 20
-5.4816271071
 30
0.0
 40
2.35
100
AcDbArc
 50
354.8286848274
 51
358.4810903696
  0
ARC
  5
142
330
1F
100
AcDbEntity
  8
0
  6
Continuous
 62
     7
370
    25
100
AcDbCircle
 10
0.0
 20
0.0
 30
0.0
 40
5.796824999999999
100
AcDbArc
 50
286.9869143727
 51
287.4811707337
  0
ARC
  5
143
330
1F
100
AcDbEntity
  8
0
  6
Continuous
 62
     7
370
    25
100
AcDbCircle
 10
3.642825367
 20
-4.1482390506
 30
0.0
 40
2.35
100
AcDbArc
 50
215.9869947368
 51
219.639400279
  0
ARC
  5
144
330
1F
100
AcDbEntity
  8
0
  6
Continuous
 62
     7
370
    25
100
AcDbCircle
 10
0.0
 20
0.0
 30
0.0
 40
5.9375
100
AcDbArc
 50
287.9833744098
 51
288.3996043136
  0
ARC
  5
145
330
1F
100
AcDbEntity
  8
0
  6
Continuous
 62
     7
370
    25
100
AcDbCircle
 10
-0.4720782307
 20
-5.5004732541
 30
0.0
 40
2.35
100
AcDbArc
 50
356.7435784444
 51
0.3959839866
  0
ARC
  5
146
330
1F
100
AcDbEntity
  8
0
  6
Continuous
 62
     7
370
    25
100
AcDbCircle
 10
0.0
 20
0.0
 30
0.0
 40
5.796824999999999
100
AcDbArc
 50
288.9018079897
 51
289.3960643507
  0
ARC
  5
147
330
1F
100
AcDbEntity
  8
0
  6
Continuous
 62
     7
370
    25
100
AcDbCircle
 10
3.7794043937
 20
-4.0241975975
 30
0.0
 40
2.349999999999999
100
AcDbArc
 50
217.9018883538
 51
221.554293896
  0
ARC
  5
148
330
1F
100
AcDbEntity
  8
0
  6
Continuous
 62
     7
370
    25
100
AcDbCircle
 10
0.0
 20
0.0
 30
0.0
 40
5.937499999999999
100
AcDbArc
 50
289.8982680269
 51
290.3144979306
  0
ARC
  5
149
330
1F
100
AcDbEntity
  8
0
  6
Continuous
 62
     7
370
    25
100
AcDbCircle
 10
-0.2880164177
 20
-5.5131760736
 30
0.0
 40
2.35
100
AcDbArc
 50
358.6584720614
 51
2.3108776036
  0
ARC
  5
14A
330
1F
100
AcDbEntity
  8
0
  6
Continuous
 62
     7
370
    25
100
AcDbCircle
 10
0.0
 20
0.0
 30
0.0
 40
5.796824999999998
100
AcDbArc
 50
290.8167016068
 51
291.3109579677
  0
ARC
  5
14B
330
1F
100
AcDbEntity
  8
0
  6
Continuous
 62
     7
370
    25
100
AcDbCircle
 10
3.9117623074
 20
-3.8956616287
 30
0.0
 40
2.349999999999999
100
AcDbArc
 50
219.8167819708
 51
223.4691875131
  0
ARC
  5
14C
330
1F
100
AcDbEntity
  8
0
  6
Continuous
 62
     7
370
    25
100
AcDbCircle
 10
0.0
 20
0.0
 30
0.0
 40
5.9375
100
AcDbArc
 50
291.8131616439
 51
292.2293915476
  0
ARC
  5
14D
330
1F
100
AcDbEntity
  8
0
  6
Continuous
 62
     7
370
    25
100
AcDbCircle
 10
-0.1036329272
 20
-5.519721378
 30
0.0
 40
2.35
100
AcDbArc
 50
0.5733656784
 51
4.2257712206
  0
ARC
  5
14E
330
1F
100
AcDbEntity
  8
0
  6
Continuous
 62
     7
370
    25
100
AcDbCircle
 10
0.0
 20
0.0
 30
0.0
 40
5.796824999999998
100
AcDbArc
 50
292.7315952238
 51
293.2258515847
  0
ARC
  5
14F
330
1F
100
AcDbEntity
  8
0
  6
Continuous
 62
     7
370
    25
100
AcDbCircle
 10
4.0397512812
 20
-3.7627747024
 30
0.0
 40
2.349999999999999
100
AcDbArc
 50
221.7316755879
 51
225.3840811301
  0
ARC
  5
150
330
1F
100
AcDbEntity
  8
0
  6
Continuous
 62
     7
370
    25
100
AcDbCircle
 10
0.0
 20
0.0
 30
0.0
 40
5.937500000000001
100
AcDbArc
 50
293.7280552609
 51
294.1442851646
  0
ARC
  5
151
330
1F
100
AcDbEntity
  8
0
  6
Continuous
 62
     7
370
    25
100
AcDbCircle
 10
0.0808663081
 20
-5.5201018573
 30
0.0
 40
2.35
100
AcDbArc
 50
2.4882592955
 51
6.1406648377
  0
ARC
  5
152
330
1F
100
AcDbEntity
  8
0
  6
Continuous
 62
     7
370
    25
100
AcDbCircle
 10
0.0
 20
0.0
 30
0.0
 40
5.796824999999999
100
AcDbArc
 50
294.6464888408
 51
295.1407452017
  0
ARC
  5
153
330
1F
100
AcDbEntity
  8
0
  6
Continuous
 62
     7
370
    25
100
AcDbCircle
 10
4.1632283677
 20
-3.6256852364
 30
0.0
 40
2.349999999999999
100
AcDbArc
 50
223.6465692049
 51
227.2989747471
  0
ARC
  5
154
330
1F
100
AcDbEntity
  8
0
  6
Continuous
 62
     7
370
    25
100
AcDbCircle
 10
0.0
 20
0.0
 30
0.0
 40
5.9375
100
AcDbArc
 50
295.6429488779
 51
296.0591787816
  0
ARC
  5
155
330
1F
100
AcDbEntity
  8
0
  6
Continuous
 62
     7
370
    25
100
AcDbCircle
 10
0.2652752261
 20
-5.5143170864
 30
0.0
 40
2.35
100
AcDbArc
 50
4.4031529125
 51
8.0555584547
  0
ARC
  5
156
330
1F
100
AcDbEntity
  8
0
  6
Continuous
 62
     7
370
    25
100
AcDbCircle
 10
0.0
 20
0.0
 30
0.0
 40
5.796824999999999
100
AcDbArc
 50
296.5613824578
 51
297.0556388188
  0
ARC
  5
157
330
1F
100
AcDbEntity
  8
0
  6
Continuous
 62
     7
370
    25
100
AcDbCircle
 10
4.2820556588
 20
-3.484546342
 30
0.0
 40
2.35
100
AcDbArc
 50
225.5614628219
 51
229.2138683641
  0
ARC
  5
158
330
1F
100
AcDbEntity
  8
0
  6
Continuous
 62
     7
370
    25
100
AcDbCircle
 10
0.0
 20
0.0
 30
0.0
 40
5.9375
100
AcDbArc
 50
297.557842495
 51
297.9740723987
  0
ARC
  5
159
330
1F
100
AcDbEntity
  8
0
  6
Continuous
 62
     7
370
    25
100
AcDbCircle
 10
0.4493878655
 20
-5.5023735261
 30
0.0
 40
2.35
100
AcDbArc
 50
6.3180465295
 51
9.9704520717
  0
ARC
  5
15A
330
1F
100
AcDbEntity
  8
0
  6
Continuous
 62
     7
370
    25
100
AcDbCircle
 10
0.0
 20
0.0
 30
0.0
 40
5.796824999999999
100
AcDbArc
 50
298.4762760748
 51
298.9705324358
  0
ARC
  5
15B
330
1F
100
AcDbEntity
  8
0
  6
Continuous
 62
     7
370
    25
100
AcDbCircle
 10
4.3961004395
 20
-3.3395156536
 30
0.0
 40
2.35
100
AcDbArc
 50
227.4763564389
 51
231.1287619811
  0
ARC
  5
15C
330
1F
100
AcDbEntity
  8
0
  6
Continuous
 62
     7
370
    25
100
AcDbCircle
 10
0.0
 20
0.0
 30
0.0
 40
5.937499999999999
100
AcDbArc
 50
299.472736112
 51
299.8889660157
  0
ARC
  5
15D
330
1F
100
AcDbEntity
  8
0
  6
Continuous
 62
     7
370
    25
100
AcDbCircle
 10
0.6329985958
 20
-5.484284516
 30
0.0
 40
2.35
100
AcDbArc
 50
8.2329401465
 51
11.8853456887
  0
ARC
  5
15E
330
1F
100
AcDbEntity
  8
0
  6
Continuous
 62
     7
370
    25
100
AcDbCircle
 10
0.0
 20
0.0
 30
0.0
 40
5.796824999999999
100
AcDbArc
 50
300.3911696919
 51
300.8854260528
  0
ARC
  5
15F
330
1F
100
AcDbEntity
  8
0
  6
Continuous
 62
     7
370
    25
100
AcDbCircle
 10
4.5052353364
 20
-3.1907551518
 30
0.0
 40
2.349999999999999
100
AcDbArc
 50
229.391250056
 51
233.0436555982
  0
ARC
  5
160
330
1F
100
AcDbEntity
  8
0
  6
Continuous
 62
     7
370
    25
100
AcDbCircle
 10
0.0
 20
0.0
 30
0.0
 40
5.937499999999999
100
AcDbArc
 50
301.387629729
 51
301.8038596327
  0
ARC
  5
161
330
1F
100
AcDbEntity
  8
0
  6
Continuous
 62
     7
370
    25
100
AcDbCircle
 10
0.8159023475
 20
-5.4600702591
 30
0.0
 40
2.35
100
AcDbArc
 50
10.1478337635
 51
13.8002393058
  0
ARC
  5
162
330
1F
100
AcDbEntity
  8
0
  6
Continuous
 62
     7
370
    25
100
AcDbCircle
 10
0.0
 20
0.0
 30
0.0
 40
5.796824999999999
100
AcDbArc
 50
302.3060633089
 51
302.8003196698
  0
ARC
  5
163
330
1F
100
AcDbEntity
  8
0
  6
Continuous
 62
     7
370
    25
100
AcDbCircle
 10
4.6093384596
 20
-3.0384309832
 30
0.0
 40
2.35
100
AcDbArc
 50
231.306143673
 51
234.9585492152
  0
ARC
  5
164
330
1F
100
AcDbEntity
  8
0
  6
Continuous
 62
     7
370
    25
100
AcDbCircle
 10
0.0
 20
0.0
 30
0.0
 40
5.937499999999999
100
AcDbArc
 50
303.302523346
 51
303.7187532497
  0
ARC
  5
165
330
1F
100
AcDbEntity
  8
0
  6
Continuous
 62
     7
370
    25
100
AcDbCircle
 10
0.9978948402
 20
-5.4297577996
 30
0.0
 40
2.35
100
AcDbArc
 50
12.0627273806
 51
15.7151329228
  0
ARC
  5
166
330
1F
100
AcDbEntity
  8
0
  6
Continuous
 62
     7
370
    25
100
AcDbCircle
 10
0.0
 20
0.0
 30
0.0
 40
5.796824999999998
100
AcDbArc
 50
304.2209569259
 51
304.7152132869
  0
ARC
  5
167
330
1F
100
AcDbEntity
  8
0
  6
Continuous
 62
     7
370
    25
100
AcDbCircle
 10
4.7082935392
 20
-2.8827132745
 30
0.0
 40
2.349999999999999
100
AcDbArc
 50
233.22103729
 51
236.8734428322
  0
ARC
  5
168
330
1F
100
AcDbEntity
  8
0
  6
Continuous
 62
     7
370
    25
100
AcDbCircle
 10
0.0
 20
0.0
 30
0.0
 40
5.9375
100
AcDbArc
 50
305.217416963
 51
305.6336468668
  0
ARC
  5
169
330
1F
100
AcDbEntity
  8
0
  6
Continuous
 62
     7
370
    25
100
AcDbCircle
 10
1.1787728115
 20
-5.3933809928
 30
0.0
 40
2.35
100
AcDbArc
 50
13.9776209976
 51
17.6300265398
  0
ARC
  5
16A
330
1F
100
AcDbEntity
  8
0
  6
Continuous
 62
     7
370
    25
100
AcDbCircle
 10
0.0
 20
0.0
 30
0.0
 40
5.796824999999998
100
AcDbArc
 50
306.1358505429
 51
306.6301069039
  0
ARC
  5
16B
330
1F
100
AcDbEntity
  8
0
  6
Continuous
 62
     7
370
    25
100
AcDbCircle
 10
4.8019900552
 20
-2.7237759425
 30
0.0
 40
2.349999999999999
100
AcDbArc
 50
235.135930907
 51
238.7883364492
  0
ARC
  5
16C
330
1F
100
AcDbEntity
  8
0
  6
Continuous
 62
     7
370
    25
100
AcDbCircle
 10
0.0
 20
0.0
 30
0.0
 40
5.9375
100
AcDbArc
 50
307.1323105801
 51
307.5485404838
  0
ARC
  5
16D
330
1F
100
AcDbEntity
  8
0
  6
Continuous
 62
     7
370
    25
100
AcDbCircle
 10
1.3583342439
 20
-5.3509804669
 30
0.0
 40
2.35
100
AcDbArc
 50
15.8925146146
 51
19.5449201568
  0
ARC
  5
16E
330
1F
100
AcDbEntity
  8
0
  6
Continuous
 62
     7
370
    25
100
AcDbCircle
 10
0.0
 20
0.0
 30
0.0
 40
5.796824999999998
100
AcDbArc
 50
308.05074416
 51
308.5450005209
  0
ARC
  5
16F
330
1F
100
AcDbEntity
  8
0
  6
Continuous
 62
     7
370
    25
100
AcDbCircle
 10
4.8903233602
 20
-2.5617965
 30
0.0
 40
2.35
100
AcDbArc
 50
237.050824524
 51
240.7032300662
  0
ARC
  5
170
330
1F
100
AcDbEntity
  8
0
  6
Continuous
 62
     7
370
    25
100
AcDbCircle
 10
0.0
 20
0.0
 30
0.0
 40
5.937500000000001
100
AcDbArc
 50
309.0472041971
 51
309.4634341008
  0
ARC
  5
171
330
1F
100
AcDbEntity
  8
0
  6
Continuous
 62
     7
370
    25
100
AcDbCircle
 10
1.5363785901
 20
-5.3026035778
 30
0.0
 40
2.35
100
AcDbArc
 50
17.8074082316
 51
21.4598137738
  0
ARC
  5
172
330
1F
100
AcDbEntity
  8
0
  6
Continuous
 62
     7
370
    25
100
AcDbCircle
 10
0.0
 20
0.0
 30
0.0
 40
5.796824999999998
100
AcDbArc
 50
309.965637777
 51
310.4598941379
  0
ARC
  5
173
330
1F
100
AcDbEntity
  8
0
  6
Continuous
 62
     7
370
    25
100
AcDbCircle
 10
4.9731947974
 20
-2.3969558572
 30
0.0
 40
2.35
100
AcDbArc
 50
238.9657181411
 51
242.6181236833
  0
ARC
  5
174
330
1F
100
AcDbEntity
  8
0
  6
Continuous
 62
     7
370
    25
100
AcDbCircle
 10
0.0
 20
0.0
 30
0.0
 40
5.9375
100
AcDbArc
 50
310.9620978141
 51
311.3783277178
  0
ARC
  5
175
330
1F
100
AcDbEntity
  8
0
  6
Continuous
 62
     7
370
    25
100
AcDbCircle
 10
1.7127069972
 20
-5.2483043563
 30
0.0
 40
2.35
100
AcDbArc
 50
19.7223018486
 51
23.3747073909
  0
ARC
  5
176
330
1F
100
AcDbEntity
  8
0
  6
Continuous
 62
     7
370
    25
100
AcDbCircle
 10
0.0
 20
0.0
 30
0.0
 40
5.796824999999998
100
AcDbArc
 50
311.880531394
 51
312.3747877549
  0
ARC
  5
177
330
1F
100
AcDbEntity
  8
0
  6
Continuous
 62
     7
370
    25
100
AcDbCircle
 10
5.05051181
 20
-2.2294381203
 30
0.0
 40
2.35
100
AcDbArc
 50
240.8806117581
 51
244.5330173003
  0
ARC
  5
178
330
1F
100
AcDbEntity
  8
0
  6
Continuous
 62
     7
370
    25
100
AcDbCircle
 10
0.0
 20
0.0
 30
0.0
 40
5.9375
100
AcDbArc
 50
312.8769914311
 51
313.2932213348
  0
ARC
  5
179
330
1F
100
AcDbEntity
  8
0
  6
Continuous
 62
     7
370
    25
100
AcDbCircle
 10
1.8871225289
 20
-5.1881434479
 30
0.0
 40
2.35
100
AcDbArc
 50
21.6371954657
 51
25.2896010079
  0
ARC
  5
17A
330
1F
100
AcDbEntity
  8
0
  6
Continuous
 62
     7
370
    25
100
AcDbCircle
 10
0.0
 20
0.0
 30
0.0
 40
5.796824999999998
100
AcDbArc
 50
313.795425011
 51
314.289681372
  0
ARC
  5
17B
330
1F
100
AcDbEntity
  8
0
  6
Continuous
 62
     7
370
    25
100
AcDbCircle
 10
5.1221880445
 20
-2.0594303852
 30
0.0
 40
2.35
100
AcDbArc
 50
242.7955053751
 51
246.4479109173
  0
ARC
  5
17C
330
1F
100
AcDbEntity
  8
0
  6
Continuous
 62
     7
370
    25
100
AcDbCircle
 10
0.0
 20
0.0
 30
0.0
 40
5.9375
100
AcDbArc
 50
314.7918850481
 51
315.2081149519
  0
ARC
  5
17D
330
1F
100
AcDbEntity
  8
0
  6
Continuous
 62
     7
370
    25
100
AcDbCircle
 10
2.0594303852
 20
-5.1221880445
 30
0.0
 40
2.35
100
AcDbArc
 50
23.5520890827
 51
27.2044946249
  0
ARC
  5
17E
330
1F
100
AcDbEntity
  8
0
  6
Continuous
 62
     7
370
    25
100
AcDbCircle
 10
0.0
 20
0.0
 30
0.0
 40
5.796824999999998
100
AcDbArc
 50
315.710318628
 51
316.204574989
  0
ARC
  5
17F
330
1F
100
AcDbEntity
  8
0
  6
Continuous
 62
     7
370
    25
100
AcDbCircle
 10
5.1881434479
 20
-1.8871225289
 30
0.0
 40
2.35
100
AcDbArc
 50
244.7103989921
 51
248.3628045343
  0
ARC
  5
180
330
1F
100
AcDbEntity
  8
0
  6
Continuous
 62
     7
370
    25
100
AcDbCircle
 10
0.0
 20
0.0
 30
0.0
 40
5.937499999999999
100
AcDbArc
 50
316.7067786652
 51
317.1230085689
  0
ARC
  5
181
330
1F
100
AcDbEntity
  8
0
  6
Continuous
 62
     7
370
    25
100
AcDbCircle
 10
2.2294381203
 20
-5.05051181
 30
0.0
 40
2.35
100
AcDbArc
 50
25.4669826997
 51
29.1193882419
  0
ARC
  5
182
330
1F
100
AcDbEntity
  8
0
  6
Continuous
 62
     7
370
    25
100
AcDbCircle
 10
0.0
 20
0.0
 30
0.0
 40
5.796824999999998
100
AcDbArc
 50
317.6252122451
 51
318.119468606
  0
ARC
  5
183
330
1F
100
AcDbEntity
  8
0
  6
Continuous
 62
     7
370
    25
100
AcDbCircle
 10
5.2483043563
 20
-1.7127069972
 30
0.0
 40
2.35
100
AcDbArc
 50
246.6252926091
 51
250.2776981514
  0
ARC
  5
184
330
1F
100
AcDbEntity
  8
0
  6
Continuous
 62
     7
370
    25
100
AcDbCircle
 10
0.0
 20
0.0
 30
0.0
 40
5.9375
100
AcDbArc
 50
318.6216722822
 51
319.0379021859
  0
ARC
  5
185
330
1F
100
AcDbEntity
  8
0
  6
Continuous
 62
     7
370
    25
100
AcDbCircle
 10
2.3969558572
 20
-4.9731947974
 30
0.0
 40
2.35
100
AcDbArc
 50
27.3818763167
 51
31.0342818589
  0
ARC
  5
186
330
1F
100
AcDbEntity
  8
0
  6
Continuous
 62
     7
370
    25
100
AcDbCircle
 10
0.0
 20
0.0
 30
0.0
 40
5.796824999999999
100
AcDbArc
 50
319.5401058621
 51
320.034362223
  0
ARC
  5
187
330
1F
100
AcDbEntity
  8
0
  6
Continuous
 62
     7
370
    25
100
AcDbCircle
 10
5.3026035778
 20
-1.5363785901
 30
0.0
 40
2.35
100
AcDbArc
 50
248.5401862262
 51
252.1925917684
  0
ARC
  5
188
330
1F
100
AcDbEntity
  8
0
  6
Continuous
 62
     7
370
    25
100
AcDbCircle
 10
0.0
 20
0.0
 30
0.0
 40
5.9375
100
AcDbArc
 50
320.5365658992
 51
320.9527958029
  0
ARC
  5
189
330
1F
100
AcDbEntity
  8
0
  6
Continuous
 62
     7
370
    25
100
AcDbCircle
 10
2.5617965
 20
-4.8903233602
 30
0.0
 40
2.35
100
AcDbArc
 50
29.2967699338
 51
32.949175476
  0
ARC
  5
18A
330
1F
100
AcDbEntity
  8
0
  6
Continuous
 62
     7
370
    25
100
AcDbCircle
 10
0.0
 20
0.0
 30
0.0
 40
5.796824999999999
100
AcDbArc
 50
321.4549994791
 51
321.94925584
  0
ARC
  5
18B
330
1F
100
AcDbEntity
  8
0
  6
Continuous
 62
     7
370
    25
100
AcDbCircle
 10
5.3509804669
 20
-1.3583342439
 30
0.0
 40
2.35
100
AcDbArc
 50
250.4550798432
 51
254.1074853854
  0
ARC
  5
18C
330
1F
100
AcDbEntity
  8
0
  6
Continuous
 62
     7
370
    25
100
AcDbCircle
 10
0.0
 20
0.0
 30
0.0
 40
5.9375
100
AcDbArc
 50
322.4514595162
 51
322.8676894199
  0
ARC
  5
18D
330
1F
100
AcDbEntity
  8
0
  6
Continuous
 62
     7
370
    25
100
AcDbCircle
 10
2.7237759425
 20
-4.8019900552
 30
0.0
 40
2.350000000000001
100
AcDbArc
 50
31.2116635508
 51
34.864069093
  0
ARC
  5
18E
330
1F
100
AcDbEntity
  8
0
  6
Continuous
 62
     7
370
    25
100
AcDbCircle
 10
0.0
 20
0.0
 30
0.0
 40
5.796824999999999
100
AcDbArc
 50
323.3698930961
 51
323.8641494571
  0
ARC
  5
18F
330
1F
100
AcDbEntity
  8
0
  6
Continuous
 62
     7
370
    25
100
AcDbCircle
 10
5.3933809928
 20
-1.1787728115
 30
0.0
 40
2.35
100
AcDbArc
 50
252.3699734602
 51
256.0223790024
  0
ARC
  5
190
330
1F
100
AcDbEntity
  8
0
  6
Continuous
 62
     7
370
    25
100
AcDbCircle
 10
0.0
 20
0.0
 30
0.0
 40
5.9375
100
AcDbArc
 50
324.3663531332
 51
324.782583037
  0
ARC
  5
191
330
1F
100
AcDbEntity
  8
0
  6
Continuous
 62
     7
370
    25
100
AcDbCircle
 10
2.8827132745
 20
-4.7082935392
 30
0.0
 40
2.350000000000001
100
AcDbArc
 50
33.1265571678
 51
36.77896271
  0
ARC
  5
192
330
1F
100
AcDbEntity
  8
0
  6
Continuous
 62
     7
370
    25
100
AcDbCircle
 10
0.0
 20
0.0
 30
0.0
 40
5.796824999999998
100
AcDbArc
 50
325.2847867131
 51
325.7790430741
  0
ARC
  5
193
330
1F
100
AcDbEntity
  8
0
  6
Continuous
 62
     7
370
    25
100
AcDbCircle
 10
5.4297577996
 20
-0.9978948402
 30
0.0
 40
2.35
100
AcDbArc
 50
254.2848670772
 51
257.9372726194
  0
ARC
  5
194
330
1F
100
AcDbEntity
  8
0
  6
Continuous
 62
     7
370
    25
100
AcDbCircle
 10
0.0
 20
0.0
 30
0.0
 40
5.937500000000001
100
AcDbArc
 50
326.2812467503
 51
326.697476654
  0
ARC
  5
195
330
1F
100
AcDbEntity
  8
0
  6
Continuous
 62
     7
370
    25
100
AcDbCircle
 10
3.0384309832
 20
-4.6093384596
 30
0.0
 40
2.35
100
AcDbArc
 50
35.0414507848
 51
38.693856327
  0
ARC
  5
196
330
1F
100
AcDbEntity
  8
0
  6
Continuous
 62
     7
370
    25
100
AcDbCircle
 10
0.0
 20
0.0
 30
0.0
 40
5.796824999999998
100
AcDbArc
 50
327.1996803302
 51
327.6939366911
  0
ARC
  5
197
330
1F
100
AcDbEntity
  8
0
  6
Continuous
 62
     7
370
    25
100
AcDbCircle
 10
5.4600702591
 20
-0.8159023475
 30
0.0
 40
2.35
100
AcDbArc
 50
256.1997606943
 51
259.8521662365
  0
ARC
  5
198
330
1F
100
AcDbEntity
  8
0
  6
Continuous
 62
     7
370
    25
100
AcDbCircle
 10
0.0
 20
0.0
 30
0.0
 40
5.9375
100
AcDbArc
 50
328.1961403673
 51
328.612370271
  0
ARC
  5
199
330
1F
100
AcDbEntity
  8
0
  6
Continuous
 62
     7
370
    25
100
AcDbCircle
 10
3.1907551518
 20
-4.5052353364
 30
0.0
 40
2.35
100
AcDbArc
 50
36.9563444018
 51
40.608749944
  0
ARC
  5
19A
330
1F
100
AcDbEntity
  8
0
  6
Continuous
 62
     7
370
    25
100
AcDbCircle
 10
0.0
 20
0.0
 30
0.0
 40
5.796824999999998
100
AcDbArc
 50
329.1145739472
 51
329.6088303081
  0
ARC
  5
19B
330
1F
100
AcDbEntity
  8
0
  6
Continuous
 62
     7
370
    25
100
AcDbCircle
 10
5.484284516
 20
-0.6329985958
 30
0.0
 40
2.35
100
AcDbArc
 50
258.1146543113
 51
261.7670598535
  0
ARC
  5
19C
330
1F
100
AcDbEntity
  8
0
  6
Continuous
 62
     7
370
    25
100
AcDbCircle
 10
0.0
 20
0.0
 30
0.0
 40
5.937500000000001
100
AcDbArc
 50
330.1110339843
 51
330.527263888
  0
ARC
  5
19D
330
1F
100
AcDbEntity
  8
0
  6
Continuous
 62
     7
370
    25
100
AcDbCircle
 10
3.3395156536
 20
-4.3961004395
 30
0.0
 40
2.35
100
AcDbArc
 50
38.8712380189
 51
42.5236435611
  0
ARC
  5
19E
330
1F
100
AcDbEntity
  8
0
  6
Continuous
 62
     7
370
    25
100
AcDbCircle
 10
0.0
 20
0.0
 30
0.0
 40
5.796824999999999
100
AcDbArc
 50
331.0294675642
 51
331.5237239252
  0
ARC
  5
19F
330
1F
100
AcDbEntity
  8
0
  6
Continuous
 62
     7
370
    25
100
AcDbCircle
 10
5.5023735261
 20
-0.4493878655
 30
0.0
 40
2.35
100
AcDbArc
 50
260.0295479283
 51
263.6819534705
  0
ARC
  5
1A0
330
1F
100
AcDbEntity
  8
0
  6
Continuous
 62
     7
370
    25
100
AcDbCircle
 10
0.0
 20
0.0
 30
0.0
 40
5.9375
100
AcDbArc
 50
332.0259276013
 51
332.442157505
  0
ARC
  5
1A1
330
1F
100
AcDbEntity
  8
0
  6
Continuous
 62
     7
370
    25
100
AcDbCircle
 10
3.484546342
 20
-4.2820556588
 30
0.0
 40
2.35
100
AcDbArc
 50
40.7861316359
 51
44.4385371781
  0
ARC
  5
1A2
330
1F
100
AcDbEntity
  8
0
  6
Continuous
 62
     7
370
    25
100
AcDbCircle
 10
0.0
 20
0.0
 30
0.0
 40
5.796824999999999
100
AcDbArc
 50
332.9443611812
 51
333.4386175422
  0
ARC
  5
1A3
330
1F
100
AcDbEntity
  8
0
  6
Continuous
 62
     7
370
    25
100
AcDbCircle
 10
5.5143170864
 20
-0.2652752261
 30
0.0
 40
2.349999999999999
100
AcDbArc
 50
261.9444415453
 51
265.5968470875
  0
ARC
  5
1A4
330
1F
100
AcDbEntity
  8
0
  6
Continuous
 62
     7
370
    25
100
AcDbCircle
 10
0.0
 20
0.0
 30
0.0
 40
5.937500000000001
100
AcDbArc
 50
333.9408212184
 51
334.3570511221
  0
ARC
  5
1A5
330
1F
100
AcDbEntity
  8
0
  6
Continuous
 62
     7
370
    25
100
AcDbCircle
 10
3.6256852364
 20
-4.1632283677
 30
0.0
 40
2.35
100
AcDbArc
 50
42.7010252529
 51
46.3534307951
  0
ARC
  5
1A6
330
1F
100
AcDbEntity
  8
0
  6
Continuous
 62
     7
370
    25
100
AcDbCircle
 10
0.0
 20
0.0
 30
0.0
 40
5.796824999999998
100
AcDbArc
 50
334.8592547983
 51
335.3535111592
  0
ARC
  5
1A7
330
1F
100
AcDbEntity
  8
0
  6
Continuous
 62
     7
370
    25
100
AcDbCircle
 10
5.5201018573
 20
-0.0808663081
 30
0.0
 40
2.349999999999999
100
AcDbArc
 50
263.8593351623
 51
267.5117407045
  0
ARC
  5
1A8
330
1F
100
AcDbEntity
  8
0
  6
Continuous
 62
     7
370
    25
100
AcDbCircle
 10
0.0
 20
0.0
 30
0.0
 40
5.9375
100
AcDbArc
 50
335.8557148354
 51
336.2719447391
  0
ARC
  5
1A9
330
1F
100
AcDbEntity
  8
0
  6
Continuous
 62
     7
370
    25
100
AcDbCircle
 10
3.7627747024
 20
-4.0397512812
 30
0.0
 40
2.35
100
AcDbArc
 50
44.6159188699
 51
48.2683244121
  0
ARC
  5
1AA
330
1F
100
AcDbEntity
  8
0
  6
Continuous
 62
     7
370
    25
100
AcDbCircle
 10
0.0
 20
0.0
 30
0.0
 40
5.796824999999998
100
AcDbArc
 50
336.7741484153
 51
337.2684047762
  0
ARC
  5
1AB
330
1F
100
AcDbEntity
  8
0
  6
Continuous
 62
     7
370
    25
100
AcDbCircle
 10
5.519721378
 20
0.1036329272
 30
0.0
 40
2.349999999999999
100
AcDbArc
 50
265.7742287794
 51
269.4266343216
  0
ARC
  5
1AC
330
1F
100
AcDbEntity
  8
0
  6
Continuous
 62
     7
370
    25
100
AcDbCircle
 10
0.0
 20
0.0
 30
0.0
 40
5.937500000000001
100
AcDbArc
 50
337.7706084524
 51
338.1868383561
  0
ARC
  5
1AD
330
1F
100
AcDbEntity
  8
0
  6
Continuous
 62
     7
370
    25
100
AcDbCircle
 10
3.8956616287
 20
-3.9117623074
 30
0.0
 40
2.35
100
AcDbArc
 50
46.5308124869
 51
50.1832180292
  0
ARC
  5
1AE
330
1F
100
AcDbEntity
  8
0
  6
Continuous
 62
     7
370
    25
100
AcDbCircle
 10
0.0
 20
0.0
 30
0.0
 40
5.796824999999998
100
AcDbArc
 50
338.6890420323
 51
339.1832983932
  0
ARC
  5
1AF
330
1F
100
AcDbEntity
  8
0
  6
Continuous
 62
     7
370
    25
100
AcDbCircle
 10
5.5131760736
 20
0.2880164177
 30
0.0
 40
2.35
100
AcDbArc
 50
267.6891223964
 51
271.3415279386
  0
ARC
  5
1B0
330
1F
100
AcDbEntity
  8
0
  6
Continuous
 62
     7
370
    25
100
AcDbCircle
 10
0.0
 20
0.0
 30
0.0
 40
5.937500000000001
100
AcDbArc
 50
339.6855020694
 51
340.1017319731
  0
ARC
  5
1B1
330
1F
100
AcDbEntity
  8
0
  6
Continuous
 62
     7
370
    25
100
AcDbCircle
 10
4.0241975975
 20
-3.7794043937
 30
0.0
 40
2.35
100
AcDbArc
 50
48.445706104
 51
52.0981116462
  0
ARC
  5
1B2
330
1F
100
AcDbEntity
  8
0
  6
Continuous
 62
     7
370
    25
100
AcDbCircle
 10
0.0
 20
0.0
 30
0.0
 40
5.796824999999998
100
AcDbArc
 50
340.6039356493
 51
341.0981920103
  0
ARC
  5
1B3
330
1F
100
AcDbEntity
  8
0
  6
Continuous
 62
     7
370
    25
100
AcDbCircle
 10
5.5004732541
 20
0.4720782307
 30
0.0
 40
2.35
100
AcDbArc
 50
269.6040160134
 51
273.2564215556
  0
ARC
  5
1B4
330
1F
100
AcDbEntity
  8
0
  6
Continuous
 62
     7
370
    25
100
AcDbCircle
 10
0.0
 20
0.0
 30
0.0
 40
5.9375
100
AcDbArc
 50
341.6003956864
 51
342.0166255902
  0
ARC
  5
1B5
330
1F
100
AcDbEntity
  8
0
  6
Continuous
 62
     7
370
    25
100
AcDbCircle
 10
4.1482390506
 20
-3.642825367
 30
0.0
 40
2.35
100
AcDbArc
 50
50.360599721
 51
54.0130052632
  0
ARC
  5
1B6
330
1F
100
AcDbEntity
  8
0
  6
Continuous
 62
     7
370
    25
100
AcDbCircle
 10
0.0
 20
0.0
 30
0.0
 40
5.796824999999999
100
AcDbArc
 50
342.5188292663
 51
343.0130856273
  0
ARC
  5
1B7
330
1F
100
AcDbEntity
  8
0
  6
Continuous
 62
     7
370
    25
100
AcDbCircle
 10
5.4816271071
 20
0.6556127924
 30
0.0
 40
2.349999999999999
100
AcDbArc
 50
271.5189096304
 51
275.1713151726
  0
ARC
  5
1B8
330
1F
100
AcDbEntity
  8
0
  6
Continuous
 62
     7
370
    25
100
AcDbCircle
 10
0.0
 20
0.0
 30
0.0
 40
5.937499999999999
100
AcDbArc
 50
343.5152893035
 51
343.9315192072
  0
ARC
  5
1B9
330
1F
100
AcDbEntity
  8
0
  6
Continuous
 62
     7
370
    25
100
AcDbCircle
 10
4.2676474493
 20
-3.5021777687
 30
0.0
 40
2.35
100
AcDbArc
 50
52.275493338
 51
55.9278988802
  0
ARC
  5
1BA
330
1F
100
AcDbEntity
  8
0
  6
Continuous
 62
     7
370
    25
100
AcDbCircle
 10
0.0
 20
0.0
 30
0.0
 40
5.796824999999999
100
AcDbArc
 50
344.4337228834
 51
344.9279792443
  0
ARC
  5
1BB
330
1F
100
AcDbEntity
  8
0
  6
Continuous
 62
     7
370
    25
100
AcDbCircle
 10
5.4566586813
 20
0.8384151181
 30
0.0
 40
2.35
100
AcDbArc
 50
273.4338032474
 51
277.0862087897
  0
ARC
  5
1BC
330
1F
100
AcDbEntity
  8
0
  6
Continuous
 62
     7
370
    25
100
AcDbCircle
 10
0.0
 20
0.0
 30
0.0
 40
5.937500000000001
100
AcDbArc
 50
345.4301829205
 51
345.8464128242
  0
ARC
  5
1BD
330
1F
100
AcDbEntity
  8
0
  6
Continuous
 62
     7
370
    25
100
AcDbCircle
 10
4.3822894298
 20
-3.3576186842
 30
0.0
 40
2.35
100
AcDbArc
 50
54.190386955
 51
57.8427924972
  0
ARC
  5
1BE
330
1F
100
AcDbEntity
  8
0
  6
Continuous
 62
     7
370
    25
100
AcDbCircle
 10
0.0
 20
0.0
 30
0.0
 40
5.796824999999999
100
AcDbArc
 50
346.3486165004
 51
346.8428728613
  0
ARC
  5
1BF
330
1F
100
AcDbEntity
  8
0
  6
Continuous
 62
     7
370
    25
100
AcDbCircle
 10
5.4255958633
 20
1.0202810411
 30
0.0
 40
2.35
100
AcDbArc
 50
275.3486968645
 51
279.0011024067
  0
ARC
  5
1C0
330
1F
100
AcDbEntity
  8
0
  6
Continuous
 62
     7
370
    25
100
AcDbCircle
 10
0.0
 20
0.0
 30
0.0
 40
5.937499999999999
100
AcDbArc
 50
347.3450765375
 51
347.7613064412
  0
ARC
  5
1C1
330
1F
100
AcDbEntity
  8
0
  6
Continuous
 62
     7
370
    25
100
AcDbCircle
 10
4.4920369516
 20
-3.2093095676
 30
0.0
 40
2.35
100
AcDbArc
 50
56.105280572
 51
59.7576861143
  0
ARC
  5
1C2
330
1F
100
AcDbEntity
  8
0
  6
Continuous
 62
     7
370
    25
100
AcDbCircle
 10
0.0
 20
0.0
 30
0.0
 40
5.796824999999999
100
AcDbArc
 50
348.2635101174
 51
348.7577664783
  0
ARC
  5
1C3
330
1F
100
AcDbEntity
  8
0
  6
Continuous
 62
     7
370
    25
100
AcDbCircle
 10
5.3884733463
 20
1.2010074402
 30
0.0
 40
2.35
100
AcDbArc
 50
277.2635904815
 51
280.9159960237
  0
ARC
  5
1C4
330
1F
100
AcDbEntity
  8
0
  6
Continuous
 62
     7
370
    25
100
AcDbCircle
 10
0.0
 20
0.0
 30
0.0
 40
5.9375
100
AcDbArc
 50
349.2599701545
 51
349.6762000582
  0
ARC
  5
1C5
330
1F
100
AcDbEntity
  8
0
  6
Continuous
 62
     7
370
    25
100
AcDbCircle
 10
4.5967674406
 20
-3.0574160613
 30
0.0
 40
2.35
100
AcDbArc
 50
58.0201741891
 51
61.6725797313
  0
ARC
  5
1C6
330
1F
100
AcDbEntity
  8
0
  6
Continuous
 62
     7
370
    25
100
AcDbCircle
 10
0.0
 20
0.0
 30
0.0
 40
5.796824999999999
100
AcDbArc
 50
350.1784037344
 51
350.6726600954
  0
ARC
  5
1C7
330
1F
100
AcDbEntity
  8
0
  6
Continuous
 62
     7
370
    25
100
AcDbCircle
 10
5.3453325913
 20
1.3803924671
 30
0.0
 40
2.35
100
AcDbArc
 50
279.1784840985
 51
282.8308896407
  0
ARC
  5
1C8
330
1F
100
AcDbEntity
  8
0
  6
Continuous
 62
     7
370
    25
100
AcDbCircle
 10
0.0
 20
0.0
 30
0.0
 40
5.9375
100
AcDbArc
 50
351.1748637715
 51
351.5910936753
  0
ARC
  5
1C9
330
1F
100
AcDbEntity
  8
0
  6
Continuous
 62
     7
370
    25
100
AcDbCircle
 10
4.6963639263
 20
-2.9021078109
 30
0.0
 40
2.35
100
AcDbArc
 50
59.9350678061
 51
63.5874733483
  0
ARC
  5
1CA
330
1F
100
AcDbEntity
  8
0
  6
Continuous
 62
     7
370
    25
100
AcDbCircle
 10
0.0
 20
0.0
 30
0.0
 40
5.796824999999999
100
AcDbArc
 50
352.0932973514
 51
352.5875537124
  0
ARC
  5
1CB
330
1F
100
AcDbEntity
  8
0
  6
Continuous
 62
     7
370
    25
100
AcDbCircle
 10
5.2962217812
 20
1.5582357715
 30
0.0
 40
2.349999999999999
100
AcDbArc
 50
281.0933777155
 51
284.7457832577
  0
ARC
  5
1CC
330
1F
100
AcDbEntity
  8
0
  6
Continuous
 62
     7
370
    25
100
AcDbCircle
 10
0.0
 20
0.0
 30
0.0
 40
5.937499999999999
100
AcDbArc
 50
353.0897573886
 51
353.5059872923
  0
ARC
  5
1CD
330
1F
100
AcDbEntity
  8
0
  6
Continuous
 62
     7
370
    25
100
AcDbCircle
 10
4.7907151722
 20
-2.7435582761
 30
0.0
 40
2.35
100
AcDbArc
 50
61.8499614231
 51
65.5023669653
  0
ARC
  5
1CE
330
1F
100
AcDbEntity
  8
0
  6
Continuous
 62
     7
370
    25
100
AcDbCircle
 10
0.0
 20
0.0
 30
0.0
 40
5.796824999999999
100
AcDbArc
 50
354.0081909685
 51
354.5024473294
  0
ARC
  5
1CF
330
1F
100
AcDbEntity
  8
0
  6
Continuous
 62
     7
370
    25
100
AcDbCircle
 10
5.2411957664
 20
1.7343387251
 30
0.0
 40
2.349999999999999
100
AcDbArc
 50
283.0082713325
 51
286.6606768748
  0
ARC
  5
1D0
330
1F
100
AcDbEntity
  8
0
  6
Continuous
 62
     7
370
    25
100
AcDbCircle
 10
0.0
 20
0.0
 30
0.0
 40
5.937499999999999
100
AcDbArc
 50
355.0046510056
 51
355.4208809093
  0
ARC
  5
1D1
330
1F
100
AcDbEntity
  8
0
  6
Continuous
 62
     7
370
    25
100
AcDbCircle
 10
4.8797157998
 20
-2.5819445363
 30
0.0
 40
2.35
100
AcDbArc
 50
63.7648550401
 51
67.4172605823
  0
ARC
  5
1D2
330
1F
100
AcDbEntity
  8
0
  6
Continuous
 62
     7
370
    25
100
AcDbCircle
 10
0.0
 20
0.0
 30
0.0
 40
5.796824999999999
100
AcDbArc
 50
355.9230845855
 51
356.4173409464
  0
ARC
  5
1D3
330
1F
100
AcDbEntity
  8
0
  6
Continuous
 62
     7
370
    25
100
AcDbCircle
 10
5.1803160039
 20
1.9085046435
 30
0.0
 40
2.35
100
AcDbArc
 50
284.9231649496
 51
288.5755704918
  0
ARC
  5
1D4
330
1F
100
AcDbEntity
  8
0
  6
Continuous
 62
     7
370
    25
100
AcDbCircle
 10
0.0
 20
0.0
 30
0.0
 40
5.937500000000001
100
AcDbArc
 50
356.9195446226
 51
357.3357745263
  0
ARC
  5
1D5
330
1F
100
AcDbEntity
  8
0
  6
Continuous
 62
     7
370
    25
100
AcDbCircle
 10
4.9632664068
 20
-2.4174470935
 30
0.0
 40
2.35
100
AcDbArc
 50
65.6797486572
 51
69.3321541994
  0
ARC
  5
1D6
330
1F
100
AcDbEntity
  8
0
  6
Continuous
 62
     7
370
    25
100
AcDbCircle
 10
0.0
 20
0.0
 30
0.0
 40
5.796824999999999
100
AcDbArc
 50
357.8379782025
 51
358.3322345635
  0
ARC
  5
1D7
330
1F
100
AcDbEntity
  8
0
  6
Continuous
 62
     7
370
    25
100
AcDbCircle
 10
5.1136504888
 20
2.0805390055
 30
0.0
 40
2.349999999999999
100
AcDbArc
 50
286.8380585666
 51
290.4904641088
  0
ARC
  5
1D8
330
1F
100
AcDbEntity
  8
0
  6
Continuous
 62
     7
370
    25
100
AcDbCircle
 10
0.0
 20
0.0
 30
0.0
 40
5.9375
100
AcDbArc
 50
358.8344382396
 51
359.2506681433
  0
ARC
  5
1D9
330
1F
100
AcDbEntity
  8
0
  6
Continuous
 62
     7
370
    25
100
AcDbCircle
 10
5.0412736779
 20
-2.2502496705
 30
0.0
 40
2.35
100
AcDbArc
 50
67.5946422742
 51
71.2470478164
  0
ARC
  5
1DA
330
1F
100
AcDbEntity
  8
0
  6
Continuous
 62
     7
370
    25
100
AcDbCircle
 10
0.0
 20
0.0
 30
0.0
 40
5.796824999999998
100
AcDbArc
 50
359.7528718195
 51
0.2471281805
  0
ARC
  5
1DB
330
1F
100
AcDbEntity
  8
0
  6
Continuous
 62
     7
370
    25
100
AcDbCircle
 10
5.0412736779
 20
2.2502496705
 30
0.0
 40
2.35
100
AcDbArc
 50
288.7529521836
 51
292.4053577258
  0
ARC
  5
1DC
330
1F
100
AcDbEntity
  8
0
  6
Continuous
 62
     7
370
    25
100
AcDbCircle
 10
0.0
 20
0.0
 30
0.0
 40
5.937500000000001
100
AcDbArc
 50
0.7493318567
 51
1.1655617604
  0
ARC
  5
1DD
330
1F
100
AcDbEntity
  8
0
  6
Continuous
 62
     7
370
    25
100
AcDbCircle
 10
5.1136504888
 20
-2.0805390055
 30
0.0
 40
2.35
100
AcDbArc
 50
69.5095358912
 51
73.1619414334
  0
ARC
  5
1DE
330
1F
100
AcDbEntity
  8
0
  6
Continuous
 62
     7
370
    25
100
AcDbCircle
 10
0.0
 20
0.0
 30
0.0
 40
5.796824999999999
100
AcDbArc
 50
1.6677654365
 51
2.1620217975
  0
ARC
  5
1DF
330
1F
100
AcDbEntity
  8
0
  6
Continuous
 62
     7
370
    25
100
AcDbCircle
 10
4.9632664068
 20
2.4174470935
 30
0.0
 40
2.349999999999999
100
AcDbArc
 50
290.6678458006
 51
294.3202513428
  0
ARC
  5
1E0
330
1F
100
AcDbEntity
  8
0
  6
Continuous
 62
     7
370
    25
100
AcDbCircle
 10
0.0
 20
0.0
 30
0.0
 40
5.937500000000001
100
AcDbArc
 50
2.6642254737
 51
3.0804553774
  0
ARC
  5
1E1
330
1F
100
AcDbEntity
  8
0
  6
Continuous
 62
     7
370
    25
100
AcDbCircle
 10
5.1803160039
 20
-1.9085046435
 30
0.0
 40
2.35
100
AcDbArc
 50
71.4244295082
 51
75.0768350504
  0
ARC
  5
1E2
330
1F
100
AcDbEntity
  8
0
  6
Continuous
 62
     7
370
    25
100
AcDbCircle
 10
0.0
 20
0.0
 30
0.0
 40
5.796824999999999
100
AcDbArc
 50
3.5826590536
 51
4.0769154145
  0
ARC
  5
1E3
330
1F
100
AcDbEntity
  8
0
  6
Continuous
 62
     7
370
    25
100
AcDbCircle
 10
4.8797157998
 20
2.5819445363
 30
0.0
 40
2.349999999999999
100
AcDbArc
 50
292.5827394177
 51
296.2351449599
  0
ARC
  5
1E4
330
1F
100
AcDbEntity
  8
0
  6
Continuous
 62
     7
370
    25
100
AcDbCircle
 10
0.0
 20
0.0
 30
0.0
 40
5.937500000000001
100
AcDbArc
 50
4.5791190907
 51
4.9953489944
  0
ARC
  5
1E5
330
1F
100
AcDbEntity
  8
0
  6
Continuous
 62
     7
370
    25
100
AcDbCircle
 10
5.2411957664
 20
-1.7343387251
 30
0.0
 40
2.35
100
AcDbArc
 50
73.3393231252
 51
76.9917286675
  0
ARC
  5
1E6
330
1F
100
AcDbEntity
  8
0
  6
Continuous
 62
     7
370
    25
100
AcDbCircle
 10
0.0
 20
0.0
 30
0.0
 40
5.796824999999999
100
AcDbArc
 50
5.4975526706
 51
5.9918090315
  0
ARC
  5
1E7
330
1F
100
AcDbEntity
  8
0
  6
Continuous
 62
     7
370
    25
100
AcDbCircle
 10
4.7907151722
 20
2.7435582761
 30
0.0
 40
2.35
100
AcDbArc
 50
294.4976330347
 51
298.1500385769
  0
ARC
  5
1E8
330
1F
100
AcDbEntity
  8
0
  6
Continuous
 62
     7
370
    25
100
AcDbCircle
 10
0.0
 20
0.0
 30
0.0
 40
5.937499999999999
100
AcDbArc
 50
6.4940127077
 51
6.9102426114
  0
ARC
  5
1E9
330
1F
100
AcDbEntity
  8
0
  6
Continuous
 62
     7
370
    25
100
AcDbCircle
 10
5.2962217812
 20
-1.5582357715
 30
0.0
 40
2.35
100
AcDbArc
 50
75.2542167423
 51
78.9066222845
  0
ARC
  5
1EA
330
1F
100
AcDbEntity
  8
0
  6
Continuous
 62
     7
370
    25
100
AcDbCircle
 10
0.0
 20
0.0
 30
0.0
 40
5.796824999999999
100
AcDbArc
 50
7.4124462876
 51
7.9067026486
  0
ARC
  5
1EB
330
1F
100
AcDbEntity
  8
0
  6
Continuous
 62
     7
370
    25
100
AcDbCircle
 10
4.6963639263
 20
2.9021078109
 30
0.0
 40
2.349999999999999
100
AcDbArc
 50
296.4125266517
 51
300.0649321939
  0
ARC
  5
1EC
330
1F
100
AcDbEntity
  8
0
  6
Continuous
 62
     7
370
    25
100
AcDbCircle
 10
0.0
 20
0.0
 30
0.0
 40
5.937500000000001
100
AcDbArc
 50
8.4089063247
 51
8.8251362285
  0
ARC
  5
1ED
330
1F
100
AcDbEntity
  8
0
  6
Continuous
 62
     7
370
    25
100
AcDbCircle
 10
5.3453325913
 20
-1.3803924671
 30
0.0
 40
2.35
100
AcDbArc
 50
77.1691103593
 51
80.8215159015
  0
ARC
  5
1EE
330
1F
100
AcDbEntity
  8
0
  6
Continuous
 62
     7
370
    25
100
AcDbCircle
 10
0.0
 20
0.0
 30
0.0
 40
5.796825
100
AcDbArc
 50
9.3273399046
 51
9.8215962656
  0
ARC
  5
1EF
330
1F
100
AcDbEntity
  8
0
  6
Continuous
 62
     7
370
    25
100
AcDbCircle
 10
4.5967674406
 20
3.0574160613
 30
0.0
 40
2.349999999999999
100
AcDbArc
 50
298.3274202687
 51
301.9798258109
  0
ARC
  5
1F0
330
1F
100
AcDbEntity
  8
0
  6
Continuous
 62
     7
370
    25
100
AcDbCircle
 10
0.0
 20
0.0
 30
0.0
 40
5.9375
100
AcDbArc
 50
10.3237999418
 51
10.7400298455
  0
ARC
  5
1F1
330
1F
100
AcDbEntity
  8
0
  6
Continuous
 62
     7
370
    25
100
AcDbCircle
 10
5.3884733463
 20
-1.2010074402
 30
0.0
 40
2.35
100
AcDbArc
 50
79.0840039763
 51
82.7364095185
  0
ARC
  5
1F2
330
1F
100
AcDbEntity
  8
0
  6
Continuous
 62
     7
370
    25
100
AcDbCircle
 10
0.0
 20
0.0
 30
0.0
 40
5.796824999999999
100
AcDbArc
 50
11.2422335217
 51
11.7364898826
  0
ARC
  5
1F3
330
1F
100
AcDbEntity
  8
0
  6
Continuous
 62
     7
370
    25
100
AcDbCircle
 10
4.4920369516
 20
3.2093095676
 30
0.0
 40
2.35
100
AcDbArc
 50
300.2423138857
 51
303.894719428
  0
ARC
  5
1F4
330
1F
100
AcDbEntity
  8
0
  6
Continuous
 62
     7
370
    25
100
AcDbCircle
 10
0.0
 20
0.0
 30
0.0
 40
5.937500000000001
100
AcDbArc
 50
12.2386935588
 51
12.6549234625
  0
ARC
  5
1F5
330
1F
100
AcDbEntity
  8
0
  6
Continuous
 62
     7
370
    25
100
AcDbCircle
 10
5.4255958633
 20
-1.0202810411
 30
0.0
 40
2.35
100
AcDbArc
 50
80.9988975933
 51
84.6513031355
  0
ARC
  5
1F6
330
1F
100
AcDbEntity
  8
0
  6
Continuous
 62
     7
370
    25
100
AcDbCircle
 10
0.0
 20
0.0
 30
0.0
 40
5.796824999999999
100
AcDbArc
 50
13.1571271387
 51
13.6513834996
  0
ARC
  5
1F7
330
1F
100
AcDbEntity
  8
0
  6
Continuous
 62
     7
370
    25
100
AcDbCircle
 10
4.3822894298
 20
3.3576186842
 30
0.0
 40
2.35
100
AcDbArc
 50
302.1572075028
 51
305.809613045
  0
ARC
  5
1F8
330
1F
100
AcDbEntity
  8
0
  6
Continuous
 62
     7
370
    25
100
AcDbCircle
 10
0.0
 20
0.0
 30
0.0
 40
5.9375
100
AcDbArc
 50
14.1535871758
 51
14.5698170795
  0
ARC
  5
1F9
330
1F
100
AcDbEntity
  8
0
  6
Continuous
 62
     7
370
    25
100
AcDbCircle
 10
5.4566586813
 20
-0.8384151181
 30
0.0
 40
2.35
100
AcDbArc
 50
82.9137912103
 51
86.5661967526
  0
ARC
  5
1FA
330
1F
100
AcDbEntity
  8
0
  6
Continuous
 62
     7
370
    25
100
AcDbCircle
 10
0.0
 20
0.0
 30
0.0
 40
5.796824999999999
100
AcDbArc
 50
15.0720207557
 51
15.5662771166
  0
ARC
  5
1FB
330
1F
100
AcDbEntity
  8
0
  6
Continuous
 62
     7
370
    25
100
AcDbCircle
 10
4.2676474493
 20
3.5021777687
 30
0.0
 40
2.35
100
AcDbArc
 50
304.0721011198
 51
307.724506662
  0
ARC
  5
1FC
330
1F
100
AcDbEntity
  8
0
  6
Continuous
 62
     7
370
    25
100
AcDbCircle
 10
0.0
 20
0.0
 30
0.0
 40
5.937500000000001
100
AcDbArc
 50
16.0684807928
 51
16.4847106965
  0
ARC
  5
1FD
330
1F
100
AcDbEntity
  8
0
  6
Continuous
 62
     7
370
    25
100
AcDbCircle
 10
5.4816271071
 20
-0.6556127924
 30
0.0
 40
2.35
100
AcDbArc
 50
84.8286848274
 51
88.4810903696
  0
ARC
  5
1FE
330
1F
100
AcDbEntity
  8
0
  6
Continuous
 62
     7
370
    25
100
AcDbCircle
 10
0.0
 20
0.0
 30
0.0
 40
5.796825
100
AcDbArc
 50
16.9869143727
 51
17.4811707337
  0
ARC
  5
1FF
330
1F
100
AcDbEntity
  8
0
  6
Continuous
 62
     7
370
    25
100
AcDbCircle
 10
4.1482390506
 20
3.642825367
 30
0.0
 40
2.35
100
AcDbArc
 50
305.9869947368
 51
309.639400279
  0
ARC
  5
200
330
1F
100
AcDbEntity
  8
0
  6
Continuous
 62
     7
370
    25
100
AcDbCircle
 10
0.0
 20
0.0
 30
0.0
 40
5.937500000000001
100
AcDbArc
 50
17.9833744098
 51
18.3996043136
  0
ARC
  5
201
330
1F
100
AcDbEntity
  8
0
  6
Continuous
 62
     7
370
    25
100
AcDbCircle
 10
5.5004732541
 20
-0.4720782307
 30
0.0
 40
2.350000000000001
100
AcDbArc
 50
86.7435784444
 51
90.3959839866
  0
ARC
  5
202
330
1F
100
AcDbEntity
  8
0
  6
Continuous
 62
     7
370
    25
100
AcDbCircle
 10
0.0
 20
0.0
 30
0.0
 40
5.796824999999999
100
AcDbArc
 50
18.9018079897
 51
19.3960643507
  0
ARC
  5
203
330
1F
100
AcDbEntity
  8
0
  6
Continuous
 62
     7
370
    25
100
AcDbCircle
 10
4.0241975975
 20
3.7794043937
 30
0.0
 40
2.35
100
AcDbArc
 50
307.9018883538
 51
311.554293896
  0
ARC
  5
204
330
1F
100
AcDbEntity
  8
0
  6
Continuous
 62
     7
370
    25
100
AcDbCircle
 10
0.0
 20
0.0
 30
0.0
 40
5.937500000000001
100
AcDbArc
 50
19.8982680269
 51
20.3144979306
  0
ARC
  5
205
330
1F
100
AcDbEntity
  8
0
  6
Continuous
 62
     7
370
    25
100
AcDbCircle
 10
5.5131760736
 20
-0.2880164177
 30
0.0
 40
2.35
100
AcDbArc
 50
88.6584720614
 51
92.3108776036
  0
ARC
  5
206
330
1F
100
AcDbEntity
  8
0
  6
Continuous
 62
     7
370
    25
100
AcDbCircle
 10
0.0
 20
0.0
 30
0.0
 40
5.796824999999999
100
AcDbArc
 50
20.8167016068
 51
21.3109579677
  0
ARC
  5
207
330
1F
100
AcDbEntity
  8
0
  6
Continuous
 62
     7
370
    25
100
AcDbCircle
 10
3.8956616287
 20
3.9117623074
 30
0.0
 40
2.349999999999999
100
AcDbArc
 50
309.8167819708
 51
313.4691875131
  0
ARC
  5
208
330
1F
100
AcDbEntity
  8
0
  6
Continuous
 62
     7
370
    25
100
AcDbCircle
 10
0.0
 20
0.0
 30
0.0
 40
5.9375
100
AcDbArc
 50
21.8131616439
 51
22.2293915476
  0
ARC
  5
209
330
1F
100
AcDbEntity
  8
0
  6
Continuous
 62
     7
370
    25
100
AcDbCircle
 10
5.519721378
 20
-0.1036329272
 30
0.0
 40
2.35
100
AcDbArc
 50
90.5733656784
 51
94.2257712206
  0
ARC
  5
20A
330
1F
100
AcDbEntity
  8
0
  6
Continuous
 62
     7
370
    25
100
AcDbCircle
 10
0.0
 20
0.0
 30
0.0
 40
5.796824999999999
100
AcDbArc
 50
22.7315952238
 51
23.2258515847
  0
ARC
  5
20B
330
1F
100
AcDbEntity
  8
0
  6
Continuous
 62
     7
370
    25
100
AcDbCircle
 10
3.7627747024
 20
4.0397512812
 30
0.0
 40
2.35
100
AcDbArc
 50
311.7316755879
 51
315.3840811301
  0
ARC
  5
20C
330
1F
100
AcDbEntity
  8
0
  6
Continuous
 62
     7
370
    25
100
AcDbCircle
 10
0.0
 20
0.0
 30
0.0
 40
5.937499999999999
100
AcDbArc
 50
23.7280552609
 51
24.1442851646
  0
ARC
  5
20D
330
1F
100
AcDbEntity
  8
0
  6
Continuous
 62
     7
370
    25
100
AcDbCircle
 10
5.5201018573
 20
0.0808663081
 30
0.0
 40
2.35
100
AcDbArc
 50
92.4882592955
 51
96.1406648377
  0
ARC
  5
20E
330
1F
100
AcDbEntity
  8
0
  6
Continuous
 62
     7
370
    25
100
AcDbCircle
 10
0.0
 20
0.0
 30
0.0
 40
5.796825
100
AcDbArc
 50
24.6464888408
 51
25.1407452017
  0
ARC
  5
20F
330
1F
100
AcDbEntity
  8
0
  6
Continuous
 62
     7
370
    25
100
AcDbCircle
 10
3.6256852364
 20
4.1632283677
 30
0.0
 40
2.35
100
AcDbArc
 50
313.6465692049
 51
317.2989747471
  0
ARC
  5
210
330
1F
100
AcDbEntity
  8
0
  6
Continuous
 62
     7
370
    25
100
AcDbCircle
 10
0.0
 20
0.0
 30
0.0
 40
5.9375
100
AcDbArc
 50
25.6429488779
 51
26.0591787816
  0
ARC
  5
211
330
1F
100
AcDbEntity
  8
0
  6
Continuous
 62
     7
370
    25
100
AcDbCircle
 10
5.5143170864
 20
0.2652752261
 30
0.0
 40
2.35
100
AcDbArc
 50
94.4031529125
 51
98.0555584547
  0
ARC
  5
212
330
1F
100
AcDbEntity
  8
0
  6
Continuous
 62
     7
370
    25
100
AcDbCircle
 10
0.0
 20
0.0
 30
0.0
 40
5.796824999999999
100
AcDbArc
 50
26.5613824578
 51
27.0556388188
  0
ARC
  5
213
330
1F
100
AcDbEntity
  8
0
  6
Continuous
 62
     7
370
    25
100
AcDbCircle
 10
3.484546342
 20
4.2820556588
 30
0.0
 40
2.349999999999999
100
AcDbArc
 50
315.5614628219
 51
319.2138683641
  0
ARC
  5
214
330
1F
100
AcDbEntity
  8
0
  6
Continuous
 62
     7
370
    25
100
AcDbCircle
 10
0.0
 20
0.0
 30
0.0
 40
5.9375
100
AcDbArc
 50
27.557842495
 51
27.9740723987
  0
ARC
  5
215
330
1F
100
AcDbEntity
  8
0
  6
Continuous
 62
     7
370
    25
100
AcDbCircle
 10
5.5023735261
 20
0.4493878655
 30
0.0
 40
2.35
100
AcDbArc
 50
96.3180465295
 51
99.9704520717
  0
ARC
  5
216
330
1F
100
AcDbEntity
  8
0
  6
Continuous
 62
     7
370
    25
100
AcDbCircle
 10
0.0
 20
0.0
 30
0.0
 40
5.796824999999999
100
AcDbArc
 50
28.4762760748
 51
28.9705324358
  0
ARC
  5
217
330
1F
100
AcDbEntity
  8
0
  6
Continuous
 62
     7
370
    25
100
AcDbCircle
 10
3.3395156536
 20
4.3961004395
 30
0.0
 40
2.349999999999999
100
AcDbArc
 50
317.4763564389
 51
321.1287619811
  0
ARC
  5
218
330
1F
100
AcDbEntity
  8
0
  6
Continuous
 62
     7
370
    25
100
AcDbCircle
 10
0.0
 20
0.0
 30
0.0
 40
5.9375
100
AcDbArc
 50
29.472736112
 51
29.8889660157
  0
ARC
  5
219
330
1F
100
AcDbEntity
  8
0
  6
Continuous
 62
     7
370
    25
100
AcDbCircle
 10
5.484284516
 20
0.6329985958
 30
0.0
 40
2.350000000000001
100
AcDbArc
 50
98.2329401465
 51
101.8853456887
  0
ARC
  5
21A
330
1F
100
AcDbEntity
  8
0
  6
Continuous
 62
     7
370
    25
100
AcDbCircle
 10
0.0
 20
0.0
 30
0.0
 40
5.796824999999999
100
AcDbArc
 50
30.3911696919
 51
30.8854260528
  0
ARC
  5
21B
330
1F
100
AcDbEntity
  8
0
  6
Continuous
 62
     7
370
    25
100
AcDbCircle
 10
3.1907551518
 20
4.5052353364
 30
0.0
 40
2.349999999999999
100
AcDbArc
 50
319.391250056
 51
323.0436555982
  0
ARC
  5
21C
330
1F
100
AcDbEntity
  8
0
  6
Continuous
 62
     7
370
    25
100
AcDbCircle
 10
0.0
 20
0.0
 30
0.0
 40
5.9375
100
AcDbArc
 50
31.387629729
 51
31.8038596327
  0
ARC
  5
21D
330
1F
100
AcDbEntity
  8
0
  6
Continuous
 62
     7
370
    25
100
AcDbCircle
 10
5.4600702591
 20
0.8159023475
 30
0.0
 40
2.35
100
AcDbArc
 50
100.1478337635
 51
103.8002393058
  0
ARC
  5
21E
330
1F
100
AcDbEntity
  8
0
  6
Continuous
 62
     7
370
    25
100
AcDbCircle
 10
0.0
 20
0.0
 30
0.0
 40
5.796824999999998
100
AcDbArc
 50
32.3060633089
 51
32.8003196698
  0
ARC
  5
21F
330
1F
100
AcDbEntity
  8
0
  6
Continuous
 62
     7
370
    25
100
AcDbCircle
 10
3.0384309832
 20
4.6093384596
 30
0.0
 40
2.35
100
AcDbArc
 50
321.306143673
 51
324.9585492152
  0
ARC
  5
220
330
1F
100
AcDbEntity
  8
0
  6
Continuous
 62
     7
370
    25
100
AcDbCircle
 10
0.0
 20
0.0
 30
0.0
 40
5.9375
100
AcDbArc
 50
33.302523346
 51
33.7187532497
  0
ARC
  5
221
330
1F
100
AcDbEntity
  8
0
  6
Continuous
 62
     7
370
    25
100
AcDbCircle
 10
5.4297577996
 20
0.9978948402
 30
0.0
 40
2.35
100
AcDbArc
 50
102.0627273806
 51
105.7151329228
  0
ARC
  5
222
330
1F
100
AcDbEntity
  8
0
  6
Continuous
 62
     7
370
    25
100
AcDbCircle
 10
0.0
 20
0.0
 30
0.0
 40
5.796824999999999
100
AcDbArc
 50
34.2209569259
 51
34.7152132869
  0
ARC
  5
223
330
1F
100
AcDbEntity
  8
0
  6
Continuous
 62
     7
370
    25
100
AcDbCircle
 10
2.8827132745
 20
4.7082935392
 30
0.0
 40
2.35
100
AcDbArc
 50
323.22103729
 51
326.8734428322
  0
ARC
  5
224
330
1F
100
AcDbEntity
  8
0
  6
Continuous
 62
     7
370
    25
100
AcDbCircle
 10
0.0
 20
0.0
 30
0.0
 40
5.937500000000001
100
AcDbArc
 50
35.217416963
 51
35.6336468668
  0
ARC
  5
225
330
1F
100
AcDbEntity
  8
0
  6
Continuous
 62
     7
370
    25
100
AcDbCircle
 10
5.3933809928
 20
1.1787728115
 30
0.0
 40
2.35
100
AcDbArc
 50
103.9776209976
 51
107.6300265398
  0
ARC
  5
226
330
1F
100
AcDbEntity
  8
0
  6
Continuous
 62
     7
370
    25
100
AcDbCircle
 10
0.0
 20
0.0
 30
0.0
 40
5.796824999999998
100
AcDbArc
 50
36.1358505429
 51
36.6301069039
  0
ARC
  5
227
330
1F
100
AcDbEntity
  8
0
  6
Continuous
 62
     7
370
    25
100
AcDbCircle
 10
2.7237759425
 20
4.8019900552
 30
0.0
 40
2.35
100
AcDbArc
 50
325.135930907
 51
328.7883364492
  0
ARC
  5
228
330
1F
100
AcDbEntity
  8
0
  6
Continuous
 62
     7
370
    25
100
AcDbCircle
 10
0.0
 20
0.0
 30
0.0
 40
5.937500000000001
100
AcDbArc
 50
37.1323105801
 51
37.5485404838
  0
ARC
  5
229
330
1F
100
AcDbEntity
  8
0
  6
Continuous
 62
     7
370
    25
100
AcDbCircle
 10
5.3509804669
 20
1.3583342439
 30
0.0
 40
2.35
100
AcDbArc
 50
105.8925146146
 51
109.5449201568
  0
ARC
  5
22A
330
1F
100
AcDbEntity
  8
0
  6
Continuous
 62
     7
370
    25
100
AcDbCircle
 10
0.0
 20
0.0
 30
0.0
 40
5.796824999999999
100
AcDbArc
 50
38.05074416
 51
38.5450005209
  0
ARC
  5
22B
330
1F
100
AcDbEntity
  8
0
  6
Continuous
 62
     7
370
    25
100
AcDbCircle
 10
2.5617965
 20
4.8903233602
 30
0.0
 40
2.349999999999999
100
AcDbArc
 50
327.050824524
 51
330.7032300662
  0
ARC
  5
22C
330
1F
100
AcDbEntity
  8
0
  6
Continuous
 62
     7
370
    25
100
AcDbCircle
 10
0.0
 20
0.0
 30
0.0
 40
5.9375
100
AcDbArc
 50
39.0472041971
 51
39.4634341008
  0
ARC
  5
22D
330
1F
100
AcDbEntity
  8
0
  6
Continuous
 62
     7
370
    25
100
AcDbCircle
 10
5.3026035778
 20
1.5363785901
 30
0.0
 40
2.350000000000001
100
AcDbArc
 50
107.8074082316
 51
111.4598137738
  0
ARC
  5
22E
330
1F
100
AcDbEntity
  8
0
  6
Continuous
 62
     7
370
    25
100
AcDbCircle
 10
0.0
 20
0.0
 30
0.0
 40
5.796824999999999
100
AcDbArc
 50
39.965637777
 51
40.4598941379
  0
ARC
  5
22F
330
1F
100
AcDbEntity
  8
0
  6
Continuous
 62
     7
370
    25
100
AcDbCircle
 10
2.3969558572
 20
4.9731947974
 30
0.0
 40
2.35
100
AcDbArc
 50
328.9657181411
 51
332.6181236833
  0
ARC
  5
230
330
1F
100
AcDbEntity
  8
0
  6
Continuous
 62
     7
370
    25
100
AcDbCircle
 10
0.0
 20
0.0
 30
0.0
 40
5.937500000000001
100
AcDbArc
 50
40.9620978141
 51
41.3783277178
  0
ARC
  5
231
330
1F
100
AcDbEntity
  8
0
  6
Continuous
 62
     7
370
    25
100
AcDbCircle
 10
5.2483043563
 20
1.7127069972
 30
0.0
 40
2.35
100
AcDbArc
 50
109.7223018486
 51
113.3747073909
  0
ARC
  5
232
330
1F
100
AcDbEntity
  8
0
  6
Continuous
 62
     7
370
    25
100
AcDbCircle
 10
0.0
 20
0.0
 30
0.0
 40
5.796824999999999
100
AcDbArc
 50
41.880531394
 51
42.3747877549
  0
ARC
  5
233
330
1F
100
AcDbEntity
  8
0
  6
Continuous
 62
     7
370
    25
100
AcDbCircle
 10
2.2294381203
 20
5.05051181
 30
0.0
 40
2.35
100
AcDbArc
 50
330.8806117581
 51
334.5330173003
  0
ARC
  5
234
330
1F
100
AcDbEntity
  8
0
  6
Continuous
 62
     7
370
    25
100
AcDbCircle
 10
0.0
 20
0.0
 30
0.0
 40
5.937500000000001
100
AcDbArc
 50
42.8769914311
 51
43.2932213348
  0
ARC
  5
235
330
1F
100
AcDbEntity
  8
0
  6
Continuous
 62
     7
370
    25
100
AcDbCircle
 10
5.1881434479
 20
1.8871225289
 30
0.0
 40
2.35
100
AcDbArc
 50
111.6371954657
 51
115.2896010079
  0
ARC
  5
236
330
1F
100
AcDbEntity
  8
0
  6
Continuous
 62
     7
370
    25
100
AcDbCircle
 10
0.0
 20
0.0
 30
0.0
 40
5.796824999999998
100
AcDbArc
 50
43.795425011
 51
44.289681372
  0
ARC
  5
237
330
1F
100
AcDbEntity
  8
0
  6
Continuous
 62
     7
370
    25
100
AcDbCircle
 10
2.0594303852
 20
5.1221880445
 30
0.0
 40
2.349999999999999
100
AcDbArc
 50
332.7955053751
 51
336.4479109173
  0
ARC
  5
238
330
1F
100
AcDbEntity
  8
0
  6
Continuous
 62
     7
370
    25
100
AcDbCircle
 10
0.0
 20
0.0
 30
0.0
 40
5.9375
100
AcDbArc
 50
44.7918850481
 51
45.2081149519
  0
ARC
  5
239
330
1F
100
AcDbEntity
  8
0
  6
Continuous
 62
     7
370
    25
100
AcDbCircle
 10
5.1221880445
 20
2.0594303852
 30
0.0
 40
2.35
100
AcDbArc
 50
113.5520890827
 51
117.2044946249
  0
ARC
  5
23A
330
1F
100
AcDbEntity
  8
0
  6
Continuous
 62
     7
370
    25
100
AcDbCircle
 10
0.0
 20
0.0
 30
0.0
 40
5.796824999999999
100
AcDbArc
 50
45.710318628
 51
46.204574989
  0
ARC
  5
23B
330
1F
100
AcDbEntity
  8
0
  6
Continuous
 62
     7
370
    25
100
AcDbCircle
 10
1.8871225289
 20
5.1881434479
 30
0.0
 40
2.35
100
AcDbArc
 50
334.7103989921
 51
338.3628045343
  0
ARC
  5
23C
330
1F
100
AcDbEntity
  8
0
  6
Continuous
 62
     7
370
    25
100
AcDbCircle
 10
0.0
 20
0.0
 30
0.0
 40
5.937500000000001
100
AcDbArc
 50
46.7067786652
 51
47.1230085689
  0
ARC
  5
23D
330
1F
100
AcDbEntity
  8
0
  6
Continuous
 62
     7
370
    25
100
AcDbCircle
 10
5.05051181
 20
2.2294381203
 30
0.0
 40
2.35
100
AcDbArc
 50
115.4669826997
 51
119.1193882419
  0
ARC
  5
23E
330
1F
100
AcDbEntity
  8
0
  6
Continuous
 62
     7
370
    25
100
AcDbCircle
 10
0.0
 20
0.0
 30
0.0
 40
5.796824999999999
100
AcDbArc
 50
47.6252122451
 51
48.119468606
  0
ARC
  5
23F
330
1F
100
AcDbEntity
  8
0
  6
Continuous
 62
     7
370
    25
100
AcDbCircle
 10
1.7127069972
 20
5.2483043563
 30
0.0
 40
2.35
100
AcDbArc
 50
336.6252926091
 51
340.2776981514
  0
ARC
  5
240
330
1F
100
AcDbEntity
  8
0
  6
Continuous
 62
     7
370
    25
100
AcDbCircle
 10
0.0
 20
0.0
 30
0.0
 40
5.937500000000001
100
AcDbArc
 50
48.6216722822
 51
49.0379021859
  0
ARC
  5
241
330
1F
100
AcDbEntity
  8
0
  6
Continuous
 62
     7
370
    25
100
AcDbCircle
 10
4.9731947974
 20
2.3969558572
 30
0.0
 40
2.35
100
AcDbArc
 50
117.3818763167
 51
121.0342818589
  0
ARC
  5
242
330
1F
100
AcDbEntity
  8
0
  6
Continuous
 62
     7
370
    25
100
AcDbCircle
 10
0.0
 20
0.0
 30
0.0
 40
5.796824999999999
100
AcDbArc
 50
49.5401058621
 51
50.034362223
  0
ARC
  5
243
330
1F
100
AcDbEntity
  8
0
  6
Continuous
 62
     7
370
    25
100
AcDbCircle
 10
1.5363785901
 20
5.3026035778
 30
0.0
 40
2.349999999999999
100
AcDbArc
 50
338.5401862262
 51
342.1925917684
  0
ARC
  5
244
330
1F
100
AcDbEntity
  8
0
  6
Continuous
 62
     7
370
    25
100
AcDbCircle
 10
0.0
 20
0.0
 30
0.0
 40
5.937500000000001
100
AcDbArc
 50
50.5365658992
 51
50.9527958029
  0
ARC
  5
245
330
1F
100
AcDbEntity
  8
0
  6
Continuous
 62
     7
370
    25
100
AcDbCircle
 10
4.8903233602
 20
2.5617965
 30
0.0
 40
2.35
100
AcDbArc
 50
119.2967699338
 51
122.949175476
  0
ARC
  5
246
330
1F
100
AcDbEntity
  8
0
  6
Continuous
 62
     7
370
    25
100
AcDbCircle
 10
0.0
 20
0.0
 30
0.0
 40
5.796824999999998
100
AcDbArc
 50
51.4549994791
 51
51.94925584
  0
ARC
  5
247
330
1F
100
AcDbEntity
  8
0
  6
Continuous
 62
     7
370
    25
100
AcDbCircle
 10
1.3583342439
 20
5.3509804669
 30
0.0
 40
2.35
100
AcDbArc
 50
340.4550798432
 51
344.1074853854
  0
ARC
  5
248
330
1F
100
AcDbEntity
  8
0
  6
Continuous
 62
     7
370
    25
100
AcDbCircle
 10
0.0
 20
0.0
 30
0.0
 40
5.937500000000001
100
AcDbArc
 50
52.4514595162
 51
52.8676894199
  0
ARC
  5
249
330
1F
100
AcDbEntity
  8
0
  6
Continuous
 62
     7
370
    25
100
AcDbCircle
 10
4.8019900552
 20
2.7237759425
 30
0.0
 40
2.350000000000001
100
AcDbArc
 50
121.2116635508
 51
124.864069093
  0
ARC
  5
24A
330
1F
100
AcDbEntity
  8
0
  6
Continuous
 62
     7
370
    25
100
AcDbCircle
 10
0.0
 20
0.0
 30
0.0
 40
5.796824999999999
100
AcDbArc
 50
53.3698930961
 51
53.8641494571
  0
ARC
  5
24B
330
1F
100
AcDbEntity
  8
0
  6
Continuous
 62
     7
370
    25
100
AcDbCircle
 10
1.1787728115
 20
5.3933809928
 30
0.0
 40
2.35
100
AcDbArc
 50
342.3699734602
 51
346.0223790024
  0
ARC
  5
24C
330
1F
100
AcDbEntity
  8
0
  6
Continuous
 62
     7
370
    25
100
AcDbCircle
 10
0.0
 20
0.0
 30
0.0
 40
5.937500000000001
100
AcDbArc
 50
54.3663531332
 51
54.782583037
  0
ARC
  5
24D
330
1F
100
AcDbEntity
  8
0
  6
Continuous
 62
     7
370
    25
100
AcDbCircle
 10
4.7082935392
 20
2.8827132745
 30
0.0
 40
2.350000000000001
100
AcDbArc
 50
123.1265571678
 51
126.77896271
  0
ARC
  5
24E
330
1F
100
AcDbEntity
  8
0
  6
Continuous
 62
     7
370
    25
100
AcDbCircle
 10
0.0
 20
0.0
 30
0.0
 40
5.796824999999999
100
AcDbArc
 50
55.2847867131
 51
55.7790430741
  0
ARC
  5
24F
330
1F
100
AcDbEntity
  8
0
  6
Continuous
 62
     7
370
    25
100
AcDbCircle
 10
0.9978948402
 20
5.4297577996
 30
0.0
 40
2.35
100
AcDbArc
 50
344.2848670772
 51
347.9372726194
  0
ARC
  5
250
330
1F
100
AcDbEntity
  8
0
  6
Continuous
 62
     7
370
    25
100
AcDbCircle
 10
0.0
 20
0.0
 30
0.0
 40
5.937500000000001
100
AcDbArc
 50
56.2812467503
 51
56.697476654
  0
ARC
  5
251
330
1F
100
AcDbEntity
  8
0
  6
Continuous
 62
     7
370
    25
100
AcDbCircle
 10
4.6093384596
 20
3.0384309832
 30
0.0
 40
2.350000000000001
100
AcDbArc
 50
125.0414507848
 51
128.693856327
  0
ARC
  5
252
330
1F
100
AcDbEntity
  8
0
  6
Continuous
 62
     7
370
    25
100
AcDbCircle
 10
0.0
 20
0.0
 30
0.0
 40
5.796824999999999
100
AcDbArc
 50
57.1996803302
 51
57.6939366911
  0
ARC
  5
253
330
1F
100
AcDbEntity
  8
0
  6
Continuous
 62
     7
370
    25
100
AcDbCircle
 10
0.8159023475
 20
5.4600702591
 30
0.0
 40
2.349999999999999
100
AcDbArc
 50
346.1997606943
 51
349.8521662365
  0
ARC
  5
254
330
1F
100
AcDbEntity
  8
0
  6
Continuous
 62
     7
370
    25
100
AcDbCircle
 10
0.0
 20
0.0
 30
0.0
 40
5.9375
100
AcDbArc
 50
58.1961403673
 51
58.612370271
  0
ARC
  5
255
330
1F
100
AcDbEntity
  8
0
  6
Continuous
 62
     7
370
    25
100
AcDbCircle
 10
4.5052353364
 20
3.1907551518
 30
0.0
 40
2.350000000000001
100
AcDbArc
 50
126.9563444018
 51
130.608749944
  0
ARC
  5
256
330
1F
100
AcDbEntity
  8
0
  6
Continuous
 62
     7
370
    25
100
AcDbCircle
 10
0.0
 20
0.0
 30
0.0
 40
5.796824999999999
100
AcDbArc
 50
59.1145739472
 51
59.6088303081
  0
ARC
  5
257
330
1F
100
AcDbEntity
  8
0
  6
Continuous
 62
     7
370
    25
100
AcDbCircle
 10
0.6329985958
 20
5.484284516
 30
0.0
 40
2.35
100
AcDbArc
 50
348.1146543113
 51
351.7670598535
  0
ARC
  5
258
330
1F
100
AcDbEntity
  8
0
  6
Continuous
 62
     7
370
    25
100
AcDbCircle
 10
0.0
 20
0.0
 30
0.0
 40
5.9375
100
AcDbArc
 50
60.1110339843
 51
60.527263888
  0
ARC
  5
259
330
1F
100
AcDbEntity
  8
0
  6
Continuous
 62
     7
370
    25
100
AcDbCircle
 10
4.3961004395
 20
3.3395156536
 30
0.0
 40
2.350000000000001
100
AcDbArc
 50
128.8712380189
 51
132.5236435611
  0
ARC
  5
25A
330
1F
100
AcDbEntity
  8
0
  6
Continuous
 62
     7
370
    25
100
AcDbCircle
 10
0.0
 20
0.0
 30
0.0
 40
5.796824999999999
100
AcDbArc
 50
61.0294675642
 51
61.5237239252
  0
ARC
  5
25B
330
1F
100
AcDbEntity
  8
0
  6
Continuous
 62
     7
370
    25
100
AcDbCircle
 10
0.4493878655
 20
5.5023735261
 30
0.0
 40
2.35
100
AcDbArc
 50
350.0295479283
 51
353.6819534705
  0
ARC
  5
25C
330
1F
100
AcDbEntity
  8
0
  6
Continuous
 62
     7
370
    25
100
AcDbCircle
 10
0.0
 20
0.0
 30
0.0
 40
5.937500000000001
100
AcDbArc
 50
62.0259276013
 51
62.442157505
  0
ARC
  5
25D
330
1F
100
AcDbEntity
  8
0
  6
Continuous
 62
     7
370
    25
100
AcDbCircle
 10
4.2820556588
 20
3.484546342
 30
0.0
 40
2.35
100
AcDbArc
 50
130.7861316359
 51
134.4385371781
  0
ARC
  5
25E
330
1F
100
AcDbEntity
  8
0
  6
Continuous
 62
     7
370
    25
100
AcDbCircle
 10
0.0
 20
0.0
 30
0.0
 40
5.796824999999999
100
AcDbArc
 50
62.9443611812
 51
63.4386175422
  0
ARC
  5
25F
330
1F
100
AcDbEntity
  8
0
  6
Continuous
 62
     7
370
    25
100
AcDbCircle
 10
0.2652752261
 20
5.5143170864
 30
0.0
 40
2.350000000000001
100
AcDbArc
 50
351.9444415453
 51
355.5968470875
  0
ARC
  5
260
330
1F
100
AcDbEntity
  8
0
  6
Continuous
 62
     7
370
    25
100
AcDbCircle
 10
0.0
 20
0.0
 30
0.0
 40
5.937500000000001
100
AcDbArc
 50
63.9408212184
 51
64.3570511221
  0
ARC
  5
261
330
1F
100
AcDbEntity
  8
0
  6
Continuous
 62
     7
370
    25
100
AcDbCircle
 10
4.1632283677
 20
3.6256852364
 30
0.0
 40
2.35
100
AcDbArc
 50
132.7010252529
 51
136.3534307951
  0
ARC
  5
262
330
1F
100
AcDbEntity
  8
0
  6
Continuous
 62
     7
370
    25
100
AcDbCircle
 10
0.0
 20
0.0
 30
0.0
 40
5.796824999999998
100
AcDbArc
 50
64.8592547983
 51
65.3535111592
  0
ARC
  5
263
330
1F
100
AcDbEntity
  8
0
  6
Continuous
 62
     7
370
    25
100
AcDbCircle
 10
0.0808663081
 20
5.5201018573
 30
0.0
 40
2.349999999999999
100
AcDbArc
 50
353.8593351623
 51
357.5117407045
  0
ARC
  5
264
330
1F
100
AcDbEntity
  8
0
  6
Continuous
 62
     7
370
    25
100
AcDbCircle
 10
0.0
 20
0.0
 30
0.0
 40
5.937500000000001
100
AcDbArc
 50
65.8557148354
 51
66.2719447391
  0
ARC
  5
265
330
1F
100
AcDbEntity
  8
0
  6
Continuous
 62
     7
370
    25
100
AcDbCircle
 10
4.0397512812
 20
3.7627747024
 30
0.0
 40
2.35
100
AcDbArc
 50
134.6159188699
 51
138.2683244121
  0
ARC
  5
266
330
1F
100
AcDbEntity
  8
0
  6
Continuous
 62
     7
370
    25
100
AcDbCircle
 10
0.0
 20
0.0
 30
0.0
 40
5.796824999999999
100
AcDbArc
 50
66.7741484153
 51
67.2684047762
  0
ARC
  5
267
330
1F
100
AcDbEntity
  8
0
  6
Continuous
 62
     7
370
    25
100
AcDbCircle
 10
-0.1036329272
 20
5.519721378
 30
0.0
 40
2.35
100
AcDbArc
 50
355.7742287794
 51
359.4266343216
  0
ARC
  5
268
330
1F
100
AcDbEntity
  8
0
  6
Continuous
 62
     7
370
    25
100
AcDbCircle
 10
0.0
 20
0.0
 30
0.0
 40
5.9375
100
AcDbArc
 50
67.7706084524
 51
68.1868383561
  0
ARC
  5
269
330
1F
100
AcDbEntity
  8
0
  6
Continuous
 62
     7
370
    25
100
AcDbCircle
 10
3.9117623074
 20
3.8956616287
 30
0.0
 40
2.350000000000001
100
AcDbArc
 50
136.5308124869
 51
140.1832180292
  0
ARC
  5
26A
330
1F
100
AcDbEntity
  8
0
  6
Continuous
 62
     7
370
    25
100
AcDbCircle
 10
0.0
 20
0.0
 30
0.0
 40
5.796824999999999
100
AcDbArc
 50
68.6890420323
 51
69.1832983932
  0
ARC
  5
26B
330
1F
100
AcDbEntity
  8
0
  6
Continuous
 62
     7
370
    25
100
AcDbCircle
 10
-0.2880164177
 20
5.5131760736
 30
0.0
 40
2.35
100
AcDbArc
 50
357.6891223964
 51
1.3415279386
  0
ARC
  5
26C
330
1F
100
AcDbEntity
  8
0
  6
Continuous
 62
     7
370
    25
100
AcDbCircle
 10
0.0
 20
0.0
 30
0.0
 40
5.937500000000001
100
AcDbArc
 50
69.6855020694
 51
70.1017319731
  0
ARC
  5
26D
330
1F
100
AcDbEntity
  8
0
  6
Continuous
 62
     7
370
    25
100
AcDbCircle
 10
3.7794043937
 20
4.0241975975
 30
0.0
 40
2.35
100
AcDbArc
 50
138.445706104
 51
142.0981116462
  0
ARC
  5
26E
330
1F
100
AcDbEntity
  8
0
  6
Continuous
 62
     7
370
    25
100
AcDbCircle
 10
0.0
 20
0.0
 30
0.0
 40
5.796824999999998
100
AcDbArc
 50
70.6039356493
 51
71.0981920103
  0
ARC
  5
26F
330
1F
100
AcDbEntity
  8
0
  6
Continuous
 62
     7
370
    25
100
AcDbCircle
 10
-0.4720782307
 20
5.5004732541
 30
0.0
 40
2.35
100
AcDbArc
 50
359.6040160134
 51
3.2564215556
  0
ARC
  5
270
330
1F
100
AcDbEntity
  8
0
  6
Continuous
 62
     7
370
    25
100
AcDbCircle
 10
0.0
 20
0.0
 30
0.0
 40
5.9375
100
AcDbArc
 50
71.6003956864
 51
72.0166255902
  0
ARC
  5
271
330
1F
100
AcDbEntity
  8
0
  6
Continuous
 62
     7
370
    25
100
AcDbCircle
 10
3.642825367
 20
4.1482390506
 30
0.0
 40
2.35
100
AcDbArc
 50
140.360599721
 51
144.0130052632
  0
ARC
  5
272
330
1F
100
AcDbEntity
  8
0
  6
Continuous
 62
     7
370
    25
100
AcDbCircle
 10
0.0
 20
0.0
 30
0.0
 40
5.796825
100
AcDbArc
 50
72.5188292663
 51
73.0130856273
  0
ARC
  5
273
330
1F
100
AcDbEntity
  8
0
  6
Continuous
 62
     7
370
    25
100
AcDbCircle
 10
-0.6556127924
 20
5.4816271071
 30
0.0
 40
2.35
100
AcDbArc
 50
1.5189096304
 51
5.1713151726
  0
ARC
  5
274
330
1F
100
AcDbEntity
  8
0
  6
Continuous
 62
     7
370
    25
100
AcDbCircle
 10
0.0
 20
0.0
 30
0.0
 40
5.937499999999999
100
AcDbArc
 50
73.5152893035
 51
73.9315192072
  0
ARC
  5
275
330
1F
100
AcDbEntity
  8
0
  6
Continuous
 62
     7
370
    25
100
AcDbCircle
 10
3.5021777687
 20
4.2676474493
 30
0.0
 40
2.35
100
AcDbArc
 50
142.275493338
 51
145.9278988802
  0
ARC
  5
276
330
1F
100
AcDbEntity
  8
0
  6
Continuous
 62
     7
370
    25
100
AcDbCircle
 10
0.0
 20
0.0
 30
0.0
 40
5.796824999999999
100
AcDbArc
 50
74.4337228834
 51
74.9279792443
  0
ARC
  5
277
330
1F
100
AcDbEntity
  8
0
  6
Continuous
 62
     7
370
    25
100
AcDbCircle
 10
-0.8384151181
 20
5.4566586813
 30
0.0
 40
2.35
100
AcDbArc
 50
3.4338032474
 51
7.0862087897
  0
ARC
  5
278
330
1F
100
AcDbEntity
  8
0
  6
Continuous
 62
     7
370
    25
100
AcDbCircle
 10
0.0
 20
0.0
 30
0.0
 40
5.937500000000001
100
AcDbArc
 50
75.4301829205
 51
75.8464128242
  0
ARC
  5
279
330
1F
100
AcDbEntity
  8
0
  6
Continuous
 62
     7
370
    25
100
AcDbCircle
 10
3.3576186842
 20
4.3822894298
 30
0.0
 40
2.35
100
AcDbArc
 50
144.190386955
 51
147.8427924972
  0
ARC
  5
27A
330
1F
100
AcDbEntity
  8
0
  6
Continuous
 62
     7
370
    25
100
AcDbCircle
 10
0.0
 20
0.0
 30
0.0
 40
5.796824999999997
100
AcDbArc
 50
76.3486165004
 51
76.8428728613
  0
ARC
  5
27B
330
1F
100
AcDbEntity
  8
0
  6
Continuous
 62
     7
370
    25
100
AcDbCircle
 10
-1.0202810411
 20
5.4255958633
 30
0.0
 40
2.35
100
AcDbArc
 50
5.3486968645
 51
9.0011024067
  0
ARC
  5
27C
330
1F
100
AcDbEntity
  8
0
  6
Continuous
 62
     7
370
    25
100
AcDbCircle
 10
0.0
 20
0.0
 30
0.0
 40
5.9375
100
AcDbArc
 50
77.3450765375
 51
77.7613064412
  0
ARC
  5
27D
330
1F
100
AcDbEntity
  8
0
  6
Continuous
 62
     7
370
    25
100
AcDbCircle
 10
3.2093095676
 20
4.4920369516
 30
0.0
 40
2.350000000000001
100
AcDbArc
 50
146.105280572
 51
149.7576861143
  0
ARC
  5
27E
330
1F
100
AcDbEntity
  8
0
  6
Continuous
 62
     7
370
    25
100
AcDbCircle
 10
0.0
 20
0.0
 30
0.0
 40
5.796824999999999
100
AcDbArc
 50
78.2635101174
 51
78.7577664783
  0
ARC
  5
27F
330
1F
100
AcDbEntity
  8
0
  6
Continuous
 62
     7
370
    25
100
AcDbCircle
 10
-1.2010074402
 20
5.3884733463
 30
0.0
 40
2.35
100
AcDbArc
 50
7.2635904815
 51
10.9159960237
  0
ARC
  5
280
330
1F
100
AcDbEntity
  8
0
  6
Continuous
 62
     7
370
    25
100
AcDbCircle
 10
0.0
 20
0.0
 30
0.0
 40
5.9375
100
AcDbArc
 50
79.2599701545
 51
79.6762000582
  0
ARC
  5
281
330
1F
100
AcDbEntity
  8
0
  6
Continuous
 62
     7
370
    25
100
AcDbCircle
 10
3.0574160613
 20
4.5967674406
 30
0.0
 40
2.350000000000001
100
AcDbArc
 50
148.0201741891
 51
151.6725797313
  0
ARC
  5
282
330
1F
100
AcDbEntity
  8
0
  6
Continuous
 62
     7
370
    25
100
AcDbCircle
 10
0.0
 20
0.0
 30
0.0
 40
5.796824999999999
100
AcDbArc
 50
80.1784037344
 51
80.6726600954
  0
ARC
  5
283
330
1F
100
AcDbEntity
  8
0
  6
Continuous
 62
     7
370
    25
100
AcDbCircle
 10
-1.3803924671
 20
5.3453325913
 30
0.0
 40
2.35
100
AcDbArc
 50
9.1784840985
 51
12.8308896407
  0
ARC
  5
284
330
1F
100
AcDbEntity
  8
0
  6
Continuous
 62
     7
370
    25
100
AcDbCircle
 10
0.0
 20
0.0
 30
0.0
 40
5.937500000000001
100
AcDbArc
 50
81.1748637715
 51
81.5910936753
  0
ARC
  5
285
330
1F
100
AcDbEntity
  8
0
  6
Continuous
 62
     7
370
    25
100
AcDbCircle
 10
2.9021078109
 20
4.6963639263
 30
0.0
 40
2.35
100
AcDbArc
 50
149.9350678061
 51
153.5874733483
  0
ARC
  5
286
330
1F
100
AcDbEntity
  8
0
  6
Continuous
 62
     7
370
    25
100
AcDbCircle
 10
0.0
 20
0.0
 30
0.0
 40
5.796824999999998
100
AcDbArc
 50
82.0932973514
 51
82.5875537124
  0
ARC
  5
287
330
1F
100
AcDbEntity
  8
0
  6
Continuous
 62
     7
370
    25
100
AcDbCircle
 10
-1.5582357715
 20
5.2962217812
 30
0.0
 40
2.35
100
AcDbArc
 50
11.0933777155
 51
14.7457832577
  0
ARC
  5
288
330
1F
100
AcDbEntity
  8
0
  6
Continuous
 62
     7
370
    25
100
AcDbCircle
 10
0.0
 20
0.0
 30
0.0
 40
5.9375
100
AcDbArc
 50
83.0897573886
 51
83.5059872923
  0
ARC
  5
289
330
1F
100
AcDbEntity
  8
0
  6
Continuous
 62
     7
370
    25
100
AcDbCircle
 10
2.7435582761
 20
4.7907151722
 30
0.0
 40
2.350000000000001
100
AcDbArc
 50
151.8499614231
 51
155.5023669653
  0
ARC
  5
28A
330
1F
100
AcDbEntity
  8
0
  6
Continuous
 62
     7
370
    25
100
AcDbCircle
 10
0.0
 20
0.0
 30
0.0
 40
5.796825000000001
100
AcDbArc
 50
84.0081909685
 51
84.5024473294
  0
ARC
  5
28B
330
1F
100
AcDbEntity
  8
0
  6
Continuous
 62
     7
370
    25
100
AcDbCircle
 10
-1.7343387251
 20
5.2411957664
 30
0.0
 40
2.35
100
AcDbArc
 50
13.0082713325
 51
16.6606768748
  0
ARC
  5
28C
330
1F
100
AcDbEntity
  8
0
  6
Continuous
 62
     7
370
    25
100
AcDbCircle
 10
0.0
 20
0.0
 30
0.0
 40
5.937500000000001
100
AcDbArc
 50
85.0046510056
 51
85.4208809093
  0
ARC
  5
28D
330
1F
100
AcDbEntity
  8
0
  6
Continuous
 62
     7
370
    25
100
AcDbCircle
 10
2.5819445363
 20
4.8797157998
 30
0.0
 40
2.35
100
AcDbArc
 50
153.7648550401
 51
157.4172605823
  0
ARC
  5
28E
330
1F
100
AcDbEntity
  8
0
  6
Continuous
 62
     7
370
    25
100
AcDbCircle
 10
0.0
 20
0.0
 30
0.0
 40
5.796824999999998
100
AcDbArc
 50
85.9230845855
 51
86.4173409464
  0
ARC
  5
28F
330
1F
100
AcDbEntity
  8
0
  6
Continuous
 62
     7
370
    25
100
AcDbCircle
 10
-1.9085046435
 20
5.1803160039
 30
0.0
 40
2.35
100
AcDbArc
 50
14.9231649496
 51
18.5755704918
  0
ARC
  5
290
330
1F
100
AcDbEntity
  8
0
  6
Continuous
 62
     7
370
    25
100
AcDbCircle
 10
0.0
 20
0.0
 30
0.0
 40
5.937500000000001
100
AcDbArc
 50
86.9195446226
 51
87.3357745263
  0
ARC
  5
291
330
1F
100
AcDbEntity
  8
0
  6
Continuous
 62
     7
370
    25
100
AcDbCircle
 10
2.4174470935
 20
4.9632664068
 30
0.0
 40
2.35
100
AcDbArc
 50
155.6797486572
 51
159.3321541994
  0
ARC
  5
292
330
1F
100
AcDbEntity
  8
0
  6
Continuous
 62
     7
370
    25
100
AcDbCircle
 10
0.0
 20
0.0
 30
0.0
 40
5.796824999999999
100
AcDbArc
 50
87.8379782025
 51
88.3322345635
  0
ARC
  5
293
330
1F
100
AcDbEntity
  8
0
  6
Continuous
 62
     7
370
    25
100
AcDbCircle
 10
-2.0805390055
 20
5.1136504888
 30
0.0
 40
2.35
100
AcDbArc
 50
16.8380585666
 51
20.4904641088
  0
ARC
  5
294
330
1F
100
AcDbEntity
  8
0
  6
Continuous
 62
     7
370
    25
100
AcDbCircle
 10
0.0
 20
0.0
 30
0.0
 40
5.937500000000001
100
AcDbArc
 50
88.8344382396
 51
89.2506681433
  0
ARC
  5
295
330
1F
100
AcDbEntity
  8
0
  6
Continuous
 62
     7
370
    25
100
AcDbCircle
 10
2.2502496705
 20
5.0412736779
 30
0.0
 40
2.350000000000001
100
AcDbArc
 50
157.5946422742
 51
161.2470478164
  0
ARC
  5
296
330
1F
100
AcDbEntity
  8
0
  6
Continuous
 62
     7
370
    25
100
AcDbCircle
 10
0.0
 20
0.0
 30
0.0
 40
5.796824999999998
100
AcDbArc
 50
89.7528718195
 51
90.2471281805
  0
ARC
  5
297
330
1F
100
AcDbEntity
  8
0
  6
Continuous
 62
     7
370
    25
100
AcDbCircle
 10
-2.2502496705
 20
5.0412736779
 30
0.0
 40
2.35
100
AcDbArc
 50
18.7529521836
 51
22.4053577258
  0
ARC
  5
298
330
1F
100
AcDbEntity
  8
0
  6
Continuous
 62
     7
370
    25
100
AcDbCircle
 10
0.0
 20
0.0
 30
0.0
 40
5.937499999999999
100
AcDbArc
 50
90.7493318567
 51
91.1655617604
  0
ARC
  5
299
330
1F
100
AcDbEntity
  8
0
  6
Continuous
 62
     7
370
    25
100
AcDbCircle
 10
2.0805390055
 20
5.1136504888
 30
0.0
 40
2.35
100
AcDbArc
 50
159.5095358912
 51
163.1619414334
  0
ARC
  5
29A
330
1F
100
AcDbEntity
  8
0
  6
Continuous
 62
     7
370
    25
100
AcDbCircle
 10
0.0
 20
0.0
 30
0.0
 40
5.796824999999999
100
AcDbArc
 50
91.6677654365
 51
92.1620217975
  0
ARC
  5
29B
330
1F
100
AcDbEntity
  8
0
  6
Continuous
 62
     7
370
    25
100
AcDbCircle
 10
-2.4174470935
 20
4.9632664068
 30
0.0
 40
2.35
100
AcDbArc
 50
20.6678458006
 51
24.3202513428
  0
ARC
  5
29C
330
1F
100
AcDbEntity
  8
0
  6
Continuous
 62
     7
370
    25
100
AcDbCircle
 10
0.0
 20
0.0
 30
0.0
 40
5.9375
100
AcDbArc
 50
92.6642254737
 51
93.0804553774
  0
ARC
  5
29D
330
1F
100
AcDbEntity
  8
0
  6
Continuous
 62
     7
370
    25
100
AcDbCircle
 10
1.9085046435
 20
5.1803160039
 30
0.0
 40
2.35
100
AcDbArc
 50
161.4244295082
 51
165.0768350504
  0
ARC
  5
29E
330
1F
100
AcDbEntity
  8
0
  6
Continuous
 62
     7
370
    25
100
AcDbCircle
 10
0.0
 20
0.0
 30
0.0
 40
5.796824999999998
100
AcDbArc
 50
93.5826590536
 51
94.0769154145
  0
ARC
  5
29F
330
1F
100
AcDbEntity
  8
0
  6
Continuous
 62
     7
370
    25
100
AcDbCircle
 10
-2.5819445363
 20
4.8797157998
 30
0.0
 40
2.35
100
AcDbArc
 50
22.5827394177
 51
26.2351449599
  0
ARC
  5
2A0
330
1F
100
AcDbEntity
  8
0
  6
Continuous
 62
     7
370
    25
100
AcDbCircle
 10
0.0
 20
0.0
 30
0.0
 40
5.937500000000001
100
AcDbArc
 50
94.5791190907
 51
94.9953489944
  0
ARC
  5
2A1
330
1F
100
AcDbEntity
  8
0
  6
Continuous
 62
     7
370
    25
100
AcDbCircle
 10
1.7343387251
 20
5.2411957664
 30
0.0
 40
2.35
100
AcDbArc
 50
163.3393231252
 51
166.9917286675
  0
ARC
  5
2A2
330
1F
100
AcDbEntity
  8
0
  6
Continuous
 62
     7
370
    25
100
AcDbCircle
 10
0.0
 20
0.0
 30
0.0
 40
5.796824999999998
100
AcDbArc
 50
95.4975526706
 51
95.9918090315
  0
ARC
  5
2A3
330
1F
100
AcDbEntity
  8
0
  6
Continuous
 62
     7
370
    25
100
AcDbCircle
 10
-2.7435582761
 20
4.7907151722
 30
0.0
 40
2.349999999999999
100
AcDbArc
 50
24.4976330347
 51
28.1500385769
  0
ARC
  5
2A4
330
1F
100
AcDbEntity
  8
0
  6
Continuous
 62
     7
370
    25
100
AcDbCircle
 10
0.0
 20
0.0
 30
0.0
 40
5.937500000000001
100
AcDbArc
 50
96.4940127077
 51
96.9102426114
  0
ARC
  5
2A5
330
1F
100
AcDbEntity
  8
0
  6
Continuous
 62
     7
370
    25
100
AcDbCircle
 10
1.5582357715
 20
5.2962217812
 30
0.0
 40
2.35
100
AcDbArc
 50
165.2542167423
 51
168.9066222845
  0
ARC
  5
2A6
330
1F
100
AcDbEntity
  8
0
  6
Continuous
 62
     7
370
    25
100
AcDbCircle
 10
0.0
 20
0.0
 30
0.0
 40
5.796824999999999
100
AcDbArc
 50
97.4124462876
 51
97.9067026486
  0
ARC
  5
2A7
330
1F
100
AcDbEntity
  8
0
  6
Continuous
 62
     7
370
    25
100
AcDbCircle
 10
-2.9021078109
 20
4.6963639263
 30
0.0
 40
2.35
100
AcDbArc
 50
26.4125266517
 51
30.0649321939
  0
ARC
  5
2A8
330
1F
100
AcDbEntity
  8
0
  6
Continuous
 62
     7
370
    25
100
AcDbCircle
 10
0.0
 20
0.0
 30
0.0
 40
5.9375
100
AcDbArc
 50
98.4089063247
 51
98.8251362285
  0
ARC
  5
2A9
330
1F
100
AcDbEntity
  8
0
  6
Continuous
 62
     7
370
    25
100
AcDbCircle
 10
1.3803924671
 20
5.3453325913
 30
0.0
 40
2.35
100
AcDbArc
 50
167.1691103593
 51
170.8215159015
  0
ARC
  5
2AA
330
1F
100
AcDbEntity
  8
0
  6
Continuous
 62
     7
370
    25
100
AcDbCircle
 10
0.0
 20
0.0
 30
0.0
 40
5.796824999999998
100
AcDbArc
 50
99.3273399046
 51
99.8215962656
  0
ARC
  5
2AB
330
1F
100
AcDbEntity
  8
0
  6
Continuous
 62
     7
370
    25
100
AcDbCircle
 10
-3.0574160613
 20
4.5967674406
 30
0.0
 40
2.35
100
AcDbArc
 50
28.3274202687
 51
31.9798258109
  0
ARC
  5
2AC
330
1F
100
AcDbEntity
  8
0
  6
Continuous
 62
     7
370
    25
100
AcDbCircle
 10
0.0
 20
0.0
 30
0.0
 40
5.9375
100
AcDbArc
 50
100.3237999418
 51
100.7400298455
  0
ARC
  5
2AD
330
1F
100
AcDbEntity
  8
0
  6
Continuous
 62
     7
370
    25
100
AcDbCircle
 10
1.2010074402
 20
5.3884733463
 30
0.0
 40
2.350000000000001
100
AcDbArc
 50
169.0840039763
 51
172.7364095185
  0
ARC
  5
2AE
330
1F
100
AcDbEntity
  8
0
  6
Continuous
 62
     7
370
    25
100
AcDbCircle
 10
0.0
 20
0.0
 30
0.0
 40
5.796824999999998
100
AcDbArc
 50
101.2422335217
 51
101.7364898826
  0
ARC
  5
2AF
330
1F
100
AcDbEntity
  8
0
  6
Continuous
 62
     7
370
    25
100
AcDbCircle
 10
-3.2093095676
 20
4.4920369516
 30
0.0
 40
2.349999999999999
100
AcDbArc
 50
30.2423138857
 51
33.894719428
  0
ARC
  5
2B0
330
1F
100
AcDbEntity
  8
0
  6
Continuous
 62
     7
370
    25
100
AcDbCircle
 10
0.0
 20
0.0
 30
0.0
 40
5.937500000000001
100
AcDbArc
 50
102.2386935588
 51
102.6549234625
  0
ARC
  5
2B1
330
1F
100
AcDbEntity
  8
0
  6
Continuous
 62
     7
370
    25
100
AcDbCircle
 10
1.0202810411
 20
5.4255958633
 30
0.0
 40
2.35
100
AcDbArc
 50
170.9988975933
 51
174.6513031355
  0
ARC
  5
2B2
330
1F
100
AcDbEntity
  8
0
  6
Continuous
 62
     7
370
    25
100
AcDbCircle
 10
0.0
 20
0.0
 30
0.0
 40
5.796824999999999
100
AcDbArc
 50
103.1571271387
 51
103.6513834996
  0
ARC
  5
2B3
330
1F
100
AcDbEntity
  8
0
  6
Continuous
 62
     7
370
    25
100
AcDbCircle
 10
-3.3576186842
 20
4.3822894298
 30
0.0
 40
2.35
100
AcDbArc
 50
32.1572075028
 51
35.809613045
  0
ARC
  5
2B4
330
1F
100
AcDbEntity
  8
0
  6
Continuous
 62
     7
370
    25
100
AcDbCircle
 10
0.0
 20
0.0
 30
0.0
 40
5.9375
100
AcDbArc
 50
104.1535871758
 51
104.5698170795
  0
ARC
  5
2B5
330
1F
100
AcDbEntity
  8
0
  6
Continuous
 62
     7
370
    25
100
AcDbCircle
 10
0.8384151181
 20
5.4566586813
 30
0.0
 40
2.35
100
AcDbArc
 50
172.9137912103
 51
176.5661967526
  0
ARC
  5
2B6
330
1F
100
AcDbEntity
  8
0
  6
Continuous
 62
     7
370
    25
100
AcDbCircle
 10
0.0
 20
0.0
 30
0.0
 40
5.796824999999998
100
AcDbArc
 50
105.0720207557
 51
105.5662771166
  0
ARC
  5
2B7
330
1F
100
AcDbEntity
  8
0
  6
Continuous
 62
     7
370
    25
100
AcDbCircle
 10
-3.5021777687
 20
4.2676474493
 30
0.0
 40
2.349999999999999
100
AcDbArc
 50
34.0721011198
 51
37.724506662
  0
ARC
  5
2B8
330
1F
100
AcDbEntity
  8
0
  6
Continuous
 62
     7
370
    25
100
AcDbCircle
 10
0.0
 20
0.0
 30
0.0
 40
5.937500000000001
100
AcDbArc
 50
106.0684807928
 51
106.4847106965
  0
ARC
  5
2B9
330
1F
100
AcDbEntity
  8
0
  6
Continuous
 62
     7
370
    25
100
AcDbCircle
 10
0.6556127924
 20
5.4816271071
 30
0.0
 40
2.35
100
AcDbArc
 50
174.8286848274
 51
178.4810903696
  0
ARC
  5
2BA
330
1F
100
AcDbEntity
  8
0
  6
Continuous
 62
     7
370
    25
100
AcDbCircle
 10
0.0
 20
0.0
 30
0.0
 40
5.796824999999997
100
AcDbArc
 50
106.9869143727
 51
107.4811707337
  0
ARC
  5
2BB
330
1F
100
AcDbEntity
  8
0
  6
Continuous
 62
     7
370
    25
100
AcDbCircle
 10
-3.642825367
 20
4.1482390506
 30
0.0
 40
2.349999999999999
100
AcDbArc
 50
35.9869947368
 51
39.639400279
  0
ARC
  5
2BC
330
1F
100
AcDbEntity
  8
0
  6
Continuous
 62
     7
370
    25
100
AcDbCircle
 10
0.0
 20
0.0
 30
0.0
 40
5.937500000000001
100
AcDbArc
 50
107.9833744098
 51
108.3996043136
  0
ARC
  5
2BD
330
1F
100
AcDbEntity
  8
0
  6
Continuous
 62
     7
370
    25
100
AcDbCircle
 10
0.4720782307
 20
5.5004732541
 30
0.0
 40
2.350000000000001
100
AcDbArc
 50
176.7435784444
 51
180.3959839866
  0
ARC
  5
2BE
330
1F
100
AcDbEntity
  8
0
  6
Continuous
 62
     7
370
    25
100
AcDbCircle
 10
0.0
 20
0.0
 30
0.0
 40
5.796824999999999
100
AcDbArc
 50
108.9018079897
 51
109.3960643507
  0
ARC
  5
2BF
330
1F
100
AcDbEntity
  8
0
  6
Continuous
 62
     7
370
    25
100
AcDbCircle
 10
-3.7794043937
 20
4.0241975975
 30
0.0
 40
2.35
100
AcDbArc
 50
37.9018883538
 51
41.554293896
  0
ARC
  5
2C0
330
1F
100
AcDbEntity
  8
0
  6
Continuous
 62
     7
370
    25
100
AcDbCircle
 10
0.0
 20
0.0
 30
0.0
 40
5.937499999999999
100
AcDbArc
 50
109.8982680269
 51
110.3144979306
  0
ARC
  5
2C1
330
1F
100
AcDbEntity
  8
0
  6
Continuous
 62
     7
370
    25
100
AcDbCircle
 10
0.2880164177
 20
5.5131760736
 30
0.0
 40
2.35
100
AcDbArc
 50
178.6584720614
 51
182.3108776036
  0
ARC
  5
2C2
330
1F
100
AcDbEntity
  8
0
  6
Continuous
 62
     7
370
    25
100
AcDbCircle
 10
0.0
 20
0.0
 30
0.0
 40
5.796824999999999
100
AcDbArc
 50
110.8167016068
 51
111.3109579677
  0
ARC
  5
2C3
330
1F
100
AcDbEntity
  8
0
  6
Continuous
 62
     7
370
    25
100
AcDbCircle
 10
-3.9117623074
 20
3.8956616287
 30
0.0
 40
2.35
100
AcDbArc
 50
39.8167819708
 51
43.4691875131
  0
ARC
  5
2C4
330
1F
100
AcDbEntity
  8
0
  6
Continuous
 62
     7
370
    25
100
AcDbCircle
 10
0.0
 20
0.0
 30
0.0
 40
5.937500000000001
100
AcDbArc
 50
111.8131616439
 51
112.2293915476
  0
ARC
  5
2C5
330
1F
100
AcDbEntity
  8
0
  6
Continuous
 62
     7
370
    25
100
AcDbCircle
 10
0.1036329272
 20
5.519721378
 30
0.0
 40
2.35
100
AcDbArc
 50
180.5733656784
 51
184.2257712206
  0
ARC
  5
2C6
330
1F
100
AcDbEntity
  8
0
  6
Continuous
 62
     7
370
    25
100
AcDbCircle
 10
0.0
 20
0.0
 30
0.0
 40
5.796824999999999
100
AcDbArc
 50
112.7315952238
 51
113.2258515847
  0
ARC
  5
2C7
330
1F
100
AcDbEntity
  8
0
  6
Continuous
 62
     7
370
    25
100
AcDbCircle
 10
-4.0397512812
 20
3.7627747024
 30
0.0
 40
2.35
100
AcDbArc
 50
41.7316755879
 51
45.3840811301
  0
ARC
  5
2C8
330
1F
100
AcDbEntity
  8
0
  6
Continuous
 62
     7
370
    25
100
AcDbCircle
 10
0.0
 20
0.0
 30
0.0
 40
5.937500000000001
100
AcDbArc
 50
113.7280552609
 51
114.1442851646
  0
ARC
  5
2C9
330
1F
100
AcDbEntity
  8
0
  6
Continuous
 62
     7
370
    25
100
AcDbCircle
 10
-0.0808663081
 20
5.5201018573
 30
0.0
 40
2.35
100
AcDbArc
 50
182.4882592955
 51
186.1406648377
  0
ARC
  5
2CA
330
1F
100
AcDbEntity
  8
0
  6
Continuous
 62
     7
370
    25
100
AcDbCircle
 10
0.0
 20
0.0
 30
0.0
 40
5.796825000000001
100
AcDbArc
 50
114.6464888408
 51
115.1407452017
  0
ARC
  5
2CB
330
1F
100
AcDbEntity
  8
0
  6
Continuous
 62
     7
370
    25
100
AcDbCircle
 10
-4.1632283677
 20
3.6256852364
 30
0.0
 40
2.35
100
AcDbArc
 50
43.6465692049
 51
47.2989747471
  0
ARC
  5
2CC
330
1F
100
AcDbEntity
  8
0
  6
Continuous
 62
     7
370
    25
100
AcDbCircle
 10
0.0
 20
0.0
 30
0.0
 40
5.937500000000001
100
AcDbArc
 50
115.6429488779
 51
116.0591787816
  0
ARC
  5
2CD
330
1F
100
AcDbEntity
  8
0
  6
Continuous
 62
     7
370
    25
100
AcDbCircle
 10
-0.2652752261
 20
5.5143170864
 30
0.0
 40
2.35
100
AcDbArc
 50
184.4031529125
 51
188.0555584547
  0
ARC
  5
2CE
330
1F
100
AcDbEntity
  8
0
  6
Continuous
 62
     7
370
    25
100
AcDbCircle
 10
0.0
 20
0.0
 30
0.0
 40
5.796824999999999
100
AcDbArc
 50
116.5613824578
 51
117.0556388188
  0
ARC
  5
2CF
330
1F
100
AcDbEntity
  8
0
  6
Continuous
 62
     7
370
    25
100
AcDbCircle
 10
-4.2820556588
 20
3.484546342
 30
0.0
 40
2.35
100
AcDbArc
 50
45.5614628219
 51
49.2138683641
  0
ARC
  5
2D0
330
1F
100
AcDbEntity
  8
0
  6
Continuous
 62
     7
370
    25
100
AcDbCircle
 10
0.0
 20
0.0
 30
0.0
 40
5.937500000000001
100
AcDbArc
 50
117.557842495
 51
117.9740723987
  0
ARC
  5
2D1
330
1F
100
AcDbEntity
  8
0
  6
Continuous
 62
     7
370
    25
100
AcDbCircle
 10
-0.4493878655
 20
5.5023735261
 30
0.0
 40
2.35
100
AcDbArc
 50
186.3180465295
 51
189.9704520717
  0
ARC
  5
2D2
330
1F
100
AcDbEntity
  8
0
  6
Continuous
 62
     7
370
    25
100
AcDbCircle
 10
0.0
 20
0.0
 30
0.0
 40
5.796824999999999
100
AcDbArc
 50
118.4762760748
 51
118.9705324358
  0
ARC
  5
2D3
330
1F
100
AcDbEntity
  8
0
  6
Continuous
 62
     7
370
    25
100
AcDbCircle
 10
-4.3961004395
 20
3.3395156536
 30
0.0
 40
2.35
100
AcDbArc
 50
47.4763564389
 51
51.1287619811
  0
ARC
  5
2D4
330
1F
100
AcDbEntity
  8
0
  6
Continuous
 62
     7
370
    25
100
AcDbCircle
 10
0.0
 20
0.0
 30
0.0
 40
5.9375
100
AcDbArc
 50
119.472736112
 51
119.8889660157
  0
ARC
  5
2D5
330
1F
100
AcDbEntity
  8
0
  6
Continuous
 62
     7
370
    25
100
AcDbCircle
 10
-0.6329985958
 20
5.484284516
 30
0.0
 40
2.35
100
AcDbArc
 50
188.2329401465
 51
191.8853456887
  0
ARC
  5
2D6
330
1F
100
AcDbEntity
  8
0
  6
Continuous
 62
     7
370
    25
100
AcDbCircle
 10
0.0
 20
0.0
 30
0.0
 40
5.796824999999998
100
AcDbArc
 50
120.3911696919
 51
120.8854260528
  0
ARC
  5
2D7
330
1F
100
AcDbEntity
  8
0
  6
Continuous
 62
     7
370
    25
100
AcDbCircle
 10
-4.5052353364
 20
3.1907551518
 30
0.0
 40
2.349999999999999
100
AcDbArc
 50
49.391250056
 51
53.0436555982
  0
ARC
  5
2D8
330
1F
100
AcDbEntity
  8
0
  6
Continuous
 62
     7
370
    25
100
AcDbCircle
 10
0.0
 20
0.0
 30
0.0
 40
5.937500000000001
100
AcDbArc
 50
121.387629729
 51
121.8038596327
  0
ARC
  5
2D9
330
1F
100
AcDbEntity
  8
0
  6
Continuous
 62
     7
370
    25
100
AcDbCircle
 10
-0.8159023475
 20
5.4600702591
 30
0.0
 40
2.350000000000001
100
AcDbArc
 50
190.1478337635
 51
193.8002393058
  0
ARC
  5
2DA
330
1F
100
AcDbEntity
  8
0
  6
Continuous
 62
     7
370
    25
100
AcDbCircle
 10
0.0
 20
0.0
 30
0.0
 40
5.796824999999999
100
AcDbArc
 50
122.3060633089
 51
122.8003196698
  0
ARC
  5
2DB
330
1F
100
AcDbEntity
  8
0
  6
Continuous
 62
     7
370
    25
100
AcDbCircle
 10
-4.6093384596
 20
3.0384309832
 30
0.0
 40
2.35
100
AcDbArc
 50
51.306143673
 51
54.9585492152
  0
ARC
  5
2DC
330
1F
100
AcDbEntity
  8
0
  6
Continuous
 62
     7
370
    25
100
AcDbCircle
 10
0.0
 20
0.0
 30
0.0
 40
5.937500000000001
100
AcDbArc
 50
123.302523346
 51
123.7187532497
  0
ARC
  5
2DD
330
1F
100
AcDbEntity
  8
0
  6
Continuous
 62
     7
370
    25
100
AcDbCircle
 10
-0.9978948402
 20
5.4297577996
 30
0.0
 40
2.350000000000001
100
AcDbArc
 50
192.0627273806
 51
195.7151329228
  0
ARC
  5
2DE
330
1F
100
AcDbEntity
  8
0
  6
Continuous
 62
     7
370
    25
100
AcDbCircle
 10
0.0
 20
0.0
 30
0.0
 40
5.796824999999999
100
AcDbArc
 50
124.2209569259
 51
124.7152132869
  0
ARC
  5
2DF
330
1F
100
AcDbEntity
  8
0
  6
Continuous
 62
     7
370
    25
100
AcDbCircle
 10
-4.7082935392
 20
2.8827132745
 30
0.0
 40
2.35
100
AcDbArc
 50
53.22103729
 51
56.8734428322
  0
ARC
  5
2E0
330
1F
100
AcDbEntity
  8
0
  6
Continuous
 62
     7
370
    25
100
AcDbCircle
 10
0.0
 20
0.0
 30
0.0
 40
5.9375
100
AcDbArc
 50
125.217416963
 51
125.6336468668
  0
ARC
  5
2E1
330
1F
100
AcDbEntity
  8
0
  6
Continuous
 62
     7
370
    25
100
AcDbCircle
 10
-1.1787728115
 20
5.3933809928
 30
0.0
 40
2.35
100
AcDbArc
 50
193.9776209976
 51
197.6300265398
  0
ARC
  5
2E2
330
1F
100
AcDbEntity
  8
0
  6
Continuous
 62
     7
370
    25
100
AcDbCircle
 10
0.0
 20
0.0
 30
0.0
 40
5.796824999999999
100
AcDbArc
 50
126.1358505429
 51
126.6301069039
  0
ARC
  5
2E3
330
1F
100
AcDbEntity
  8
0
  6
Continuous
 62
     7
370
    25
100
AcDbCircle
 10
-4.8019900552
 20
2.7237759425
 30
0.0
 40
2.349999999999999
100
AcDbArc
 50
55.135930907
 51
58.7883364492
  0
ARC
  5
2E4
330
1F
100
AcDbEntity
  8
0
  6
Continuous
 62
     7
370
    25
100
AcDbCircle
 10
0.0
 20
0.0
 30
0.0
 40
5.937499999999999
100
AcDbArc
 50
127.1323105801
 51
127.5485404838
  0
ARC
  5
2E5
330
1F
100
AcDbEntity
  8
0
  6
Continuous
 62
     7
370
    25
100
AcDbCircle
 10
-1.3583342439
 20
5.3509804669
 30
0.0
 40
2.350000000000001
100
AcDbArc
 50
195.8925146146
 51
199.5449201568
  0
ARC
  5
2E6
330
1F
100
AcDbEntity
  8
0
  6
Continuous
 62
     7
370
    25
100
AcDbCircle
 10
0.0
 20
0.0
 30
0.0
 40
5.796824999999999
100
AcDbArc
 50
128.05074416
 51
128.5450005209
  0
ARC
  5
2E7
330
1F
100
AcDbEntity
  8
0
  6
Continuous
 62
     7
370
    25
100
AcDbCircle
 10
-4.8903233602
 20
2.5617965
 30
0.0
 40
2.35
100
AcDbArc
 50
57.050824524
 51
60.7032300662
  0
ARC
  5
2E8
330
1F
100
AcDbEntity
  8
0
  6
Continuous
 62
     7
370
    25
100
AcDbCircle
 10
0.0
 20
0.0
 30
0.0
 40
5.9375
100
AcDbArc
 50
129.0472041971
 51
129.4634341008
  0
ARC
  5
2E9
330
1F
100
AcDbEntity
  8
0
  6
Continuous
 62
     7
370
    25
100
AcDbCircle
 10
-1.5363785901
 20
5.3026035778
 30
0.0
 40
2.35
100
AcDbArc
 50
197.8074082316
 51
201.4598137738
  0
ARC
  5
2EA
330
1F
100
AcDbEntity
  8
0
  6
Continuous
 62
     7
370
    25
100
AcDbCircle
 10
0.0
 20
0.0
 30
0.0
 40
5.796824999999998
100
AcDbArc
 50
129.965637777
 51
130.4598941379
  0
ARC
  5
2EB
330
1F
100
AcDbEntity
  8
0
  6
Continuous
 62
     7
370
    25
100
AcDbCircle
 10
-4.9731947974
 20
2.3969558572
 30
0.0
 40
2.349999999999999
100
AcDbArc
 50
58.9657181411
 51
62.6181236833
  0
ARC
  5
2EC
330
1F
100
AcDbEntity
  8
0
  6
Continuous
 62
     7
370
    25
100
AcDbCircle
 10
0.0
 20
0.0
 30
0.0
 40
5.9375
100
AcDbArc
 50
130.9620978141
 51
131.3783277178
  0
ARC
  5
2ED
330
1F
100
AcDbEntity
  8
0
  6
Continuous
 62
     7
370
    25
100
AcDbCircle
 10
-1.7127069972
 20
5.2483043563
 30
0.0
 40
2.350000000000001
100
AcDbArc
 50
199.7223018486
 51
203.3747073909
  0
ARC
  5
2EE
330
1F
100
AcDbEntity
  8
0
  6
Continuous
 62
     7
370
    25
100
AcDbCircle
 10
0.0
 20
0.0
 30
0.0
 40
5.796824999999998
100
AcDbArc
 50
131.880531394
 51
132.3747877549
  0
ARC
  5
2EF
330
1F
100
AcDbEntity
  8
0
  6
Continuous
 62
     7
370
    25
100
AcDbCircle
 10
-5.05051181
 20
2.2294381203
 30
0.0
 40
2.35
100
AcDbArc
 50
60.8806117581
 51
64.5330173003
  0
ARC
  5
2F0
330
1F
100
AcDbEntity
  8
0
  6
Continuous
 62
     7
370
    25
100
AcDbCircle
 10
0.0
 20
0.0
 30
0.0
 40
5.937500000000001
100
AcDbArc
 50
132.8769914311
 51
133.2932213348
  0
ARC
  5
2F1
330
1F
100
AcDbEntity
  8
0
  6
Continuous
 62
     7
370
    25
100
AcDbCircle
 10
-1.8871225289
 20
5.1881434479
 30
0.0
 40
2.350000000000001
100
AcDbArc
 50
201.6371954657
 51
205.2896010079
  0
ARC
  5
2F2
330
1F
100
AcDbEntity
  8
0
  6
Continuous
 62
     7
370
    25
100
AcDbCircle
 10
0.0
 20
0.0
 30
0.0
 40
5.796824999999999
100
AcDbArc
 50
133.795425011
 51
134.289681372
  0
ARC
  5
2F3
330
1F
100
AcDbEntity
  8
0
  6
Continuous
 62
     7
370
    25
100
AcDbCircle
 10
-5.1221880445
 20
2.0594303852
 30
0.0
 40
2.35
100
AcDbArc
 50
62.7955053751
 51
66.4479109173
  0
ARC
  5
2F4
330
1F
100
AcDbEntity
  8
0
  6
Continuous
 62
     7
370
    25
100
AcDbCircle
 10
0.0
 20
0.0
 30
0.0
 40
5.9375
100
AcDbArc
 50
134.7918850481
 51
135.2081149519
  0
ARC
  5
2F5
330
1F
100
AcDbEntity
  8
0
  6
Continuous
 62
     7
370
    25
100
AcDbCircle
 10
-2.0594303852
 20
5.1221880445
 30
0.0
 40
2.35
100
AcDbArc
 50
203.5520890827
 51
207.2044946249
  0
ARC
  5
2F6
330
1F
100
AcDbEntity
  8
0
  6
Continuous
 62
     7
370
    25
100
AcDbCircle
 10
0.0
 20
0.0
 30
0.0
 40
5.796824999999999
100
AcDbArc
 50
135.710318628
 51
136.204574989
  0
ARC
  5
2F7
330
1F
100
AcDbEntity
  8
0
  6
Continuous
 62
     7
370
    25
100
AcDbCircle
 10
-5.1881434479
 20
1.8871225289
 30
0.0
 40
2.35
100
AcDbArc
 50
64.7103989921
 51
68.3628045343
  0
ARC
  5
2F8
330
1F
100
AcDbEntity
  8
0
  6
Continuous
 62
     7
370
    25
100
AcDbCircle
 10
0.0
 20
0.0
 30
0.0
 40
5.937500000000001
100
AcDbArc
 50
136.7067786652
 51
137.1230085689
  0
ARC
  5
2F9
330
1F
100
AcDbEntity
  8
0
  6
Continuous
 62
     7
370
    25
100
AcDbCircle
 10
-2.2294381203
 20
5.05051181
 30
0.0
 40
2.350000000000001
100
AcDbArc
 50
205.4669826997
 51
209.1193882419
  0
ARC
  5
2FA
330
1F
100
AcDbEntity
  8
0
  6
Continuous
 62
     7
370
    25
100
AcDbCircle
 10
0.0
 20
0.0
 30
0.0
 40
5.796824999999999
100
AcDbArc
 50
137.6252122451
 51
138.119468606
  0
ARC
  5
2FB
330
1F
100
AcDbEntity
  8
0
  6
Continuous
 62
     7
370
    25
100
AcDbCircle
 10
-5.2483043563
 20
1.7127069972
 30
0.0
 40
2.35
100
AcDbArc
 50
66.6252926091
 51
70.2776981514
  0
ARC
  5
2FC
330
1F
100
AcDbEntity
  8
0
  6
Continuous
 62
     7
370
    25
100
AcDbCircle
 10
0.0
 20
0.0
 30
0.0
 40
5.937500000000001
100
AcDbArc
 50
138.6216722822
 51
139.0379021859
  0
ARC
  5
2FD
330
1F
100
AcDbEntity
  8
0
  6
Continuous
 62
     7
370
    25
100
AcDbCircle
 10
-2.3969558572
 20
4.9731947974
 30
0.0
 40
2.35
100
AcDbArc
 50
207.3818763167
 51
211.0342818589
  0
ARC
  5
2FE
330
1F
100
AcDbEntity
  8
0
  6
Continuous
 62
     7
370
    25
100
AcDbCircle
 10
0.0
 20
0.0
 30
0.0
 40
5.796824999999998
100
AcDbArc
 50
139.5401058621
 51
140.034362223
  0
ARC
  5
2FF
330
1F
100
AcDbEntity
  8
0
  6
Continuous
 62
     7
370
    25
100
AcDbCircle
 10
-5.3026035778
 20
1.5363785901
 30
0.0
 40
2.35
100
AcDbArc
 50
68.5401862262
 51
72.1925917684
  0
ARC
  5
300
330
1F
100
AcDbEntity
  8
0
  6
Continuous
 62
     7
370
    25
100
AcDbCircle
 10
0.0
 20
0.0
 30
0.0
 40
5.9375
100
AcDbArc
 50
140.5365658992
 51
140.9527958029
  0
ARC
  5
301
330
1F
100
AcDbEntity
  8
0
  6
Continuous
 62
     7
370
    25
100
AcDbCircle
 10
-2.5617965
 20
4.8903233602
 30
0.0
 40
2.35
100
AcDbArc
 50
209.2967699338
 51
212.949175476
  0
ARC
  5
302
330
1F
100
AcDbEntity
  8
0
  6
Continuous
 62
     7
370
    25
100
AcDbCircle
 10
0.0
 20
0.0
 30
0.0
 40
5.796824999999999
100
AcDbArc
 50
141.4549994791
 51
141.94925584
  0
ARC
  5
303
330
1F
100
AcDbEntity
  8
0
  6
Continuous
 62
     7
370
    25
100
AcDbCircle
 10
-5.3509804669
 20
1.3583342439
 30
0.0
 40
2.35
100
AcDbArc
 50
70.4550798432
 51
74.1074853854
  0
ARC
  5
304
330
1F
100
AcDbEntity
  8
0
  6
Continuous
 62
     7
370
    25
100
AcDbCircle
 10
0.0
 20
0.0
 30
0.0
 40
5.937500000000001
100
AcDbArc
 50
142.4514595162
 51
142.8676894199
  0
ARC
  5
305
330
1F
100
AcDbEntity
  8
0
  6
Continuous
 62
     7
370
    25
100
AcDbCircle
 10
-2.7237759425
 20
4.8019900552
 30
0.0
 40
2.350000000000001
100
AcDbArc
 50
211.2116635508
 51
214.864069093
  0
ARC
  5
306
330
1F
100
AcDbEntity
  8
0
  6
Continuous
 62
     7
370
    25
100
AcDbCircle
 10
0.0
 20
0.0
 30
0.0
 40
5.796824999999998
100
AcDbArc
 50
143.3698930961
 51
143.8641494571
  0
ARC
  5
307
330
1F
100
AcDbEntity
  8
0
  6
Continuous
 62
     7
370
    25
100
AcDbCircle
 10
-5.3933809928
 20
1.1787728115
 30
0.0
 40
2.35
100
AcDbArc
 50
72.3699734602
 51
76.0223790024
  0
ARC
  5
308
330
1F
100
AcDbEntity
  8
0
  6
Continuous
 62
     7
370
    25
100
AcDbCircle
 10
0.0
 20
0.0
 30
0.0
 40
5.9375
100
AcDbArc
 50
144.3663531332
 51
144.782583037
  0
ARC
  5
309
330
1F
100
AcDbEntity
  8
0
  6
Continuous
 62
     7
370
    25
100
AcDbCircle
 10
-2.8827132745
 20
4.7082935393
 30
0.0
 40
2.35
100
AcDbArc
 50
213.1265571678
 51
216.77896271
  0
ARC
  5
30A
330
1F
100
AcDbEntity
  8
0
  6
Continuous
 62
     7
370
    25
100
AcDbCircle
 10
0.0
 20
0.0
 30
0.0
 40
5.796824999999999
100
AcDbArc
 50
145.2847867131
 51
145.7790430741
  0
ARC
  5
30B
330
1F
100
AcDbEntity
  8
0
  6
Continuous
 62
     7
370
    25
100
AcDbCircle
 10
-5.4297577996
 20
0.9978948402
 30
0.0
 40
2.349999999999999
100
AcDbArc
 50
74.2848670772
 51
77.9372726194
  0
ARC
  5
30C
330
1F
100
AcDbEntity
  8
0
  6
Continuous
 62
     7
370
    25
100
AcDbCircle
 10
0.0
 20
0.0
 30
0.0
 40
5.937500000000001
100
AcDbArc
 50
146.2812467503
 51
146.697476654
  0
ARC
  5
30D
330
1F
100
AcDbEntity
  8
0
  6
Continuous
 62
     7
370
    25
100
AcDbCircle
 10
-3.0384309832
 20
4.6093384596
 30
0.0
 40
2.35
100
AcDbArc
 50
215.0414507848
 51
218.693856327
  0
ARC
  5
30E
330
1F
100
AcDbEntity
  8
0
  6
Continuous
 62
     7
370
    25
100
AcDbCircle
 10
0.0
 20
0.0
 30
0.0
 40
5.796824999999999
100
AcDbArc
 50
147.1996803302
 51
147.6939366911
  0
ARC
  5
30F
330
1F
100
AcDbEntity
  8
0
  6
Continuous
 62
     7
370
    25
100
AcDbCircle
 10
-5.4600702591
 20
0.8159023475
 30
0.0
 40
2.35
100
AcDbArc
 50
76.1997606942
 51
79.8521662365
  0
ARC
  5
310
330
1F
100
AcDbEntity
  8
0
  6
Continuous
 62
     7
370
    25
100
AcDbCircle
 10
0.0
 20
0.0
 30
0.0
 40
5.937499999999999
100
AcDbArc
 50
148.1961403673
 51
148.612370271
  0
ARC
  5
311
330
1F
100
AcDbEntity
  8
0
  6
Continuous
 62
     7
370
    25
100
AcDbCircle
 10
-3.1907551518
 20
4.5052353364
 30
0.0
 40
2.35
100
AcDbArc
 50
216.9563444018
 51
220.608749944
  0
ARC
  5
312
330
1F
100
AcDbEntity
  8
0
  6
Continuous
 62
     7
370
    25
100
AcDbCircle
 10
0.0
 20
0.0
 30
0.0
 40
5.796824999999999
100
AcDbArc
 50
149.1145739472
 51
149.6088303081
  0
ARC
  5
313
330
1F
100
AcDbEntity
  8
0
  6
Continuous
 62
     7
370
    25
100
AcDbCircle
 10
-5.484284516
 20
0.6329985958
 30
0.0
 40
2.35
100
AcDbArc
 50
78.1146543113
 51
81.7670598535
  0
ARC
  5
314
330
1F
100
AcDbEntity
  8
0
  6
Continuous
 62
     7
370
    25
100
AcDbCircle
 10
0.0
 20
0.0
 30
0.0
 40
5.9375
100
AcDbArc
 50
150.1110339843
 51
150.527263888
  0
ARC
  5
315
330
1F
100
AcDbEntity
  8
0
  6
Continuous
 62
     7
370
    25
100
AcDbCircle
 10
-3.3395156536
 20
4.3961004395
 30
0.0
 40
2.35
100
AcDbArc
 50
218.8712380189
 51
222.5236435611
  0
ARC
  5
316
330
1F
100
AcDbEntity
  8
0
  6
Continuous
 62
     7
370
    25
100
AcDbCircle
 10
0.0
 20
0.0
 30
0.0
 40
5.796824999999999
100
AcDbArc
 50
151.0294675642
 51
151.5237239252
  0
ARC
  5
317
330
1F
100
AcDbEntity
  8
0
  6
Continuous
 62
     7
370
    25
100
AcDbCircle
 10
-5.5023735261
 20
0.4493878655
 30
0.0
 40
2.349999999999999
100
AcDbArc
 50
80.0295479283
 51
83.6819534705
  0
ARC
  5
318
330
1F
100
AcDbEntity
  8
0
  6
Continuous
 62
     7
370
    25
100
AcDbCircle
 10
0.0
 20
0.0
 30
0.0
 40
5.937499999999999
100
AcDbArc
 50
152.0259276013
 51
152.442157505
  0
ARC
  5
319
330
1F
100
AcDbEntity
  8
0
  6
Continuous
 62
     7
370
    25
100
AcDbCircle
 10
-3.484546342
 20
4.2820556588
 30
0.0
 40
2.350000000000001
100
AcDbArc
 50
220.7861316359
 51
224.4385371781
  0
ARC
  5
31A
330
1F
100
AcDbEntity
  8
0
  6
Continuous
 62
     7
370
    25
100
AcDbCircle
 10
0.0
 20
0.0
 30
0.0
 40
5.796824999999999
100
AcDbArc
 50
152.9443611812
 51
153.4386175422
  0
ARC
  5
31B
330
1F
100
AcDbEntity
  8
0
  6
Continuous
 62
     7
370
    25
100
AcDbCircle
 10
-5.5143170864
 20
0.2652752261
 30
0.0
 40
2.35
100
AcDbArc
 50
81.9444415453
 51
85.5968470875
  0
ARC
  5
31C
330
1F
100
AcDbEntity
  8
0
  6
Continuous
 62
     7
370
    25
100
AcDbCircle
 10
0.0
 20
0.0
 30
0.0
 40
5.937500000000001
100
AcDbArc
 50
153.9408212184
 51
154.3570511221
  0
ARC
  5
31D
330
1F
100
AcDbEntity
  8
0
  6
Continuous
 62
     7
370
    25
100
AcDbCircle
 10
-3.6256852364
 20
4.1632283677
 30
0.0
 40
2.350000000000001
100
AcDbArc
 50
222.7010252529
 51
226.3534307951
  0
ARC
  5
31E
330
1F
100
AcDbEntity
  8
0
  6
Continuous
 62
     7
370
    25
100
AcDbCircle
 10
0.0
 20
0.0
 30
0.0
 40
5.796824999999999
100
AcDbArc
 50
154.8592547983
 51
155.3535111592
  0
ARC
  5
31F
330
1F
100
AcDbEntity
  8
0
  6
Continuous
 62
     7
370
    25
100
AcDbCircle
 10
-5.5201018573
 20
0.0808663081
 30
0.0
 40
2.35
100
AcDbArc
 50
83.8593351623
 51
87.5117407045
  0
ARC
  5
320
330
1F
100
AcDbEntity
  8
0
  6
Continuous
 62
     7
370
    25
100
AcDbCircle
 10
0.0
 20
0.0
 30
0.0
 40
5.937500000000001
100
AcDbArc
 50
155.8557148354
 51
156.2719447391
  0
ARC
  5
321
330
1F
100
AcDbEntity
  8
0
  6
Continuous
 62
     7
370
    25
100
AcDbCircle
 10
-3.7627747024
 20
4.0397512812
 30
0.0
 40
2.350000000000001
100
AcDbArc
 50
224.6159188699
 51
228.2683244121
  0
ARC
  5
322
330
1F
100
AcDbEntity
  8
0
  6
Continuous
 62
     7
370
    25
100
AcDbCircle
 10
0.0
 20
0.0
 30
0.0
 40
5.796825
100
AcDbArc
 50
156.7741484153
 51
157.2684047762
  0
ARC
  5
323
330
1F
100
AcDbEntity
  8
0
  6
Continuous
 62
     7
370
    25
100
AcDbCircle
 10
-5.519721378
 20
-0.1036329272
 30
0.0
 40
2.349999999999999
100
AcDbArc
 50
85.7742287794
 51
89.4266343216
  0
ARC
  5
324
330
1F
100
AcDbEntity
  8
0
  6
Continuous
 62
     7
370
    25
100
AcDbCircle
 10
0.0
 20
0.0
 30
0.0
 40
5.937500000000001
100
AcDbArc
 50
157.7706084524
 51
158.1868383561
  0
ARC
  5
325
330
1F
100
AcDbEntity
  8
0
  6
Continuous
 62
     7
370
    25
100
AcDbCircle
 10
-3.8956616287
 20
3.9117623074
 30
0.0
 40
2.350000000000001
100
AcDbArc
 50
226.5308124869
 51
230.1832180292
  0
ARC
  5
326
330
1F
100
AcDbEntity
  8
0
  6
Continuous
 62
     7
370
    25
100
AcDbCircle
 10
0.0
 20
0.0
 30
0.0
 40
5.796824999999999
100
AcDbArc
 50
158.6890420323
 51
159.1832983932
  0
ARC
  5
327
330
1F
100
AcDbEntity
  8
0
  6
Continuous
 62
     7
370
    25
100
AcDbCircle
 10
-5.5131760736
 20
-0.2880164177
 30
0.0
 40
2.35
100
AcDbArc
 50
87.6891223964
 51
91.3415279386
  0
ARC
  5
328
330
1F
100
AcDbEntity
  8
0
  6
Continuous
 62
     7
370
    25
100
AcDbCircle
 10
0.0
 20
0.0
 30
0.0
 40
5.937500000000002
100
AcDbArc
 50
159.6855020694
 51
160.1017319731
  0
ARC
  5
329
330
1F
100
AcDbEntity
  8
0
  6
Continuous
 62
     7
370
    25
100
AcDbCircle
 10
-4.0241975975
 20
3.7794043937
 30
0.0
 40
2.350000000000001
100
AcDbArc
 50
228.445706104
 51
232.0981116462
  0
ARC
  5
32A
330
1F
100
AcDbEntity
  8
0
  6
Continuous
 62
     7
370
    25
100
AcDbCircle
 10
0.0
 20
0.0
 30
0.0
 40
5.796825
100
AcDbArc
 50
160.6039356493
 51
161.0981920103
  0
ARC
  5
32B
330
1F
100
AcDbEntity
  8
0
  6
Continuous
 62
     7
370
    25
100
AcDbCircle
 10
-5.5004732541
 20
-0.4720782307
 30
0.0
 40
2.35
100
AcDbArc
 50
89.6040160134
 51
93.2564215556
  0
ARC
  5
32C
330
1F
100
AcDbEntity
  8
0
  6
Continuous
 62
     7
370
    25
100
AcDbCircle
 10
0.0
 20
0.0
 30
0.0
 40
5.937500000000001
100
AcDbArc
 50
161.6003956864
 51
162.0166255902
  0
ARC
  5
32D
330
1F
100
AcDbEntity
  8
0
  6
Continuous
 62
     7
370
    25
100
AcDbCircle
 10
-4.1482390506
 20
3.642825367
 30
0.0
 40
2.35
100
AcDbArc
 50
230.360599721
 51
234.0130052632
  0
ARC
  5
32E
330
1F
100
AcDbEntity
  8
0
  6
Continuous
 62
     7
370
    25
100
AcDbCircle
 10
0.0
 20
0.0
 30
0.0
 40
5.796824999999999
100
AcDbArc
 50
162.5188292663
 51
163.0130856273
  0
ARC
  5
32F
330
1F
100
AcDbEntity
  8
0
  6
Continuous
 62
     7
370
    25
100
AcDbCircle
 10
-5.4816271071
 20
-0.6556127924
 30
0.0
 40
2.349999999999999
100
AcDbArc
 50
91.5189096304
 51
95.1713151726
  0
ARC
  5
330
330
1F
100
AcDbEntity
  8
0
  6
Continuous
 62
     7
370
    25
100
AcDbCircle
 10
0.0
 20
0.0
 30
0.0
 40
5.937500000000001
100
AcDbArc
 50
163.5152893035
 51
163.9315192072
  0
ARC
  5
331
330
1F
100
AcDbEntity
  8
0
  6
Continuous
 62
     7
370
    25
100
AcDbCircle
 10
-4.2676474493
 20
3.5021777687
 30
0.0
 40
2.350000000000001
100
AcDbArc
 50
232.275493338
 51
235.9278988802
  0
ARC
  5
332
330
1F
100
AcDbEntity
  8
0
  6
Continuous
 62
     7
370
    25
100
AcDbCircle
 10
0.0
 20
0.0
 30
0.0
 40
5.796824999999999
100
AcDbArc
 50
164.4337228834
 51
164.9279792443
  0
ARC
  5
333
330
1F
100
AcDbEntity
  8
0
  6
Continuous
 62
     7
370
    25
100
AcDbCircle
 10
-5.4566586813
 20
-0.8384151181
 30
0.0
 40
2.35
100
AcDbArc
 50
93.4338032474
 51
97.0862087897
  0
ARC
  5
334
330
1F
100
AcDbEntity
  8
0
  6
Continuous
 62
     7
370
    25
100
AcDbCircle
 10
0.0
 20
0.0
 30
0.0
 40
5.9375
100
AcDbArc
 50
165.4301829205
 51
165.8464128242
  0
ARC
  5
335
330
1F
100
AcDbEntity
  8
0
  6
Continuous
 62
     7
370
    25
100
AcDbCircle
 10
-4.3822894298
 20
3.3576186842
 30
0.0
 40
2.35
100
AcDbArc
 50
234.190386955
 51
237.8427924972
  0
ARC
  5
336
330
1F
100
AcDbEntity
  8
0
  6
Continuous
 62
     7
370
    25
100
AcDbCircle
 10
0.0
 20
0.0
 30
0.0
 40
5.796824999999999
100
AcDbArc
 50
166.3486165004
 51
166.8428728613
  0
ARC
  5
337
330
1F
100
AcDbEntity
  8
0
  6
Continuous
 62
     7
370
    25
100
AcDbCircle
 10
-5.4255958633
 20
-1.0202810411
 30
0.0
 40
2.35
100
AcDbArc
 50
95.3486968645
 51
99.0011024067
  0
ARC
  5
338
330
1F
100
AcDbEntity
  8
0
  6
Continuous
 62
     7
370
    25
100
AcDbCircle
 10
0.0
 20
0.0
 30
0.0
 40
5.937499999999999
100
AcDbArc
 50
167.3450765375
 51
167.7613064412
  0
ARC
  5
339
330
1F
100
AcDbEntity
  8
0
  6
Continuous
 62
     7
370
    25
100
AcDbCircle
 10
-4.4920369516
 20
3.2093095676
 30
0.0
 40
2.35
100
AcDbArc
 50
236.105280572
 51
239.7576861143
  0
ARC
  5
33A
330
1F
100
AcDbEntity
  8
0
  6
Continuous
 62
     7
370
    25
100
AcDbCircle
 10
0.0
 20
0.0
 30
0.0
 40
5.796824999999998
100
AcDbArc
 50
168.2635101174
 51
168.7577664783
  0
ARC
  5
33B
330
1F
100
AcDbEntity
  8
0
  6
Continuous
 62
     7
370
    25
100
AcDbCircle
 10
-5.3884733463
 20
-1.2010074402
 30
0.0
 40
2.35
100
AcDbArc
 50
97.2635904815
 51
100.9159960237
  0
ARC
  5
33C
330
1F
100
AcDbEntity
  8
0
  6
Continuous
 62
     7
370
    25
100
AcDbCircle
 10
0.0
 20
0.0
 30
0.0
 40
5.937500000000001
100
AcDbArc
 50
169.2599701545
 51
169.6762000582
  0
ARC
  5
33D
330
1F
100
AcDbEntity
  8
0
  6
Continuous
 62
     7
370
    25
100
AcDbCircle
 10
-4.5967674406
 20
3.0574160613
 30
0.0
 40
2.35
100
AcDbArc
 50
238.0201741891
 51
241.6725797313
  0
ARC
  5
33E
330
1F
100
AcDbEntity
  8
0
  6
Continuous
 62
     7
370
    25
100
AcDbCircle
 10
0.0
 20
0.0
 30
0.0
 40
5.796824999999999
100
AcDbArc
 50
170.1784037344
 51
170.6726600954
  0
ARC
  5
33F
330
1F
100
AcDbEntity
  8
0
  6
Continuous
 62
     7
370
    25
100
AcDbCircle
 10
-5.3453325913
 20
-1.3803924671
 30
0.0
 40
2.349999999999999
100
AcDbArc
 50
99.1784840985
 51
102.8308896407
  0
ARC
  5
340
330
1F
100
AcDbEntity
  8
0
  6
Continuous
 62
     7
370
    25
100
AcDbCircle
 10
0.0
 20
0.0
 30
0.0
 40
5.9375
100
AcDbArc
 50
171.1748637715
 51
171.5910936753
  0
ARC
  5
341
330
1F
100
AcDbEntity
  8
0
  6
Continuous
 62
     7
370
    25
100
AcDbCircle
 10
-4.6963639263
 20
2.9021078109
 30
0.0
 40
2.35
100
AcDbArc
 50
239.9350678061
 51
243.5874733483
  0
ARC
  5
342
330
1F
100
AcDbEntity
  8
0
  6
Continuous
 62
     7
370
    25
100
AcDbCircle
 10
0.0
 20
0.0
 30
0.0
 40
5.796824999999998
100
AcDbArc
 50
172.0932973514
 51
172.5875537124
  0
ARC
  5
343
330
1F
100
AcDbEntity
  8
0
  6
Continuous
 62
     7
370
    25
100
AcDbCircle
 10
-5.2962217812
 20
-1.5582357715
 30
0.0
 40
2.349999999999999
100
AcDbArc
 50
101.0933777155
 51
104.7457832577
  0
ARC
  5
344
330
1F
100
AcDbEntity
  8
0
  6
Continuous
 62
     7
370
    25
100
AcDbCircle
 10
0.0
 20
0.0
 30
0.0
 40
5.9375
100
AcDbArc
 50
173.0897573886
 51
173.5059872923
  0
ARC
  5
345
330
1F
100
AcDbEntity
  8
0
  6
Continuous
 62
     7
370
    25
100
AcDbCircle
 10
-4.7907151722
 20
2.7435582761
 30
0.0
 40
2.35
100
AcDbArc
 50
241.8499614231
 51
245.5023669653
  0
ARC
  5
346
330
1F
100
AcDbEntity
  8
0
  6
Continuous
 62
     7
370
    25
100
AcDbCircle
 10
0.0
 20
0.0
 30
0.0
 40
5.796824999999999
100
AcDbArc
 50
174.0081909685
 51
174.5024473294
  0
ARC
  5
347
330
1F
100
AcDbEntity
  8
0
  6
Continuous
 62
     7
370
    25
100
AcDbCircle
 10
-5.2411957664
 20
-1.7343387251
 30
0.0
 40
2.35
100
AcDbArc
 50
103.0082713325
 51
106.6606768748
  0
ARC
  5
348
330
1F
100
AcDbEntity
  8
0
  6
Continuous
 62
     7
370
    25
100
AcDbCircle
 10
0.0
 20
0.0
 30
0.0
 40
5.9375
100
AcDbArc
 50
175.0046510056
 51
175.4208809093
  0
ARC
  5
349
330
1F
100
AcDbEntity
  8
0
  6
Continuous
 62
     7
370
    25
100
AcDbCircle
 10
-4.8797157998
 20
2.5819445363
 30
0.0
 40
2.35
100
AcDbArc
 50
243.7648550401
 51
247.4172605823
  0
ARC
  5
34A
330
1F
100
AcDbEntity
  8
0
  6
Continuous
 62
     7
370
    25
100
AcDbCircle
 10
0.0
 20
0.0
 30
0.0
 40
5.796824999999999
100
AcDbArc
 50
175.9230845855
 51
176.4173409464
  0
ARC
  5
34B
330
1F
100
AcDbEntity
  8
0
  6
Continuous
 62
     7
370
    25
100
AcDbCircle
 10
-5.1803160039
 20
-1.9085046435
 30
0.0
 40
2.35
100
AcDbArc
 50
104.9231649496
 51
108.5755704918
  0
ARC
  5
34C
330
1F
100
AcDbEntity
  8
0
  6
Continuous
 62
     7
370
    25
100
AcDbCircle
 10
0.0
 20
0.0
 30
0.0
 40
5.937499999999999
100
AcDbArc
 50
176.9195446226
 51
177.3357745263
  0
ARC
  5
34D
330
1F
100
AcDbEntity
  8
0
  6
Continuous
 62
     7
370
    25
100
AcDbCircle
 10
-4.9632664068
 20
2.4174470935
 30
0.0
 40
2.350000000000001
100
AcDbArc
 50
245.6797486572
 51
249.3321541994
  0
ARC
  5
34E
330
1F
100
AcDbEntity
  8
0
  6
Continuous
 62
     7
370
    25
100
AcDbCircle
 10
0.0
 20
0.0
 30
0.0
 40
5.796824999999999
100
AcDbArc
 50
177.8379782025
 51
178.3322345635
  0
ARC
  5
34F
330
1F
100
AcDbEntity
  8
0
  6
Continuous
 62
     7
370
    25
100
AcDbCircle
 10
-5.1136504888
 20
-2.0805390055
 30
0.0
 40
2.35
100
AcDbArc
 50
106.8380585666
 51
110.4904641088
  0
ARC
  5
350
330
1F
100
AcDbEntity
  8
0
  6
Continuous
 62
     7
370
    25
100
AcDbCircle
 10
0.0
 20
0.0
 30
0.0
 40
5.937500000000001
100
AcDbArc
 50
178.8344382396
 51
179.2506681433
  0
ARC
  5
351
330
1F
100
AcDbEntity
  8
0
  6
Continuous
 62
     7
370
    25
100
AcDbCircle
 10
-5.0412736779
 20
2.2502496705
 30
0.0
 40
2.35
100
AcDbArc
 50
247.5946422742
 51
251.2470478164
  0
ARC
  5
352
330
1F
100
AcDbEntity
  8
0
  6
Continuous
 62
     7
370
    25
100
AcDbCircle
 10
0.0
 20
0.0
 30
0.0
 40
5.796824999999999
100
AcDbArc
 50
179.7528718195
 51
180.2471281805
  0
ARC
  5
353
330
1F
100
AcDbEntity
  8
0
  6
Continuous
 62
     7
370
    25
100
AcDbCircle
 10
-2.7143394312
 20
-3.3511218572
 30
0.0
 40
1.000000000000001
100
AcDbArc
 50
230.9932426273
 51
302.2726076302
  0
ARC
  5
354
330
1F
100
AcDbEntity
  8
0
  6
Continuous
 62
     7
370
    25
100
AcDbCircle
 10
0.0
 20
0.0
 30
0.0
 40
5.3125
100
AcDbArc
 50
219.0067573727
 51
230.9932426273
  0
ARC
  5
355
330
1F
100
AcDbEntity
  8
0
  6
Continuous
 62
     7
370
    25
100
AcDbCircle
 10
-3.3511218572
 20
-2.7143394312
 30
0.0
 40
1.0
100
AcDbArc
 50
147.7273923698
 51
219.0067573727
  0
ARC
  5
356
330
1F
100
AcDbEntity
  8
0
  6
Continuous
 62
     7
370
    25
100
AcDbCircle
 10
-4.6193976626
 20
-1.9134171618
 30
0.0
 40
0.4999999999999978
100
AcDbArc
 50
327.7273923698
 51
77.2726076302
  0
ARC
  5
357
330
1F
100
AcDbEntity
  8
0
  6
Continuous
 62
     7
370
    25
100
AcDbCircle
 10
-4.2889288081
 20
-0.4502731716
 30
0.0
 40
1.0
100
AcDbArc
 50
185.9932426273
 51
257.2726076302
  0
ARC
  5
358
330
1F
100
AcDbEntity
  8
0
  6
Continuous
 62
     7
370
    25
100
AcDbCircle
 10
0.0
 20
0.0
 30
0.0
 40
5.3125
100
AcDbArc
 50
174.0067573727
 51
185.9932426273
  0
ARC
  5
359
330
1F
100
AcDbEntity
  8
0
  6
Continuous
 62
     7
370
    25
100
AcDbCircle
 10
-4.2889288081
 20
0.4502731716
 30
0.0
 40
1.0
100
AcDbArc
 50
102.7273923698
 51
174.0067573727
  0
ARC
  5
35A
330
1F
100
AcDbEntity
  8
0
  6
Continuous
 62
     7
370
    25
100
AcDbCircle
 10
-4.6193976626
 20
1.9134171618
 30
0.0
 40
0.4999999999999981
100
AcDbArc
 50
282.7273923698
 51
32.2726076302
  0
ARC
  5
35B
330
1F
100
AcDbEntity
  8
0
  6
Continuous
 62
     7
370
    25
100
AcDbCircle
 10
-3.3511218572
 20
2.7143394312
 30
0.0
 40
0.9999999999999999
100
AcDbArc
 50
140.9932426273
 51
212.2726076302
  0
ARC
  5
35C
330
1F
100
AcDbEntity
  8
0
  6
Continuous
 62
     7
370
    25
100
AcDbCircle
 10
0.0
 20
0.0
 30
0.0
 40
5.312499999999999
100
AcDbArc
 50
129.0067573727
 51
140.9932426273
  0
ARC
  5
35D
330
1F
100
AcDbEntity
  8
0
  6
Continuous
 62
     7
370
    25
100
AcDbCircle
 10
-2.7143394312
 20
3.3511218572
 30
0.0
 40
1.0
100
AcDbArc
 50
57.7273923698
 51
129.0067573727
  0
ARC
  5
35E
330
1F
100
AcDbEntity
  8
0
  6
Continuous
 62
     7
370
    25
100
AcDbCircle
 10
-1.9134171618
 20
4.6193976626
 30
0.0
 40
0.4999999999999983
100
AcDbArc
 50
237.7273923698
 51
347.2726076302
  0
ARC
  5
35F
330
1F
100
AcDbEntity
  8
0
  6
Continuous
 62
     7
370
    25
100
AcDbCircle
 10
-0.4502731716
 20
4.2889288081
 30
0.0
 40
1.0
100
AcDbArc
 50
95.9932426273
 51
167.2726076302
  0
ARC
  5
360
330
1F
100
AcDbEntity
  8
0
  6
Continuous
 62
     7
370
    25
100
AcDbCircle
 10
0.0
 20
0.0
 30
0.0
 40
5.3125
100
AcDbArc
 50
84.0067573727
 51
95.9932426273
  0
ARC
  5
361
330
1F
100
AcDbEntity
  8
0
  6
Continuous
 62
     7
370
    25
100
AcDbCircle
 10
0.4502731716
 20
4.2889288081
 30
0.0
 40
1.0
100
AcDbArc
 50
12.7273923698
 51
84.0067573727
  0
ARC
  5
362
330
1F
100
AcDbEntity
  8
0
  6
Continuous
 62
     7
370
    25
100
AcDbCircle
 10
1.9134171618
 20
4.6193976626
 30
0.0
 40
0.4999999999999986
100
AcDbArc
 50
192.7273923698
 51
302.2726076302
  0
ARC
  5
363
330
1F
100
AcDbEntity
  8
0
  6
Continuous
 62
     7
370
    25
100
AcDbCircle
 10
2.7143394312
 20
3.3511218572
 30
0.0
 40
0.9999999999999999
100
AcDbArc
 50
50.9932426273
 51
122.2726076302
  0
ARC
  5
364
330
1F
100
AcDbEntity
  8
0
  6
Continuous
 62
     7
370
    25
100
AcDbCircle
 10
0.0
 20
0.0
 30
0.0
 40
5.3125
100
AcDbArc
 50
39.0067573727
 51
50.9932426273
  0
ARC
  5
365
330
1F
100
AcDbEntity
  8
0
  6
Continuous
 62
     7
370
    25
100
AcDbCircle
 10
3.3511218572
 20
2.7143394312
 30
0.0
 40
1.000000000000001
100
AcDbArc
 50
327.7273923698
 51
39.0067573727
  0
ARC
  5
366
330
1F
100
AcDbEntity
  8
0
  6
Continuous
 62
     7
370
    25
100
AcDbCircle
 10
4.6193976626
 20
1.9134171618
 30
0.0
 40
0.4999999999999984
100
AcDbArc
 50
147.7273923698
 51
257.2726076302
  0
ARC
  5
367
330
1F
100
AcDbEntity
  8
0
  6
Continuous
 62
     7
370
    25
100
AcDbCircle
 10
4.2889288081
 20
0.4502731716
 30
0.0
 40
1.0
100
AcDbArc
 50
5.9932426273
 51
77.2726076302
  0
ARC
  5
368
330
1F
100
AcDbEntity
  8
0
  6
Continuous
 62
     7
370
    25
100
AcDbCircle
 10
0.0
 20
0.0
 30
0.0
 40
5.3125
100
AcDbArc
 50
354.0067573727
 51
5.9932426273
  0
ARC
  5
369
330
1F
100
AcDbEntity
  8
0
  6
Continuous
 62
     7
370
    25
100
AcDbCircle
 10
4.2889288081
 20
-0.4502731716
 30
0.0
 40
1.000000000000001
100
AcDbArc
 50
282.7273923698
 51
354.0067573727
  0
ARC
  5
36A
330
1F
100
AcDbEntity
  8
0
  6
Continuous
 62
     7
370
    25
100
AcDbCircle
 10
4.6193976626
 20
-1.9134171618
 30
0.0
 40
0.4999999999999983
100
AcDbArc
 50
102.7273923698
 51
212.2726076302
  0
ARC
  5
36B
330
1F
100
AcDbEntity
  8
0
  6
Continuous
 62
     7
370
    25
100
AcDbCircle
 10
3.3511218572
 20
-2.7143394312
 30
0.0
 40
1.0
100
AcDbArc
 50
320.9932426273
 51
32.2726076302
  0
ARC
  5
36C
330
1F
100
AcDbEntity
  8
0
  6
Continuous
 62
     7
370
    25
100
AcDbCircle
 10
0.0
 20
0.0
 30
0.0
 40
5.3125
100
AcDbArc
 50
309.0067573727
 51
320.9932426273
  0
ARC
  5
36D
330
1F
100
AcDbEntity
  8
0
  6
Continuous
 62
     7
370
    25
100
AcDbCircle
 10
2.7143394312
 20
-3.3511218572
 30
0.0
 40
1.000000000000001
100
AcDbArc
 50
237.7273923698
 51
309.0067573727
  0
ARC
  5
36E
330
1F
100
AcDbEntity
  8
0
  6
Continuous
 62
     7
370
    25
100
AcDbCircle
 10
1.9134171618
 20
-4.6193976626
 30
0.0
 40
0.4999999999999984
100
AcDbArc
 50
57.7273923698
 51
167.2726076302
  0
ARC
  5
36F
330
1F
100
AcDbEntity
  8
0
  6
Continuous
 62
     7
370
    25
100
AcDbCircle
 10
0.4502731716
 20
-4.2889288081
 30
0.0
 40
1.000000000000001
100
AcDbArc
 50
275.9932426273
 51
347.2726076302
  0
ARC
  5
370
330
1F
100
AcDbEntity
  8
0
  6
Continuous
 62
     7
370
    25
100
AcDbCircle
 10
0.0
 20
0.0
 30
0.0
 40
5.3125
100
AcDbArc
 50
264.0067573727
 51
275.9932426273
  0
ARC
  5
371
330
1F
100
AcDbEntity
  8
0
  6
Continuous
 62
     7
370
    25
100
AcDbCircle
 10
-0.4502731716
 20
-4.2889288081
 30
0.0
 40
0.9999999999999998
100
AcDbArc
 50
192.7273923698
 51
264.0067573727
  0
ARC
  5
372
330
1F
100
AcDbEntity
  8
0
  6
Continuous
 62
     7
370
    25
100
AcDbCircle
 10
-1.9134171618
 20
-4.6193976626
 30
0.0
 40
0.4999999999999984
100
AcDbArc
 50
12.7273923698
 51
122.2726076302
  0
CIRCLE
  5
373
330
1F
100
AcDbEntity
  8
0
  6
Continuous
 62
     7
370
    25
100
AcDbCircle
 10
1.9134171618
 20
4.6193976626
 30
0.0
 40
0.1984999999999999
  0
CIRCLE
  5
374
330
1F
100
AcDbEntity
  8
0
  6
Continuous
 62
     7
370
    25
100
AcDbCircle
 10
-1.9134171618
 20
4.6193976626
 30
0.0
 40
0.1985000000000001
  0
CIRCLE
  5
375
330
1F
100
AcDbEntity
  8
0
  6
Continuous
 62
     7
370
    25
100
AcDbCircle
 10
-4.6193976626
 20
1.9134171618
 30
0.0
 40
0.1985000000000001
  0
CIRCLE
  5
376
330
1F
100
AcDbEntity
  8
0
  6
Continuous
 62
     7
370
    25
100
AcDbCircle
 10
4.6193976626
 20
1.9134171618
 30
0.0
 40
0.1985000000000001
  0
CIRCLE
  5
377
330
1F
100
AcDbEntity
  8
0
  6
Continuous
 62
     7
370
    25
100
AcDbCircle
 10
4.6193976626
 20
-1.9134171618
 30
0.0
 40
0.1985000000000001
  0
CIRCLE
  5
378
330
1F
100
AcDbEntity
  8
0
  6
Continuous
 62
     7
370
    25
100
AcDbCircle
 10
1.9134171618
 20
-4.6193976626
 30
0.0
 40
0.1984999999999999
  0
CIRCLE
  5
379
330
1F
100
AcDbEntity
  8
0
  6
Continuous
 62
     7
370
    25
100
AcDbCircle
 10
-1.9134171618
 20
-4.6193976626
 30
0.0
 40
0.1985000000000001
  0
CIRCLE
  5
37A
330
1F
100
AcDbEntity
  8
0
  6
Continuous
 62
     7
370
    25
100
AcDbCircle
 10
-4.6193976626
 20
-1.9134171618
 30
0.0
 40
0.1985000000000001
  0
MTEXT
  5
37C
330
1F
100
AcDbEntity
  8
0
  6
Continuous
 62
     7
100
AcDbMText
 10
-5.9369922259
 20
-5.977132635
 30
0.0
 40
0.1903
 41
0.0
 71
     1
 72
     1
  1
SOLIDWORKS Maker Product.
  7
SLDTEXTSTYLE0
 73
     1
 44
1.0
  0
MTEXT
  5
37D
330
1F
100
AcDbEntity
  8
0
  6
Continuous
 62
     7
100
AcDbMText
 10
-5.9369922259
 20
-6.262582635
 30
0.0
 40
0.1903
 41
0.0
 71
     1
 72
     1
  1
For Personal Use Only.
  7
SLDTEXTSTYLE0
 73
     1
 44
1.0
  0
ENDSEC
  0
SECTION
  2
OBJECTS
  0
DICTIONARY
  5
C
330
0
100
AcDbDictionary
281
     1
  3
ACAD_GROUP
350
D
  3
ACAD_LAYOUT
350
1A
  3
ACAD_MLINESTYLE
350
17
  3
ACAD_PLOTSETTINGS
350
19
  3
ACAD_PLOTSTYLENAME
350
E
  3
ACAD_SCALELIST
350
47
  3
DWGPROPS
350
37E
  0
DICTIONARY
  5
D
102
{ACAD_REACTORS
330
C
102
}
330
C
100
AcDbDictionary
281
     1
  0
DICTIONARY
  5
1A
102
{ACAD_REACTORS
330
C
102
}
330
C
100
AcDbDictionary
281
     1
  3
Layout1
350
1E
  3
Layout2
350
26
  3
Model
350
22
  0
DICTIONARY
  5
17
102
{ACAD_REACTORS
330
C
102
}
330
C
100
AcDbDictionary
281
     1
  3
Standard
350
18
  0
DICTIONARY
  5
19
102
{ACAD_REACTORS
330
C
102
}
330
C
100
AcDbDictionary
281
     1
  0
ACDBDICTIONARYWDFLT
  5
E
102
{ACAD_REACTORS
330
C
102
}
330
C
100
AcDbDictionary
281
     1
  3
Normal
350
F
100
AcDbDictionaryWithDefault
340
F
  0
DICTIONARY
  5
47
102
{ACAD_REACTORS
330
C
102
}
330
C
100
AcDbDictionary
281
     1
  3
A0
350
48
  3
A1
350
49
  3
A2
350
4A
  3
A3
350
4B
  3
A4
350
4C
  3
A5
350
4D
  3
A6
350
4E
  3
A7
350
4F
  3
A8
350
50
  3
A9
350
51
  3
B1
350
52
  3
B2
350
53
  3
B3
350
54
  3
B4
350
55
  3
B5
350
56
  3
B6
350
57
  3
B7
350
58
  0
XRECORD
  5
37E
102
{ACAD_REACTORS
330
C
102
}
330
C
100
AcDbXrecord
280
     1
  1
DWGPROPS COOKIE
  2

  3

  4

  6

  7

  8
August
  9

300
=
301
=
302
=
303
=
304
=
305
=
306
=
307
=
308
=
309
=
 40
0.0
 41
2460632.956425417
 42
2460632.956464479
  1

 90
        0
  0
LAYOUT
  5
1E
102
{ACAD_REACTORS
330
1A
102
}
330
1A
100
AcDbPlotSettings
  1

  2
none_device
  4

  6

 40
0.0
 41
0.0
 42
0.0
 43
0.0
 44
0.0
 45
0.0
 46
0.0
 47
0.0
 48
0.0
 49
0.0
140
0.0
141
0.0
142
1.0
143
1.0
 70
   688
 72
     0
 73
     0
 74
     5
  7

 75
    16
147
1.0
148
0.0
149
0.0
100
AcDbLayout
  1
Layout1
 70
     1
 71
     1
 10
0.0
 20
0.0
 11
12.0
 21
9.0
 12
0.0
 22
0.0
 32
0.0
 14
1.0000000000E+20
 24
1.0000000000E+20
 34
1.0000000000E+20
 15
-1.0000000000E+20
 25
-1.0000000000E+20
 35
-1.0000000000E+20
146
0.0
 13
0.0
 23
0.0
 33
0.0
 16
1.0
 26
0.0
 36
0.0
 17
0.0
 27
1.0
 37
0.0
 76
     0
330
1B
  0
LAYOUT
  5
26
102
{ACAD_REACTORS
330
1A
102
}
330
1A
100
AcDbPlotSettings
  1

  2
none_device
  4

  6

 40
0.0
 41
0.0
 42
0.0
 43
0.0
 44
0.0
 45
0.0
 46
0.0
 47
0.0
 48
0.0
 49
0.0
140
0.0
141
0.0
142
1.0
143
1.0
 70
   688
 72
     0
 73
     0
 74
     5
  7

 75
    16
147
1.0
148
0.0
149
0.0
100
AcDbLayout
  1
Layout2
 70
     1
 71
     2
 10
0.0
 20
0.0
 11
0.0
 21
0.0
 12
0.0
 22
0.0
 32
0.0
 14
0.0
 24
0.0
 34
0.0
 15
0.0
 25
0.0
 35
0.0
146
0.0
 13
0.0
 23
0.0
 33
0.0
 16
1.0
 26
0.0
 36
0.0
 17
0.0
 27
1.0
 37
0.0
 76
     0
330
23
  0
LAYOUT
  5
22
102
{ACAD_REACTORS
330
1A
102
}
330
1A
100
AcDbPlotSettings
  1

  2
none_device
  4
ANSI_A_(11.00_x_8.50_Inches)
  6

 40
6.35
 41
19.05
 42
6.35000508
 43
19.05000254
 44
279.4
 45
215.9
 46
133.34999746
 47
88.89999873
 48
0.0
 49
0.0
140
0.0
141
0.0
142
0.7086921862
143
1.0
 70
  1696
 72
     0
 73
     0
 74
     0
  7

 75
     0
147
0.5913241897
148
-39.4088153714
149
0.0
100
AcDbLayout
  1
Model
 70
     1
 71
     0
 10
0.0
 20
0.0
 11
12.0
 21
9.0
 12
0.0
 22
0.0
 32
0.0
 14
-5.9369922259
 24
-5.9369922259
 34
0.0
 15
5.9369922259
 25
5.9369922259
 35
0.0
146
0.0
 13
0.0
 23
0.0
 33
0.0
 16
1.0
 26
0.0
 36
0.0
 17
0.0
 27
1.0
 37
0.0
 76
     0
330
1F
331
29
  0
MLINESTYLE
  5
18
102
{ACAD_REACTORS
330
17
102
}
330
17
100
AcDbMlineStyle
  2
Standard
 70
     0
  3

 62
   256
 51
90.0
 52
90.0
 71
     2
 49
0.5
 62
   256
  6
BYLAYER
 49
-0.5
 62
   256
  6
BYLAYER
  0
ACDBPLACEHOLDER
  5
F
102
{ACAD_REACTORS
330
E
102
}
330
E
  0
SCALE
  5
48
102
{ACAD_REACTORS
330
47
102
}
330
47
100
AcDbScale
 70
     0
300
1:1
140
1.0
141
1.0
290
     1
  0
SCALE
  5
49
102
{ACAD_REACTORS
330
47
102
}
330
47
100
AcDbScale
 70
     0
300
1/128" = 1'-0"
140
0.0078125
141
12.0
290
     0
  0
SCALE
  5
4A
102
{ACAD_REACTORS
330
47
102
}
330
47
100
AcDbScale
 70
     0
300
1/64" = 1'-0"
140
0.015625
141
12.0
290
     0
  0
SCALE
  5
4B
102
{ACAD_REACTORS
330
47
102
}
330
47
100
AcDbScale
 70
     0
300
1/32" = 1'-0"
140
0.03125
141
12.0
290
     0
  0
SCALE
  5
4C
102
{ACAD_REACTORS
330
47
102
}
330
47
100
AcDbScale
 70
     0
300
1/16" = 1'-0"
140
0.0625
141
12.0
290
     0
  0
SCALE
  5
4D
102
{ACAD_REACTORS
330
47
102
}
330
47
100
AcDbScale
 70
     0
300
3/32" = 1'-0"
140
0.09375
141
12.0
290
     0
  0
SCALE
  5
4E
102
{ACAD_REACTORS
330
47
102
}
330
47
100
AcDbScale
 70
     0
300
1/8" = 1'-0"
140
0.125
141
12.0
290
     0
  0
SCALE
  5
4F
102
{ACAD_REACTORS
330
47
102
}
330
47
100
AcDbScale
 70
     0
300
3/16" = 1'-0"
140
0.1875
141
12.0
290
     0
  0
SCALE
  5
50
102
{ACAD_REACTORS
330
47
102
}
330
47
100
AcDbScale
 70
     0
300
1/4" = 1'-0"
140
0.25
141
12.0
290
     0
  0
SCALE
  5
51
102
{ACAD_REACTORS
330
47
102
}
330
47
100
AcDbScale
 70
     0
300
3/8" = 1'-0"
140
0.375
141
12.0
290
     0
  0
SCALE
  5
52
102
{ACAD_REACTORS
330
47
102
}
330
47
100
AcDbScale
 70
     0
300
1/2" = 1'-0"
140
0.5
141
12.0
290
     0
  0
SCALE
  5
53
102
{ACAD_REACTORS
330
47
102
}
330
47
100
AcDbScale
 70
     0
300
3/4" = 1'-0"
140
0.75
141
12.0
290
     0
  0
SCALE
  5
54
102
{ACAD_REACTORS
330
47
102
}
330
47
100
AcDbScale
 70
     0
300
1" = 1'-0"
140
1.0
141
12.0
290
     0
  0
SCALE
  5
55
102
{ACAD_REACTORS
330
47
102
}
330
47
100
AcDbScale
 70
     0
300
1-1/2" = 1'-0"
140
1.5
141
12.0
290
     0
  0
SCALE
  5
56
102
{ACAD_REACTORS
330
47
102
}
330
47
100
AcDbScale
 70
     0
300
3" = 1'-0"
140
3.0
141
12.0
290
     0
  0
SCALE
  5
57
102
{ACAD_REACTORS
330
47
102
}
330
47
100
AcDbScale
 70
     0
300
6" = 1'-0"
140
6.0
141
12.0
290
     0
  0
SCALE
  5
58
102
{ACAD_REACTORS
330
47
102
}
330
47
100
AcDbScale
 70
     0
300
1'-0" = 1'-0"
140
12.0
141
12.0
290
     0
  0
ENDSEC
  0
EOF
